<svg width="531" height="265" viewBox="0 0 531 265" fill="none" xmlns="http://www.w3.org/2000/svg">
    <path
        d="M112.193 0.00016462C97.7663 -0.0246026 83.4718 2.74553 70.1005 8.15724C69.5621 8.37771 69.0216 8.59923 68.4813 8.82578C48.1604 17.3938 30.8224 31.7641 18.6403 50.1356C6.45819 68.5071 -0.026102 90.0625 7.8969e-05 112.1V234.422C0.00153603 235.714 0.515779 236.953 1.42999 237.866C2.3442 238.779 3.58372 239.293 4.87661 239.295L4.97344 239.303C98.9641 256.358 190.339 265 276.635 265C277.929 265 279.221 264.998 280.513 264.994C365.34 264.736 447.937 256.094 526.01 239.307L526.124 239.295C527.416 239.293 528.656 238.779 529.57 237.866C530.484 236.953 530.999 235.714 531 234.422V4.87271C530.999 3.58089 530.484 2.34238 529.57 1.42892C528.656 0.515464 527.416 0.0016521 526.124 0.000197664L112.193 0.00016462Z"
        fill="#7963FF" />
    <path
        d="M220.278 194.534C202.391 194.534 185.057 188.341 171.229 177.011C157.402 165.68 147.937 149.913 144.448 132.396C140.958 114.879 143.659 96.6956 152.092 80.9442C160.524 65.1928 174.165 52.848 190.691 46.0131C207.217 39.1783 225.605 38.2763 242.722 43.4609C259.839 48.6455 274.627 59.5959 284.564 74.4463C294.502 89.2966 298.976 107.128 297.222 124.902C295.469 142.677 287.598 159.294 274.949 171.923C267.786 179.114 259.266 184.815 249.882 188.697C240.498 192.578 230.436 194.562 220.278 194.534V194.534ZM220.278 40.73C177.974 40.73 143.556 75.0951 143.556 117.335C143.556 159.576 177.974 193.941 220.278 193.941C262.583 193.941 297 159.576 297 117.335C297 75.0951 262.583 40.73 220.278 40.73V40.73Z"
        fill="#CCCCCC" />
    <path d="M248.987 206.111V128.338H191.014V206.111H248.987Z" fill="#2B2B2B" />
    <path d="M258.946 125.963H181.054V156.835H258.946V125.963Z" fill="#E6E6E6" />
    <path d="M258.946 160.397H181.054V191.269H258.946V160.397Z" fill="#E6E6E6" />
    <path d="M258.946 194.831H181.054V225.703H258.946V194.831Z" fill="#E6E6E6" />
    <path d="M258.946 139.053H181.054V143.802H258.946V139.053Z" fill="#7963FF" />
    <path d="M258.946 173.487H181.054V178.237H258.946V173.487Z" fill="#7963FF" />
    <path d="M258.946 207.921H181.054V212.671H258.946V207.921Z" fill="#7963FF" />
    <path
        d="M243.784 132.197C244.769 132.197 245.568 131.399 245.568 130.416C245.568 129.432 244.769 128.635 243.784 128.635C242.799 128.635 242 129.432 242 130.416C242 131.399 242.799 132.197 243.784 132.197Z"
        fill="#8FAEFF" />
    <path
        d="M250.027 132.197C251.012 132.197 251.811 131.399 251.811 130.416C251.811 129.432 251.012 128.635 250.027 128.635C249.042 128.635 248.243 129.432 248.243 130.416C248.243 131.399 249.042 132.197 250.027 132.197Z"
        fill="#8FAEFF" />
    <path
        d="M256.27 132.197C257.255 132.197 258.054 131.399 258.054 130.416C258.054 129.432 257.255 128.635 256.27 128.635C255.285 128.635 254.487 129.432 254.487 130.416C254.487 131.399 255.285 132.197 256.27 132.197Z"
        fill="#8FAEFF" />
    <path
        d="M243.784 166.037C244.769 166.037 245.568 165.24 245.568 164.256C245.568 163.273 244.769 162.475 243.784 162.475C242.799 162.475 242 163.273 242 164.256C242 165.24 242.799 166.037 243.784 166.037Z"
        fill="#8FAEFF" />
    <path
        d="M250.027 166.037C251.012 166.037 251.811 165.24 251.811 164.256C251.811 163.273 251.012 162.475 250.027 162.475C249.042 162.475 248.243 163.273 248.243 164.256C248.243 165.24 249.042 166.037 250.027 166.037Z"
        fill="#8FAEFF" />
    <path
        d="M256.27 166.037C257.255 166.037 258.054 165.24 258.054 164.256C258.054 163.273 257.255 162.475 256.27 162.475C255.285 162.475 254.487 163.273 254.487 164.256C254.487 165.24 255.285 166.037 256.27 166.037Z"
        fill="#8FAEFF" />
    <path
        d="M243.784 199.878C244.769 199.878 245.568 199.08 245.568 198.097C245.568 197.113 244.769 196.316 243.784 196.316C242.799 196.316 242 197.113 242 198.097C242 199.08 242.799 199.878 243.784 199.878Z"
        fill="#8FAEFF" />
    <path
        d="M250.027 199.878C251.012 199.878 251.811 199.08 251.811 198.097C251.811 197.113 251.012 196.316 250.027 196.316C249.042 196.316 248.243 197.113 248.243 198.097C248.243 199.08 249.042 199.878 250.027 199.878Z"
        fill="#8FAEFF" />
    <path
        d="M256.27 199.878C257.255 199.878 258.054 199.08 258.054 198.097C258.054 197.113 257.255 196.316 256.27 196.316C255.285 196.316 254.487 197.113 254.487 198.097C254.487 199.08 255.285 199.878 256.27 199.878Z"
        fill="#8FAEFF" />
    <path d="M352 225.406H88V226H352V225.406Z" fill="#3F3D56" />
    <path
        d="M159.91 95.4644V150.675C159.91 151.83 159.45 152.938 158.632 153.755C157.814 154.571 156.705 155.03 155.548 155.031H134.06C132.903 155.031 131.793 154.572 130.974 153.755C130.156 152.938 129.696 151.831 129.696 150.675V95.4644C129.696 94.309 130.156 93.2011 130.974 92.3844C131.793 91.5676 132.903 91.1088 134.06 91.109H136.666C136.538 91.4233 136.49 91.7641 136.524 92.1016C136.559 92.4391 136.677 92.7629 136.866 93.0445C137.056 93.3261 137.312 93.5569 137.611 93.7166C137.911 93.8763 138.246 93.9601 138.585 93.9605H150.837C151.176 93.9601 151.511 93.8763 151.811 93.7166C152.11 93.5569 152.366 93.3261 152.556 93.0445C152.745 92.7629 152.863 92.4391 152.898 92.1016C152.932 91.7641 152.884 91.4233 152.756 91.109H155.548C156.705 91.1092 157.814 91.5682 158.632 92.3849C159.45 93.2016 159.91 94.3093 159.91 95.4644V95.4644Z"
        fill="#E6E6E6" />
    <path d="M158.479 101.652H131.127V139.648H158.479V101.652Z" fill="white" />
    <path d="M149.81 127.78H138.893V128.403H149.81V127.78Z" fill="#E6E6E6" />
    <path d="M155.774 130.067H138.882V130.69H155.774V130.067Z" fill="#8FAEFF" />
    <path d="M152.138 132.221H138.882V132.844H152.138V132.221Z" fill="#E6E6E6" />
    <path d="M146.68 134.376H138.882V134.999H146.68V134.376Z" fill="#E6E6E6" />
    <path d="M150.578 136.531H138.882V137.154H150.578V136.531Z" fill="#E6E6E6" />
    <path d="M135.19 127.601H133.942V128.846H135.19V127.601Z" fill="#E6E6E6" />
    <path d="M135.19 129.755H133.942V131.001H135.19V129.755Z" fill="#8FAEFF" />
    <path d="M135.19 131.91H133.942V133.156H135.19V131.91Z" fill="#E6E6E6" />
    <path d="M135.19 134.065H133.942V135.31H135.19V134.065Z" fill="#E6E6E6" />
    <path d="M135.19 136.219H133.942V137.465H135.19V136.219Z" fill="#E6E6E6" />
    <path d="M150.358 106.402H139.358V117.384H150.358V106.402Z" fill="#E6E6E6" />
    <path d="M256.566 15.0414H183.465V61.7871H256.566V15.0414Z" fill="#E6E6E6" />
    <path d="M249.583 28.1192H188.976V50.9868H249.583V28.1192Z" fill="white" />
    <path d="M214.564 32.081H200.018V32.911H214.564V32.081Z" fill="#E6E6E6" />
    <path d="M222.511 35.1283H200.004V35.9582H222.511V35.1283Z" fill="#8FAEFF" />
    <path d="M217.667 37.9993H200.004V38.8292H217.667V37.9993Z" fill="#E6E6E6" />
    <path d="M210.394 40.8703H200.004V41.7002H210.394V40.8703Z" fill="#E6E6E6" />
    <path d="M215.589 43.7412H200.004V44.5712H215.589V43.7412Z" fill="#E6E6E6" />
    <path d="M195.084 31.8424H193.422V33.5022H195.084V31.8424Z" fill="#E6E6E6" />
    <path d="M195.084 34.7133H193.422V36.3732H195.084V34.7133Z" fill="#8FAEFF" />
    <path d="M195.084 37.5843H193.422V39.2442H195.084V37.5843Z" fill="#E6E6E6" />
    <path d="M195.084 40.4553H193.422V42.1152H195.084V40.4553Z" fill="#E6E6E6" />
    <path d="M195.084 43.3263H193.422V44.9861H195.084V43.3263Z" fill="#E6E6E6" />
    <path d="M246.609 30.9844H231.727V45.8441H246.609V30.9844Z" fill="#E6E6E6" />
    <path d="M256.535 15H183.434V18.1009H256.535V15Z" fill="#8FAEFF" />
    <path
        d="M185.742 17.2078C186.086 17.2078 186.365 16.9291 186.365 16.5853C186.365 16.2416 186.086 15.9629 185.742 15.9629C185.398 15.9629 185.119 16.2416 185.119 16.5853C185.119 16.9291 185.398 17.2078 185.742 17.2078Z"
        fill="white" />
    <path
        d="M187.927 17.2078C188.271 17.2078 188.55 16.9291 188.55 16.5853C188.55 16.2416 188.271 15.9629 187.927 15.9629C187.582 15.9629 187.303 16.2416 187.303 16.5853C187.303 16.9291 187.582 17.2078 187.927 17.2078Z"
        fill="white" />
    <path
        d="M190.112 17.2078C190.456 17.2078 190.735 16.9291 190.735 16.5853C190.735 16.2416 190.456 15.9629 190.112 15.9629C189.767 15.9629 189.488 16.2416 189.488 16.5853C189.488 16.9291 189.767 17.2078 190.112 17.2078Z"
        fill="white" />
    <path d="M305.517 102.512H287.679V111.715H305.517V102.512Z" fill="#E6E6E6" />
    <path d="M305.517 135.462H287.679V144.664H305.517V135.462Z" fill="#E6E6E6" />
    <path
        d="M296.598 138.431C304.808 138.431 311.463 131.786 311.463 123.588C311.463 115.391 304.808 108.746 296.598 108.746C288.388 108.746 281.733 115.391 281.733 123.588C281.733 131.786 288.388 138.431 296.598 138.431Z"
        fill="#E6E6E6" />
    <path
        d="M296.598 135.165C303.001 135.165 308.193 129.982 308.193 123.588C308.193 117.195 303.001 112.011 296.598 112.011C290.194 112.011 285.003 117.195 285.003 123.588C285.003 129.982 290.194 135.165 296.598 135.165Z"
        fill="white" />
    <path d="M301.793 120.416H292.801V120.929H301.793V120.416Z" fill="#E2E2E2" />
    <path d="M306.706 122.3H292.792V122.813H306.706V122.3Z" fill="#8FAEFF" />
    <path d="M303.711 124.075H292.792V124.588H303.711V124.075Z" fill="#E2E2E2" />
    <path d="M299.215 125.85H292.792V126.363H299.215V125.85Z" fill="#E2E2E2" />
    <path d="M302.427 127.625H292.792V128.138H302.427V127.625Z" fill="#E2E2E2" />
    <path d="M289.751 120.269H288.723V121.295H289.751V120.269Z" fill="#E2E2E2" />
    <path d="M289.751 122.044H288.723V123.07H289.751V122.044Z" fill="#8FAEFF" />
    <path d="M289.751 123.819H288.723V124.845H289.751V123.819Z" fill="#E2E2E2" />
    <path d="M289.751 125.593H288.723V126.62H289.751V125.593Z" fill="#E2E2E2" />
    <path d="M289.751 127.368H288.723V128.394H289.751V127.368Z" fill="#E2E2E2" />
    <g opacity="0.4">
        <path opacity="0.4"
            d="M501.952 19.1079C501.952 21.3766 503.894 23.2158 506.29 23.2158C508.686 23.2158 510.628 21.3766 510.628 19.1079C510.628 16.8392 508.686 15 506.29 15C503.894 15 501.952 16.8392 501.952 19.1079Z"
            fill="white" />
        <path opacity="0.4"
            d="M501.952 36.2241C501.952 38.4928 503.894 40.332 506.29 40.332C508.686 40.332 510.628 38.4928 510.628 36.2241C510.628 33.9554 508.686 32.1162 506.29 32.1162C503.894 32.1162 501.952 33.9554 501.952 36.2241Z"
            fill="white" />
        <path opacity="0.4"
            d="M501.952 53.3403C501.952 55.609 503.894 57.4482 506.29 57.4482C508.686 57.4482 510.628 55.609 510.628 53.3403C510.628 51.0716 508.686 49.2324 506.29 49.2324C503.894 49.2324 501.952 51.0716 501.952 53.3403Z"
            fill="white" />
        <path opacity="0.4"
            d="M501.952 70.4565C501.952 72.7252 503.894 74.5644 506.29 74.5644C508.686 74.5644 510.628 72.7252 510.628 70.4565C510.628 68.1878 508.686 66.3486 506.29 66.3486C503.894 66.3486 501.952 68.1878 501.952 70.4565Z"
            fill="white" />
        <path opacity="0.4"
            d="M501.952 87.5727C501.952 89.8414 503.894 91.6806 506.29 91.6806C508.686 91.6806 510.628 89.8414 510.628 87.5727C510.628 85.304 508.686 83.4648 506.29 83.4648C503.894 83.4648 501.952 85.304 501.952 87.5727Z"
            fill="white" />
        <path opacity="0.4"
            d="M501.952 104.689C501.952 106.958 503.894 108.797 506.29 108.797C508.686 108.797 510.628 106.958 510.628 104.689C510.628 102.42 508.686 100.581 506.29 100.581C503.894 100.581 501.952 102.42 501.952 104.689Z"
            fill="white" />
        <path opacity="0.4"
            d="M501.952 121.805C501.952 124.074 503.894 125.913 506.29 125.913C508.686 125.913 510.628 124.074 510.628 121.805C510.628 119.536 508.686 117.697 506.29 117.697C503.894 117.697 501.952 119.536 501.952 121.805Z"
            fill="white" />
        <path opacity="0.4"
            d="M488.214 19.1079C488.214 21.3766 490.156 23.2158 492.552 23.2158C494.948 23.2158 496.89 21.3766 496.89 19.1079C496.89 16.8392 494.948 15 492.552 15C490.156 15 488.214 16.8392 488.214 19.1079Z"
            fill="white" />
        <path opacity="0.4"
            d="M488.214 36.2241C488.214 38.4928 490.156 40.332 492.552 40.332C494.948 40.332 496.89 38.4928 496.89 36.2241C496.89 33.9554 494.948 32.1162 492.552 32.1162C490.156 32.1162 488.214 33.9554 488.214 36.2241Z"
            fill="white" />
        <path opacity="0.4"
            d="M488.214 53.3403C488.214 55.609 490.156 57.4482 492.552 57.4482C494.948 57.4482 496.89 55.609 496.89 53.3403C496.89 51.0716 494.948 49.2324 492.552 49.2324C490.156 49.2324 488.214 51.0716 488.214 53.3403Z"
            fill="white" />
        <path opacity="0.4"
            d="M488.214 70.4565C488.214 72.7252 490.156 74.5644 492.552 74.5644C494.948 74.5644 496.89 72.7252 496.89 70.4565C496.89 68.1878 494.948 66.3486 492.552 66.3486C490.156 66.3486 488.214 68.1878 488.214 70.4565Z"
            fill="white" />
        <path opacity="0.4"
            d="M488.214 87.5727C488.214 89.8414 490.156 91.6806 492.552 91.6806C494.948 91.6806 496.89 89.8414 496.89 87.5727C496.89 85.304 494.948 83.4648 492.552 83.4648C490.156 83.4648 488.214 85.304 488.214 87.5727Z"
            fill="white" />
        <path opacity="0.4"
            d="M488.214 104.689C488.214 106.958 490.156 108.797 492.552 108.797C494.948 108.797 496.89 106.958 496.89 104.689C496.89 102.42 494.948 100.581 492.552 100.581C490.156 100.581 488.214 102.42 488.214 104.689Z"
            fill="white" />
        <path opacity="0.4"
            d="M488.214 121.805C488.214 124.074 490.156 125.913 492.552 125.913C494.948 125.913 496.89 124.074 496.89 121.805C496.89 119.536 494.948 117.697 492.552 117.697C490.156 117.697 488.214 119.536 488.214 121.805Z"
            fill="white" />
        <path opacity="0.4"
            d="M474.476 19.1079C474.476 21.3766 476.418 23.2158 478.814 23.2158C481.21 23.2158 483.152 21.3766 483.152 19.1079C483.152 16.8392 481.21 15 478.814 15C476.418 15 474.476 16.8392 474.476 19.1079Z"
            fill="white" />
        <path opacity="0.4"
            d="M474.476 36.2241C474.476 38.4928 476.418 40.332 478.814 40.332C481.21 40.332 483.152 38.4928 483.152 36.2241C483.152 33.9554 481.21 32.1162 478.814 32.1162C476.418 32.1162 474.476 33.9554 474.476 36.2241Z"
            fill="white" />
        <path opacity="0.4"
            d="M474.476 53.3403C474.476 55.609 476.418 57.4482 478.814 57.4482C481.21 57.4482 483.152 55.609 483.152 53.3403C483.152 51.0716 481.21 49.2324 478.814 49.2324C476.418 49.2324 474.476 51.0716 474.476 53.3403Z"
            fill="white" />
        <path opacity="0.4"
            d="M474.476 70.4565C474.476 72.7252 476.418 74.5644 478.814 74.5644C481.21 74.5644 483.152 72.7252 483.152 70.4565C483.152 68.1878 481.21 66.3486 478.814 66.3486C476.418 66.3486 474.476 68.1878 474.476 70.4565Z"
            fill="white" />
        <path opacity="0.4"
            d="M474.476 87.5727C474.476 89.8414 476.418 91.6806 478.814 91.6806C481.21 91.6806 483.152 89.8414 483.152 87.5727C483.152 85.304 481.21 83.4648 478.814 83.4648C476.418 83.4648 474.476 85.304 474.476 87.5727Z"
            fill="white" />
        <path opacity="0.4"
            d="M474.476 104.689C474.476 106.958 476.418 108.797 478.814 108.797C481.21 108.797 483.152 106.958 483.152 104.689C483.152 102.42 481.21 100.581 478.814 100.581C476.418 100.581 474.476 102.42 474.476 104.689Z"
            fill="white" />
        <path opacity="0.4"
            d="M474.476 121.805C474.476 124.074 476.418 125.913 478.814 125.913C481.21 125.913 483.152 124.074 483.152 121.805C483.152 119.536 481.21 117.697 478.814 117.697C476.418 117.697 474.476 119.536 474.476 121.805Z"
            fill="white" />
        <path opacity="0.4"
            d="M460.738 19.1079C460.738 21.3766 462.68 23.2158 465.076 23.2158C467.472 23.2158 469.414 21.3766 469.414 19.1079C469.414 16.8392 467.472 15 465.076 15C462.68 15 460.738 16.8392 460.738 19.1079Z"
            fill="white" />
        <path opacity="0.4"
            d="M460.738 36.2241C460.738 38.4928 462.68 40.332 465.076 40.332C467.472 40.332 469.414 38.4928 469.414 36.2241C469.414 33.9554 467.472 32.1162 465.076 32.1162C462.68 32.1162 460.738 33.9554 460.738 36.2241Z"
            fill="white" />
        <path opacity="0.4"
            d="M447 19.1079C447 21.3766 448.942 23.2158 451.338 23.2158C453.734 23.2158 455.677 21.3766 455.677 19.1079C455.677 16.8392 453.734 15 451.338 15C448.942 15 447 16.8392 447 19.1079Z"
            fill="white" />
        <path opacity="0.4"
            d="M447 36.2241C447 38.4928 448.942 40.332 451.338 40.332C453.734 40.332 455.677 38.4928 455.677 36.2241C455.677 33.9554 453.734 32.1162 451.338 32.1162C448.942 32.1162 447 33.9554 447 36.2241Z"
            fill="white" />
        <path opacity="0.4"
            d="M447 53.3403C447 55.609 448.942 57.4482 451.338 57.4482C453.734 57.4482 455.677 55.609 455.677 53.3403C455.677 51.0716 453.734 49.2324 451.338 49.2324C448.942 49.2324 447 51.0716 447 53.3403Z"
            fill="white" />
        <path opacity="0.4"
            d="M460.738 53.3403C460.738 55.609 462.68 57.4482 465.076 57.4482C467.472 57.4482 469.414 55.609 469.414 53.3403C469.414 51.0716 467.472 49.2324 465.076 49.2324C462.68 49.2324 460.738 51.0716 460.738 53.3403Z"
            fill="white" />
        <path opacity="0.4"
            d="M460.738 70.4565C460.738 72.7252 462.68 74.5644 465.076 74.5644C467.472 74.5644 469.414 72.7252 469.414 70.4565C469.414 68.1878 467.472 66.3486 465.076 66.3486C462.68 66.3486 460.738 68.1878 460.738 70.4565Z"
            fill="white" />
        <path opacity="0.4"
            d="M460.738 87.5727C460.738 89.8414 462.68 91.6806 465.076 91.6806C467.472 91.6806 469.414 89.8414 469.414 87.5727C469.414 85.304 467.472 83.4648 465.076 83.4648C462.68 83.4648 460.738 85.304 460.738 87.5727Z"
            fill="white" />
        <path opacity="0.4"
            d="M460.738 104.689C460.738 106.958 462.68 108.797 465.076 108.797C467.472 108.797 469.414 106.958 469.414 104.689C469.414 102.42 467.472 100.581 465.076 100.581C462.68 100.581 460.738 102.42 460.738 104.689Z"
            fill="white" />
        <path opacity="0.4"
            d="M460.738 121.805C460.738 124.074 462.68 125.913 465.076 125.913C467.472 125.913 469.414 124.074 469.414 121.805C469.414 119.536 467.472 117.697 465.076 117.697C462.68 117.697 460.738 119.536 460.738 121.805Z"
            fill="white" />
    </g>
    <g clip-path="url(#clip0_1_284)">
        <path
            d="M484.385 193.122H352.574C351.758 193.121 350.976 192.797 350.399 192.221C349.822 191.645 349.498 190.864 349.497 190.049V162.784C349.498 161.969 349.822 161.188 350.399 160.611C350.976 160.035 351.758 159.711 352.574 159.71H484.385C485.201 159.711 485.983 160.035 486.56 160.611C487.137 161.188 487.462 161.969 487.463 162.784V190.049C487.462 190.864 487.137 191.645 486.56 192.221C485.983 192.797 485.201 193.121 484.385 193.122Z"
            fill="#E6E6E6" />
        <path
            d="M475.489 191.049H354.65C353.834 191.048 353.052 190.724 352.475 190.148C351.898 189.572 351.574 188.79 351.573 187.976V164.859C351.574 164.044 351.898 163.262 352.475 162.686C353.052 162.11 353.834 161.786 354.65 161.785H482.31C483.126 161.786 483.908 162.11 484.485 162.686C485.061 163.262 485.386 164.044 485.387 164.859V181.163C485.384 183.784 484.34 186.297 482.485 188.15C480.629 190.004 478.113 191.046 475.489 191.049V191.049Z"
            fill="white" />
        <path
            d="M459.553 172.265H422.752C422.541 172.265 422.339 172.181 422.19 172.033C422.042 171.884 421.958 171.683 421.958 171.472C421.958 171.262 422.042 171.06 422.19 170.912C422.339 170.763 422.541 170.68 422.752 170.68H459.553C459.763 170.68 459.965 170.763 460.114 170.912C460.263 171.06 460.346 171.262 460.346 171.472C460.346 171.683 460.263 171.884 460.114 172.033C459.965 172.181 459.763 172.265 459.553 172.265V172.265Z"
            fill="#7BCEBF" />
        <path
            d="M468.867 176.97H413.437C413.226 176.97 413.025 176.886 412.876 176.738C412.727 176.589 412.643 176.388 412.643 176.177C412.643 175.967 412.727 175.765 412.876 175.617C413.025 175.468 413.226 175.385 413.437 175.385H468.867C469.078 175.385 469.28 175.468 469.429 175.617C469.577 175.765 469.661 175.967 469.661 176.177C469.661 176.388 469.577 176.589 469.429 176.738C469.28 176.886 469.078 176.97 468.867 176.97V176.97Z"
            fill="#E6E6E6" />
        <path
            d="M468.867 182.154H413.437C413.226 182.154 413.025 182.071 412.876 181.922C412.727 181.774 412.643 181.572 412.643 181.362C412.643 181.152 412.727 180.95 412.876 180.801C413.025 180.653 413.226 180.569 413.437 180.569H468.867C469.078 180.569 469.28 180.653 469.429 180.801C469.577 180.95 469.661 181.152 469.661 181.362C469.661 181.572 469.577 181.774 469.429 181.922C469.28 182.071 469.078 182.154 468.867 182.154V182.154Z"
            fill="#E6E6E6" />
        <path d="M422.262 164.257H421.81V146.857H454.519V147.309H422.262V164.257Z" fill="#3F3D56" />
        <path
            d="M468.352 144H456.367C455.588 144 454.84 144.309 454.289 144.86C453.738 145.411 453.428 146.157 453.428 146.936C453.428 147.715 453.738 148.461 454.289 149.012C454.84 149.563 455.588 149.872 456.367 149.872H468.352C469.131 149.872 469.879 149.563 470.43 149.012C470.981 148.461 471.291 147.715 471.291 146.936C471.291 146.157 470.981 145.411 470.43 144.86C469.879 144.309 469.131 144 468.352 144V144Z"
            fill="#7BCEBF" />
        <path
            d="M421.774 167.213C423.266 167.213 424.475 166.005 424.475 164.515C424.475 163.025 423.266 161.817 421.774 161.817C420.282 161.817 419.073 163.025 419.073 164.515C419.073 166.005 420.282 167.213 421.774 167.213Z"
            fill="#E6E6E6" />
        <path d="M438.543 188.787H438.09V206.187H470.8V205.735H438.543V188.787Z" fill="#3F3D56" />
        <path
            d="M487.571 206.108C487.571 205.33 487.261 204.583 486.71 204.033C486.159 203.482 485.411 203.173 484.632 203.172H472.648C471.868 203.172 471.12 203.481 470.569 204.032C470.018 204.583 469.708 205.329 469.708 206.108C469.708 206.887 470.018 207.633 470.569 208.184C471.12 208.735 471.868 209.044 472.648 209.044H484.632C485.411 209.043 486.159 208.734 486.71 208.183C487.261 207.633 487.571 206.886 487.571 206.108V206.108Z"
            fill="#7BCEBF" />
        <path
            d="M438.506 190.475C439.998 190.475 441.208 189.267 441.208 187.777C441.208 186.287 439.998 185.079 438.506 185.079C437.015 185.079 435.805 186.287 435.805 187.777C435.805 189.267 437.015 190.475 438.506 190.475Z"
            fill="#E6E6E6" />
        <path d="M390.029 189.013H390.481V206.413H357.772V205.961H390.029V189.013Z" fill="#3F3D56" />
        <path
            d="M343.94 209.27H355.924C356.703 209.27 357.451 208.961 358.002 208.41C358.553 207.859 358.863 207.113 358.863 206.334C358.863 205.555 358.553 204.808 358.002 204.258C357.451 203.707 356.703 203.398 355.924 203.398H343.94C343.16 203.398 342.412 203.707 341.861 204.258C341.31 204.808 341 205.555 341 206.334C341 207.113 341.31 207.859 341.861 208.41C342.412 208.961 343.16 209.27 343.94 209.27Z"
            fill="#7BCEBF" />
        <path
            d="M390.57 190.324C392.062 190.324 393.271 189.116 393.271 187.626C393.271 186.136 392.062 184.928 390.57 184.928C389.078 184.928 387.869 186.136 387.869 187.626C387.869 189.116 389.078 190.324 390.57 190.324Z"
            fill="#E6E6E6" />
        <path
            d="M364.54 184.505C369.036 184.505 372.68 180.865 372.68 176.374C372.68 171.884 369.036 168.244 364.54 168.244C360.044 168.244 356.4 171.884 356.4 176.374C356.4 180.865 360.044 184.505 364.54 184.505Z"
            fill="#F2F2F2" />
        <path
            d="M395.383 172.222H390.012C389.801 172.222 389.599 172.139 389.45 171.99C389.302 171.842 389.218 171.64 389.218 171.43C389.218 171.219 389.302 171.018 389.45 170.869C389.599 170.721 389.801 170.637 390.012 170.637H395.383C395.593 170.637 395.795 170.721 395.944 170.869C396.093 171.018 396.176 171.219 396.176 171.43C396.176 171.64 396.093 171.842 395.944 171.99C395.795 172.139 395.593 172.222 395.383 172.222Z"
            fill="#7BCEBF" />
        <path
            d="M404.697 176.927H380.697C380.486 176.927 380.285 176.844 380.136 176.695C379.987 176.547 379.903 176.345 379.903 176.135C379.903 175.924 379.987 175.723 380.136 175.574C380.285 175.426 380.486 175.342 380.697 175.342H404.697C404.908 175.342 405.11 175.426 405.258 175.574C405.407 175.723 405.491 175.924 405.491 176.135C405.491 176.345 405.407 176.547 405.258 176.695C405.11 176.844 404.908 176.927 404.697 176.927V176.927Z"
            fill="#E6E6E6" />
        <path
            d="M404.697 182.112H380.697C380.486 182.112 380.285 182.028 380.136 181.88C379.987 181.731 379.903 181.529 379.903 181.319C379.903 181.109 379.987 180.907 380.136 180.759C380.285 180.61 380.486 180.526 380.697 180.526H404.697C404.908 180.526 405.11 180.61 405.258 180.759C405.407 180.907 405.491 181.109 405.491 181.319C405.491 181.529 405.407 181.731 405.258 181.88C405.11 182.028 404.908 182.112 404.697 182.112V182.112Z"
            fill="#E6E6E6" />
    </g>
    <defs>
        <clipPath id="clip0_1_284">
            <rect width="152" height="66" fill="white" transform="translate(341 144)" />
        </clipPath>
    </defs>
</svg>