<svg width="97" height="91" viewBox="0 0 97 91" fill="none" xmlns="http://www.w3.org/2000/svg">
    <g clip-path="url(#clip0_16_37)">
        <path
            d="M93.1898 39.3128C93.451 42.6437 92.4455 45.9504 90.3742 48.5719C88.3029 51.1935 85.3184 52.9366 82.0175 53.453C81.9063 53.4702 81.7934 53.4876 81.6802 53.5016L80.6967 40.952C80.687 40.8265 80.6493 40.7049 80.5865 40.5959C80.5236 40.4869 80.4372 40.3933 80.3335 40.3221C80.3214 40.3114 80.308 40.3021 80.2938 40.2945C80.2807 40.2854 80.267 40.2774 80.2527 40.2704C80.1276 40.2031 79.9876 40.1682 79.8455 40.1689C79.7035 40.1696 79.5638 40.2059 79.4394 40.2745L79.2745 39.977C79.4229 39.8948 79.587 39.8453 79.7561 39.8318L69.4483 32.2701C69.5162 32.1795 69.5877 32.0903 69.6591 32.0012C71.3291 29.9396 73.579 28.4262 76.118 27.6565C78.657 26.8868 81.3685 26.8962 83.9021 27.6834C86.4357 28.4707 88.675 29.9997 90.3307 32.0728C91.9863 34.1459 92.9823 36.6678 93.1898 39.3128Z"
            fill="#F2F2F2" />
        <path
            d="M80.6316 40.1213C80.6365 40.1634 80.6251 40.2058 80.5999 40.2398C80.5734 40.2762 80.5334 40.3007 80.4889 40.3077C80.4444 40.3147 80.3989 40.3037 80.3624 40.2772L79.7561 39.8318L69.4483 32.2701L40.537 11.0581C40.3721 10.9379 40.1696 10.8808 39.9663 10.897C39.7629 10.9133 39.5721 11.0018 39.4284 11.1466L5.44088 45.69L5.13434 46.0005C5.12257 46.0127 5.10899 46.023 5.09409 46.031C5.06788 46.0451 5.03842 46.0521 5.00865 46.0513C4.96596 46.0501 4.92519 46.0333 4.89409 46.004C4.87806 45.9885 4.86525 45.9699 4.85639 45.9495C4.84753 45.929 4.8428 45.9069 4.84248 45.8846C4.84215 45.8623 4.84624 45.8401 4.85449 45.8194C4.86275 45.7987 4.87502 45.7798 4.89059 45.7638L4.93317 45.7195L39.1863 10.9081C39.3877 10.7056 39.6548 10.5818 39.9394 10.5589C40.2241 10.5359 40.5075 10.6154 40.7388 10.783L69.6592 32.0012L80.5626 40.0022C80.5816 40.0163 80.5976 40.0341 80.6095 40.0546C80.6213 40.0751 80.6289 40.0978 80.6316 40.1213Z"
            fill="#3F3D56" />
        <path
            d="M60.4323 46.741L59.8902 45.5486L58.0222 41.4309L53.998 32.565L49.4997 22.6548L41.3872 4.77949C41.2281 4.43098 40.9374 4.15972 40.5787 4.02511C40.22 3.8905 39.8226 3.90352 39.4735 4.06131L2.00174 21.0676C1.65312 21.2266 1.38174 21.5173 1.24712 21.876C1.1125 22.2348 1.12561 22.6322 1.28358 22.9813L12.7852 48.3226L12.9812 48.7558L23.2609 52.4769L26.1503 53.5228L26.619 53.6925L38.8527 58.1218L39.2973 57.9198L46.826 54.5036L58.1823 49.3495L59.7124 48.6548C60.0612 48.496 60.3328 48.2053 60.4677 47.8466C60.6027 47.4879 60.5899 47.0903 60.4323 46.741Z"
            fill="#E6E6E6" />
        <path
            d="M42.5573 26.2828C42.3235 25.7698 41.8959 25.3705 41.3681 25.1724C40.8404 24.9743 40.2556 24.9935 39.7421 25.2259L24.9156 31.9567L17.7559 35.2059C17.5015 35.321 17.2723 35.4852 17.0813 35.689C16.8904 35.8928 16.7415 36.1322 16.6432 36.3936C16.5448 36.655 16.499 36.9332 16.5082 37.2123C16.5174 37.4914 16.5816 37.766 16.697 38.0203C16.8124 38.2746 16.9768 38.5037 17.1808 38.6944C17.3848 38.8851 17.6244 39.0338 17.8858 39.1319C18.1473 39.2299 18.4255 39.2755 18.7046 39.266C18.9838 39.2565 19.2583 39.1921 19.5124 39.0764L25.2688 36.4643L41.5005 29.098C42.0134 28.8642 42.4127 28.4366 42.6108 27.9089C42.8089 27.3811 42.7897 26.7964 42.5573 26.2828Z"
            fill="white" />
        <path
            d="M45.825 33.4835C45.5913 32.9705 45.1636 32.5712 44.6359 32.3731C44.1082 32.175 43.5234 32.1942 43.0098 32.4266L40.4981 33.5666L25.5727 40.341L21.0235 42.4048C20.5106 42.6381 20.1112 43.0655 19.9132 43.5931C19.7152 44.1207 19.7347 44.7053 19.9675 45.2184C20.2003 45.7316 20.6274 46.1314 21.1548 46.3299C21.6822 46.5284 22.2668 46.5094 22.7802 46.277L25.9259 44.8485L44.7681 36.297C44.8109 36.2783 44.8518 36.2563 44.8928 36.2343C45.3682 35.9797 45.7291 35.5538 45.9022 35.043C46.0753 34.5322 46.0477 33.9747 45.825 33.4835Z"
            fill="white" />
        <path
            d="M49.1277 40.7602C48.8943 40.2473 48.467 39.848 47.9396 39.6498C47.4121 39.4516 46.8275 39.4708 46.3142 39.7032L39.2699 42.9007L33.8165 45.3765L26.2368 48.8155L24.3264 49.6833C23.8849 49.8844 23.5253 50.2303 23.3071 50.6636C23.0889 51.0969 23.0251 51.5918 23.1264 52.0662C23.157 52.2074 23.2021 52.345 23.2609 52.477L26.1503 53.5229L26.5901 53.323L26.5934 53.3228L40.3479 47.0802L48.0708 43.5754C48.5841 43.342 48.9837 42.9144 49.1819 42.3865C49.3801 41.8587 49.3606 41.2737 49.1277 40.7602L49.1277 40.7602Z"
            fill="white" />
        <path
            d="M31.4998 19.8186C31.266 19.3056 30.8383 18.9063 30.3106 18.7082C29.7829 18.5101 29.1981 18.5293 28.6845 18.7617L20.1692 22.6254C19.6563 22.8587 19.2569 23.2861 19.0589 23.8136C18.8609 24.3412 18.8804 24.9258 19.1132 25.439C19.346 25.9522 19.7731 26.352 20.3005 26.5505C20.8279 26.749 21.4125 26.73 21.9259 26.4976L24.6205 25.275L26.4042 24.4649L30.4428 22.6321C30.9556 22.3987 31.355 21.9714 31.5531 21.4439C31.7513 20.9165 31.7321 20.3319 31.4998 19.8186Z"
            fill="white" />
        <path
            d="M66.8061 21.2985L25.782 24.5135C25.5401 24.5327 25.3069 24.6125 25.1039 24.7456C24.9009 24.8787 24.7347 25.0607 24.6205 25.2749C24.4899 25.5175 24.432 25.7927 24.454 26.0674L26.619 53.6925L38.8527 58.1218L40.5765 58.7457L43.2991 59.7314C43.4585 59.7889 43.6283 59.8118 43.7973 59.7985C43.9662 59.7853 44.1304 59.7362 44.279 59.6546L46.8148 58.2568L54.7511 53.8825L62.1477 49.8046L70.1445 45.3982L68.3599 22.6265C68.3297 22.2444 68.1491 21.89 67.8578 21.641C67.5664 21.392 67.1882 21.2688 66.8061 21.2985Z"
            fill="#D90429" />
        <path
            d="M59.8445 41.2882L35.7726 43.1747C35.2253 43.218 34.7159 43.4713 34.3513 43.8818C33.9866 44.2922 33.795 44.8279 33.8165 45.3765C33.8159 45.4043 33.8169 45.4321 33.8196 45.4598C33.8645 46.0215 34.1302 46.5425 34.5585 46.9086C34.9869 47.2747 35.5429 47.456 36.1047 47.4128L60.1767 45.5262C60.7387 45.4822 61.2601 45.2167 61.6264 44.7882C61.9926 44.3596 62.1736 43.8032 62.1296 43.2412C62.0856 42.6792 61.8201 42.1577 61.3915 41.7914C60.963 41.4252 60.4065 41.2442 59.8445 41.2882Z"
            fill="white" />
        <path
            d="M61.8734 49.5685C61.4657 49.2716 60.9651 49.1305 60.4623 49.1708L36.3903 51.0573C35.8284 51.1014 35.3069 51.3669 34.9406 51.7954C34.5744 52.2239 34.3934 52.7804 34.4374 53.3424C34.4814 53.9044 34.7469 54.4259 35.1755 54.7921C35.604 55.1584 36.1605 55.3394 36.7225 55.2954L54.751 53.8825L62.1477 49.8045C62.0631 49.7183 61.9713 49.6393 61.8734 49.5685Z"
            fill="white" />
        <path
            d="M40.5764 58.7458L43.2991 59.7315C43.4585 59.789 43.6283 59.8119 43.7973 59.7987C43.9662 59.7854 44.1304 59.7363 44.2789 59.6547L46.8148 58.257L40.5764 58.7458Z"
            fill="white" />
        <path
            d="M53.7526 32.6764C53.5714 32.2802 53.2729 31.9492 52.8975 31.7282C52.522 31.5071 52.0877 31.4068 51.6533 31.4406L42.3297 32.1713C41.9227 32.2036 41.5335 32.3523 41.2087 32.5998C40.884 32.8472 40.6372 33.1829 40.4981 33.5668C40.394 33.8511 40.3526 34.1546 40.3767 34.4564C40.4216 35.0181 40.6873 35.5391 41.1156 35.9052C41.544 36.2713 42.1 36.4526 42.6618 36.4093L51.9855 35.6786C52.3264 35.652 52.6558 35.5434 52.9458 35.3622C53.2357 35.1811 53.4777 34.9326 53.6512 34.6379C53.8246 34.3432 53.9244 34.0111 53.9421 33.6696C53.9597 33.3281 53.8947 32.9874 53.7526 32.6764Z"
            fill="white" />
        <path
            d="M53.9289 53.9469L45.9926 58.3213L44.1141 59.3571C44.0082 59.4152 43.8911 59.4501 43.7707 59.4595C43.6503 59.4689 43.5293 59.4527 43.4156 59.4119L41.3987 58.6813L40.5765 58.7457L43.2991 59.7314C43.4585 59.7889 43.6283 59.8118 43.7973 59.7985C43.9662 59.7853 44.1304 59.7362 44.279 59.6546L46.8148 58.2568L54.751 53.8825L53.9289 53.9469ZM53.9289 53.9469L45.9926 58.3213L44.1141 59.3571C44.0082 59.4152 43.8911 59.4501 43.7707 59.4595C43.6503 59.4689 43.5293 59.4527 43.4156 59.4119L41.3987 58.6813L40.5765 58.7457L43.2991 59.7314C43.4585 59.7889 43.6283 59.8118 43.7973 59.7985C43.9662 59.7853 44.1304 59.7362 44.279 59.6546L46.8148 58.2568L54.751 53.8825L53.9289 53.9469ZM53.9289 53.9469L45.9926 58.3213L44.1141 59.3571C44.0082 59.4152 43.8911 59.4501 43.7707 59.4595C43.6503 59.4689 43.5293 59.4527 43.4156 59.4119L41.3987 58.6813L40.5765 58.7457L43.2991 59.7314C43.4585 59.7889 43.6283 59.8118 43.7973 59.7985C43.9662 59.7853 44.1304 59.7362 44.279 59.6546L46.8148 58.2568L54.751 53.8825L53.9289 53.9469ZM80.6316 40.1213C80.5642 40.064 80.4911 40.0137 80.4135 39.9712C80.2385 39.8763 80.0424 39.8271 79.8433 39.8281C79.6442 39.8291 79.4486 39.8803 79.2745 39.9769L61.8734 49.5686L53.9289 53.9469L45.9926 58.3213L44.1141 59.3571C44.0081 59.4152 43.8911 59.4501 43.7707 59.4595C43.6503 59.4689 43.5293 59.4527 43.4156 59.4119L41.3986 58.6813L39.2973 57.9198L26.5934 53.3227L26.5899 53.3213L23.1264 52.0662L12.7852 48.3226L5.66529 45.7457C5.5928 45.7188 5.51754 45.7001 5.4409 45.6899C5.27159 45.6615 5.09805 45.6716 4.93319 45.7195C4.6694 45.7954 4.43984 45.9599 4.28321 46.1853C4.12658 46.4107 4.05246 46.6832 4.07334 46.9569L7.40969 89.5287C7.4347 89.8432 7.58347 90.1351 7.82337 90.3401C8.06326 90.5451 8.3747 90.6466 8.68934 90.6223L83.2785 84.7768C83.593 84.7517 83.8849 84.603 84.0899 84.3631C84.2949 84.1232 84.3964 83.8117 84.3721 83.4971L81.0358 40.9254C81.012 40.6146 80.8668 40.3258 80.6316 40.1213L80.6316 40.1213ZM84.0331 83.5237C84.0506 83.7484 83.9781 83.971 83.8317 84.1424C83.6852 84.3138 83.4766 84.42 83.2519 84.4377L8.66276 90.2833C8.43798 90.3008 8.21544 90.2283 8.04405 90.0819C7.87266 89.9354 7.76643 89.7268 7.74873 89.5021L4.41238 46.9303C4.40134 46.7887 4.42598 46.6465 4.48405 46.5168C4.54212 46.3871 4.63176 46.2741 4.74478 46.1879C4.82434 46.1277 4.91357 46.0815 5.00865 46.0513C5.03672 46.0429 5.06524 46.0361 5.09408 46.0309C5.12682 46.0236 5.16007 46.0187 5.19355 46.0163C5.31408 46.007 5.4352 46.0237 5.54874 46.0652L12.9812 48.7558L23.2609 52.4769L26.1503 53.5229L26.619 53.6925L38.8527 58.1218L40.5764 58.7457L43.2991 59.7314C43.4585 59.7889 43.6283 59.8118 43.7973 59.7985C43.9662 59.7853 44.1304 59.7362 44.279 59.6546L46.8148 58.2568L54.751 53.8825L62.1477 49.8046L79.4394 40.2744C79.5638 40.2059 79.7035 40.1696 79.8455 40.1689C79.9876 40.1682 80.1276 40.2031 80.2527 40.2704C80.267 40.2774 80.2807 40.2854 80.2938 40.2944C80.308 40.3021 80.3214 40.3114 80.3335 40.322C80.4372 40.3933 80.5236 40.4868 80.5865 40.5958C80.6493 40.7048 80.687 40.8265 80.6967 40.9519L84.0331 83.5237ZM53.9289 53.9469L45.9926 58.3213L44.1141 59.3571C44.0082 59.4152 43.8911 59.4501 43.7707 59.4595C43.6503 59.4689 43.5293 59.4527 43.4156 59.4119L41.3987 58.6813L40.5765 58.7457L43.2991 59.7314C43.4585 59.7889 43.6283 59.8118 43.7973 59.7985C43.9662 59.7853 44.1304 59.7362 44.279 59.6546L46.8148 58.2568L54.751 53.8825L53.9289 53.9469ZM53.9289 53.9469L45.9926 58.3213L44.1141 59.3571C44.0082 59.4152 43.8911 59.4501 43.7707 59.4595C43.6503 59.4689 43.5293 59.4527 43.4156 59.4119L41.3987 58.6813L40.5765 58.7457L43.2991 59.7314C43.4585 59.7889 43.6283 59.8118 43.7973 59.7985C43.9662 59.7853 44.1304 59.7362 44.279 59.6546L46.8148 58.2568L54.751 53.8825L53.9289 53.9469ZM26.1503 53.5229L26.619 53.6925L26.59 53.323L26.1503 53.5229ZM53.9289 53.9469L45.9926 58.3213L44.1141 59.3571C44.0082 59.4152 43.8911 59.4501 43.7707 59.4595C43.6503 59.4689 43.5293 59.4527 43.4156 59.4119L41.3987 58.6813L40.5765 58.7457L43.2991 59.7314C43.4585 59.7889 43.6283 59.8118 43.7973 59.7985C43.9662 59.7853 44.1304 59.7362 44.279 59.6546L46.8148 58.2568L54.751 53.8825L53.9289 53.9469Z"
            fill="#2B2B2B" />
    </g>
    <defs>
        <clipPath id="clip0_16_37">
            <rect width="90.4616" height="84" fill="white" transform="translate(0 7.06787) rotate(-4.48112)" />
        </clipPath>
    </defs>
</svg>