<svg width="106" height="133" viewBox="0 0 106 133" fill="none" xmlns="http://www.w3.org/2000/svg">
    <g clip-path="url(#clip0_9_452)">
        <path fill-rule="evenodd" clip-rule="evenodd"
            d="M-25.6869 -10.7666C-30.9679 -9.65546 -35.1383 -5.84146 -36.7753 -0.625563L-37.2532 0.896586V89.3842V177.872L-36.7799 179.379C-34.9572 185.183 -30.1608 189.105 -24.1047 189.744C-21.5657 190.011 112.641 190.011 115.18 189.744C120.823 189.149 125.553 185.427 127.562 180L128.124 178.481L128.226 90.9063C128.281 42.7405 128.262 2.63437 128.183 1.78197C127.599 -4.47558 122.585 -9.74679 116.149 -10.8696C113.091 -11.4029 -23.1317 -11.3039 -25.6869 -10.7666ZM117.442 -6.87297C120.451 -5.58625 122.332 -3.89108 123.639 -1.28719C124.86 1.14774 124.781 -4.52683 124.726 76.9355L124.675 151.488L45.4862 151.539L-33.7022 151.59V76.8112C-33.7022 22.8155 -33.6398 1.73377 -33.4769 0.957472C-32.8996 -1.80117 -30.4327 -4.9368 -27.7993 -6.25853C-25.1188 -7.60462 -31.253 -7.50466 45.9428 -7.46255L116.152 -7.4245L117.442 -6.87297ZM27.4773 11.3101C25.7302 12.5679 25.1448 13.3955 25.1443 14.6086C25.1438 15.3169 25.1138 15.3438 23.7026 15.8953L22.2608 16.458L21.7241 15.9461C20.636 14.908 16.6705 14.9496 15.3576 16.013C14.1487 16.9923 14.0665 21.7749 15.245 22.6004C15.6883 22.9109 15.6919 22.8779 15.0228 24.7436C14.623 25.8568 14.6195 25.8603 13.6435 25.9689C11.9638 26.1561 9.31625 28.9554 9.31625 30.5445C9.31625 32.2787 12.396 35.4281 13.8256 35.1546C14.3232 35.0597 14.4125 35.1541 14.9599 36.3621L15.5544 37.6732L16.6456 37.8117C20.1972 38.2623 21.7956 39.7951 22.3851 43.3138C22.6398 44.8349 22.7108 44.908 24.7527 45.7492C25.1529 45.9141 25.2331 46.0735 25.1803 46.5991C25.0925 47.4784 25.3944 48.0015 26.7057 49.239L27.8228 50.2934L27.7147 52.0804C27.5874 54.1916 27.7015 53.8689 26.9797 54.1677C26.2147 54.4849 25.9169 54.9527 25.3411 56.7402C24.883 58.1629 24.8597 58.1918 24.081 58.3166C19.9344 58.9798 20.0156 69.4293 24.1723 69.9884C25.0012 70.1001 25.0383 70.1366 25.3061 71.1184C27.0461 77.4972 33.056 85.7442 36.9637 87.1157C37.75 87.3917 37.0012 90.2016 35.4758 92.6964C35.3175 92.9551 34.4577 93.7507 33.5648 94.4636C32.672 95.1765 31.7817 95.901 31.5864 96.073C31.3911 96.245 31.1522 96.3861 31.0558 96.3861C30.9594 96.3861 30.623 96.5885 30.3085 96.8361C29.994 97.0832 29.4766 97.4257 29.159 97.5972C28.8409 97.7682 27.2825 98.6997 25.6957 99.6673C22.2015 101.797 16.672 104.956 14.5921 106.009C4.08352 111.332 2.05182 123.462 10.6043 129.816C14.1081 132.419 14.7681 132.512 29.8332 132.512H41.9859V117.087C41.9859 103.101 41.9555 101.663 41.6622 101.663C40.4534 101.663 39.489 99.8479 40.0211 98.5739C40.5538 97.2989 41.0428 97.1274 44.3093 97.0685L47.1938 97.0162L47.938 97.7393C49.2123 98.9768 48.9404 100.799 47.3703 101.545L46.653 101.885V117.198V132.512H58.7002C71.9522 132.512 73.018 132.436 75.4758 131.321C83.3358 127.757 85.6415 117.963 80.284 110.897C78.7301 108.848 77.8312 108.195 72.322 105.114C64.6588 100.828 58.8574 97.3369 56.2915 95.4672C55.6219 94.9791 55.0091 94.5752 54.929 94.5696C54.2106 94.5189 52.3651 91.7121 51.7244 89.6967C50.9939 87.3978 50.9416 87.5886 52.5873 86.5302C56.8937 83.7593 61.0256 77.9884 62.9279 72.088C63.5955 70.0169 63.5976 70.0133 64.2631 70.0077C66.6931 69.9874 68.2317 65.695 67.2628 61.641C66.8042 59.7241 65.4416 58.2309 64.15 58.2309C63.835 58.2309 63.6341 57.8995 63.1963 56.658C62.2319 53.9222 61.9194 53.7659 57.4142 53.7659H54.1609V52.6801C54.1609 51.1919 54.4663 50.441 55.3434 49.7697L56.0886 49.1994L61.0601 49.098C66.7509 48.9818 67.1106 48.8935 68.9647 47.1588C70.9143 45.3347 71.0883 44.7005 71.2059 38.9934C71.2902 34.9009 71.3591 34.0338 71.6118 33.8856C73.2402 32.9333 74.0585 31.8815 74.4876 30.1898C74.7717 29.0721 74.9837 28.6809 75.5945 28.1456C81.2549 23.1864 80.218 14.4356 73.5953 11.2726C64.6852 7.01715 55.7168 16.2698 60.1855 25.1069C60.7415 26.2064 62.4227 28.1522 63.1466 28.5337C63.3449 28.6388 63.555 28.9929 63.6123 29.3217C63.9694 31.3578 64.8876 32.8607 66.2086 33.5726L66.9447 33.9688L66.9442 38.4384C66.9427 45.0678 67.1324 44.8892 59.9441 45.0389L55.074 45.1404L53.8981 45.736C51.4971 46.9533 50.0889 49.2131 49.9372 52.0936L49.8484 53.77L40.8952 53.7172L31.9415 53.6644L31.8821 51.9677L31.8228 50.2715L32.9277 49.2279C34.1786 48.0472 34.5216 47.4855 34.4703 46.7006C34.4115 45.7964 34.4622 45.6483 34.8331 45.6412C35.0284 45.6381 35.6386 45.4144 36.1891 45.1449C37.2168 44.6411 37.4385 44.6568 37.8773 45.2647C38.5693 46.2226 43.0213 46.1343 44.1769 45.1399C45.4132 44.0764 45.5887 39.7652 44.4407 38.6652L43.8497 38.0984L44.3362 37.0527C44.6035 36.4778 44.8237 35.8477 44.8247 35.6523C44.8267 35.2581 44.8267 35.2581 45.8804 35.1967C47.9425 35.0764 50.8488 31.476 50.1396 29.9194C49.0915 27.6184 47.3175 26.0679 45.5562 25.9121C45.0672 25.869 44.9191 25.7213 44.6903 25.048C44.5386 24.6015 44.2834 23.9622 44.1236 23.6273C43.8466 23.0474 43.8603 22.9931 44.4143 22.4873C45.5461 21.4537 45.4121 17.0522 44.2175 16.0161C42.9726 14.9364 38.9903 14.9034 37.8794 15.9638L37.3234 16.494L36.3575 16.0628C35.8258 15.8258 35.1856 15.5752 34.9345 15.5062C34.5728 15.4067 34.478 15.2337 34.478 14.6771C34.478 13.3645 34.0168 12.7003 32.1865 11.3791C29.9392 9.756 29.643 9.75194 27.4773 11.3101ZM49.7008 16.833C48.1987 17.1866 47.593 18.9645 48.5619 20.1771L49.0484 20.786L52.113 20.8515L55.1775 20.9169L55.7853 20.3091C58.1569 17.937 54.3217 15.7462 49.7008 16.833ZM83.4484 16.7665C81.8231 17.0836 81.262 19.2446 82.5059 20.3973C83.107 20.9545 88.0658 21.1483 89.1448 20.6566C90.8483 19.8798 90.3872 17.383 88.4371 16.8233C87.768 16.6315 84.3408 16.5925 83.4484 16.7665ZM70.3486 18.4531C71.347 19.0614 71.4089 19.4536 71.4089 25.1409C71.4089 29.7337 71.3693 30.3979 71.0877 30.5059C70.6078 30.6901 67.4926 30.6485 67.1851 30.4537C66.7134 30.1543 66.8392 19.7215 67.3226 19.0609C68.0907 18.0121 69.2453 17.7798 70.3486 18.4531ZM27.7305 23.3397C27.7929 26.4783 27.8441 26.6935 28.6497 27.1846C30.7179 28.446 31.8385 27.1765 31.8431 23.567C31.8471 20.6028 31.8613 20.5775 33.2402 21.1016C35.7868 22.0692 37.6206 23.7567 38.8671 26.2789C39.7274 28.0198 39.7102 28.4292 38.7737 28.5023C36.2733 28.6976 36.3575 32.6588 38.862 32.6588C41.3969 32.6588 36.9079 38.6555 33.3868 39.9732C31.8471 40.5496 31.84 40.5384 31.84 37.5332C31.84 34.2915 31.5149 33.6735 29.8109 33.6735C28.2966 33.6735 27.7913 34.3869 27.7523 36.5813C27.6787 40.6845 27.7548 40.2751 27.074 40.2249C24.5761 40.0402 20.6837 36.2054 20.1667 33.4198L20.0257 32.6588H20.8698C24.044 32.6588 24.2616 28.7479 21.1042 28.4444L20.0313 28.3414L20.1561 27.7092C20.6578 25.1662 23.3495 22.2767 26.3009 21.1122C27.6909 20.5643 27.6747 20.5389 27.7305 23.3397ZM9.27008 40.6323C8.8541 40.991 8.48073 41.5126 8.44065 41.7917C8.34224 42.4756 7.13133 43.1027 6.67832 42.7044C5.96101 42.0743 3.81313 42.3538 3.4631 43.123C3.12727 43.8603 3.17191 45.249 3.54477 45.661C4.04141 46.2099 3.48745 47.3718 2.64839 47.5398C2.01022 47.6671 0.793728 49.0513 0.793728 49.65C0.793728 50.3096 2.01072 51.7176 2.69049 51.8454C3.55949 52.0083 4.1165 53.2128 3.52398 53.6461C3.08923 53.9643 3.19119 56.0476 3.66449 56.521C4.13678 56.9934 5.90927 57.1278 6.50686 56.7361C7.25004 56.249 8.2281 56.6595 8.39094 57.5271C8.51269 58.1761 9.96101 59.4486 10.5779 59.4486C11.1516 59.4486 12.5807 58.1923 12.7034 57.5799C12.8739 56.7275 14.0021 56.1744 14.553 56.6732C15.3439 57.3891 17.5288 56.9492 17.7292 56.0339C17.9453 55.0475 17.9077 53.9922 17.6455 53.6761C17.2396 53.187 17.7906 51.5573 18.2634 51.8495C18.7651 52.1595 20.6608 49.9828 20.3519 49.4516C19.8116 48.5216 18.9381 47.6585 18.3948 47.5175C17.5719 47.3044 17.2676 46.4941 17.6856 45.6305C17.9915 44.9988 17.8514 43.1438 17.4689 42.7613C17.1149 42.4071 15.0431 42.3244 14.548 42.6446C13.9138 43.0545 12.7658 42.6156 12.7658 41.9626C12.7658 41.3528 11.2186 39.963 10.5505 39.9727C10.2613 39.9767 9.68758 40.272 9.27008 40.6323ZM12.4574 46.2257C15.9486 48.2648 14.5967 53.5381 10.5779 53.5584C8.31485 53.57 6.69354 51.9642 6.68289 49.6992C6.66869 46.7463 9.95949 44.7669 12.4574 46.2257ZM36.5502 92.7329C36.501 93.0678 36.426 93.3418 36.3828 93.3418C36.3397 93.3418 36.3042 93.0678 36.3042 92.7329C36.3042 92.398 36.3798 92.124 36.4721 92.124C36.5645 92.124 36.5995 92.398 36.5502 92.7329ZM36.4787 95.1176L36.4498 96.4875L36.3093 95.3713C36.1804 94.3494 36.2241 93.7477 36.4275 93.7477C36.4711 93.7477 36.4944 94.3642 36.4787 95.1176ZM40.3052 95.9294C40.2586 96.2364 40.2205 95.9852 40.2205 95.3713C40.2205 94.7574 40.2586 94.5062 40.3052 94.8132C40.3514 95.1201 40.3514 95.6225 40.3052 95.9294ZM81.3528 165.003C82.722 165.768 82.8047 166.061 81.9063 166.959C81.2519 167.615 81.0966 167.685 80.7923 167.464C77.9697 165.423 74.7382 167.91 76.2033 170.997C76.9586 172.589 79.1928 173.089 80.5285 171.965C81.2148 171.387 81.3051 171.413 82.3131 172.475C83.5098 173.736 79.7102 175.365 77.2453 174.649C72.285 173.206 72.1064 166.187 76.9891 164.587C78.0645 164.235 80.3722 164.455 81.3528 165.003ZM6.9827 165.695V166.709L4.3955 166.766L1.80831 166.823V167.622V168.421L4.09113 168.479L6.37395 168.536V169.551V170.565L4.09113 170.623L1.80831 170.68V171.587V172.494H4.44623H7.08416V173.614V174.735L3.27946 174.68L-0.525234 174.625L-0.579514 169.597L-0.633797 164.569L3.17445 164.625L6.9827 164.68V165.695ZM11.734 165.745C12.9535 167.82 12.8683 167.807 14.0178 166.088L15.0273 164.578H16.2301C17.6779 164.578 17.7074 164.689 16.6583 166.202C16.2327 166.816 15.5493 167.806 15.14 168.402L14.3953 169.486L16.0155 171.877C17.9778 174.773 17.9722 174.726 16.3676 174.726L15.0994 174.725L14.0848 173.112C12.8521 171.15 13.0788 171.151 11.7888 173.102L10.7149 174.726H9.54198C7.92575 174.726 7.92373 174.759 9.73172 172.125C11.6828 169.283 11.6752 169.687 9.82354 167.014C7.99018 164.368 8.00286 164.578 9.6749 164.578H11.0476L11.734 165.745ZM25.8195 165.249C28.9556 167.642 27.0481 171.682 22.7823 171.682H21.7119L21.6526 173.153L21.5927 174.625L20.4259 174.685L19.2592 174.746V169.643V164.54L22.167 164.61C24.9901 164.678 25.0966 164.697 25.8195 165.249ZM36.2641 165.644L36.2028 166.709L33.6156 166.766L31.0284 166.823V167.622V168.421L33.3112 168.479L35.594 168.536L35.6554 169.601L35.7168 170.667H33.3726H31.0284V171.58V172.494H33.6622C36.5873 172.494 36.6456 172.525 36.4721 174.042L36.4057 174.625H32.5502H28.6948L28.64 169.859C28.6101 167.239 28.6304 164.978 28.6847 164.836C28.7598 164.64 29.6922 164.578 32.5543 164.578H36.3255L36.2641 165.644ZM45.3213 165.265C47.0842 166.611 47.107 169.192 45.369 170.58L44.6517 171.152L45.7551 172.754C47.0375 174.616 47.0203 174.726 45.4527 174.726H44.2768L43.1821 173.104C42.1442 171.566 42.0483 171.481 41.335 171.48L40.5827 171.479L40.5234 173.052L40.464 174.625H39.348H38.2319L38.1771 169.859C38.1472 167.239 38.1695 164.972 38.2274 164.822C38.4622 164.21 44.4275 164.582 45.3213 165.265ZM50.8671 169.601L50.8128 174.625H49.6967H48.5807L48.5264 169.601L48.4721 164.578H49.6967H50.9213L50.8671 169.601ZM60.8171 165.644L60.7557 166.709L58.1685 166.766L55.5813 166.823V167.622V168.421L57.8642 168.479L60.147 168.536V169.551V170.565L57.8642 170.623L55.5813 170.68V171.587V172.494H58.2193H60.8572V173.614V174.735L57.0525 174.68L53.2478 174.625L53.1935 169.601L53.1392 164.578H57.0089H60.8785L60.8171 165.644ZM66.9285 167.326C68.0815 168.838 69.0642 170.036 69.1113 169.989C69.1585 169.941 69.2153 168.728 69.2376 167.291L69.2782 164.68L70.445 164.619L71.6118 164.558V169.642V174.726H70.6408H69.6699L67.6478 172.069C65.1042 168.727 65.195 168.84 65.0702 168.84C65.0129 168.84 64.9825 170.05 65.0033 171.529C65.0499 174.881 65.1093 174.726 63.7777 174.726H62.6834V169.652V164.578H63.7574H64.8318L66.9285 167.326ZM91.9035 165.695V166.811H89.2656H86.6276V167.623V168.434H88.9612H91.2947V169.551V170.667H88.9612H86.6276V171.574V172.482L89.3163 172.538L92.0049 172.595V173.61V174.625H88.1495H84.2941L84.2393 169.859C84.2094 167.239 84.2297 164.978 84.2839 164.836C84.359 164.641 85.2894 164.578 88.1429 164.578H91.9035V165.695ZM21.6942 168.257V169.702L22.8447 169.607C25.5877 169.38 25.5354 166.811 22.7879 166.811H21.6942V168.257ZM40.6066 168.079L40.6669 169.348L41.8205 169.373C43.7487 169.415 44.7045 168.497 43.9425 167.334C43.6245 166.848 43.49 166.811 42.0731 166.811H40.5462L40.6066 168.079Z"
            fill="#303030" />
    </g>
    <g clip-path="url(#clip1_9_452)">
        <path fill-rule="evenodd" clip-rule="evenodd"
            d="M-10.6869 -19.7666C-15.9679 -18.6555 -20.1383 -14.8415 -21.7753 -9.62556L-22.2532 -8.10341V80.3842V168.872L-21.7799 170.379C-19.9572 176.183 -15.1608 180.105 -9.1047 180.744C-6.5657 181.011 127.641 181.011 130.18 180.744C135.823 180.149 140.553 176.427 142.562 171L143.124 169.481L143.226 81.9063C143.281 33.7405 143.262 -6.36563 143.183 -7.21803C142.599 -13.4756 137.585 -18.7468 131.149 -19.8696C128.091 -20.4029 -8.13171 -20.3039 -10.6869 -19.7666ZM132.442 -15.873C135.451 -14.5862 137.332 -12.8911 138.639 -10.2872C139.86 -7.85226 139.781 -13.5268 139.726 67.9355L139.675 142.488L60.4862 142.539L-18.7022 142.59V67.8112C-18.7022 13.8155 -18.6398 -7.26623 -18.4769 -8.04253C-17.8996 -10.8012 -15.4327 -13.9368 -12.7993 -15.2585C-10.1188 -16.6046 -16.253 -16.5047 60.9428 -16.4625L131.152 -16.4245L132.442 -15.873ZM42.4773 2.31012C40.7302 3.56792 40.1448 4.39546 40.1443 5.60861C40.1438 6.31692 40.1138 6.34381 38.7026 6.89533L37.2608 7.45802L36.7241 6.94607C35.636 5.90797 31.6705 5.94957 30.3576 7.01305C29.1487 7.9923 29.0665 12.7749 30.245 13.6004C30.6884 13.9109 30.6919 13.8779 30.0228 15.7436C29.623 16.8568 29.6195 16.8603 28.6435 16.9689C26.9638 17.1561 24.3162 19.9554 24.3162 21.5445C24.3162 23.2787 27.396 26.4281 28.8256 26.1546C29.3232 26.0597 29.4125 26.1541 29.9599 27.3621L30.5544 28.6732L31.6456 28.8117C35.1972 29.2623 36.7956 30.7951 37.3851 34.3138C37.6398 35.8349 37.7108 35.908 39.7527 36.7492C40.1529 36.9141 40.2331 37.0735 40.1803 37.5991C40.0925 38.4784 40.3944 39.0015 41.7057 40.239L42.8228 41.2934L42.7147 43.0804C42.5874 45.1916 42.7015 44.8689 41.9797 45.1677C41.2147 45.4849 40.9169 45.9527 40.3411 47.7402C39.883 49.1629 39.8597 49.1918 39.081 49.3166C34.9344 49.9798 35.0156 60.4293 39.1723 60.9884C40.0012 61.1001 40.0383 61.1366 40.3061 62.1184C42.0461 68.4972 48.056 76.7442 51.9637 78.1157C52.75 78.3917 52.0012 81.2016 50.4758 83.6964C50.3175 83.9551 49.4577 84.7507 48.5648 85.4636C47.672 86.1765 46.7817 86.901 46.5864 87.073C46.3911 87.245 46.1522 87.3861 46.0558 87.3861C45.9594 87.3861 45.623 87.5885 45.3085 87.8361C44.994 88.0832 44.4766 88.4257 44.159 88.5972C43.8409 88.7682 42.2825 89.6997 40.6957 90.6673C37.2015 92.7973 31.672 95.9558 29.5921 97.0091C19.0835 102.332 17.0518 114.462 25.6043 120.816C29.1081 123.419 29.7681 123.512 44.8332 123.512H56.9859V108.087C56.9859 94.1013 56.9555 92.6628 56.6622 92.6628C55.4534 92.6628 54.489 90.8479 55.0211 89.5739C55.5538 88.2989 56.0428 88.1274 59.3093 88.0685L62.1938 88.0162L62.938 88.7393C64.2123 89.9768 63.9404 91.7993 62.3703 92.5446L61.653 92.8851V108.198V123.512H73.7002C86.9522 123.512 88.018 123.436 90.4758 122.321C98.3358 118.757 100.641 108.963 95.284 101.897C93.7301 99.8479 92.8312 99.1949 87.322 96.1136C79.6588 91.8277 73.8574 88.3369 71.2915 86.4672C70.6219 85.9791 70.0091 85.5752 69.929 85.5696C69.2106 85.5189 67.3651 82.7121 66.7244 80.6967C65.9939 78.3978 65.9416 78.5886 67.5873 77.5302C71.8937 74.7593 76.0256 68.9884 77.9279 63.088C78.5955 61.0169 78.5976 61.0133 79.2631 61.0077C81.6931 60.9874 83.2317 56.695 82.2628 52.641C81.8042 50.7241 80.4416 49.2309 79.15 49.2309C78.835 49.2309 78.6341 48.8995 78.1963 47.658C77.2319 44.9222 76.9195 44.7659 72.4142 44.7659H69.1609V43.6801C69.1609 42.1919 69.4663 41.441 70.3434 40.7697L71.0886 40.1994L76.0601 40.098C81.7509 39.9818 82.1106 39.8935 83.9647 38.1588C85.9143 36.3347 86.0883 35.7005 86.206 29.9934C86.2902 25.9009 86.3591 25.0338 86.6118 24.8856C88.2402 23.9333 89.0585 22.8815 89.4876 21.1898C89.7717 20.0721 89.9838 19.6809 90.5945 19.1456C96.2549 14.1864 95.218 5.43559 88.5953 2.27257C79.6852 -1.98285 70.7168 7.26978 75.1855 16.1069C75.7415 17.2064 77.4227 19.1522 78.1466 19.5337C78.3449 19.6388 78.555 19.9929 78.6123 20.3217C78.9694 22.3578 79.8876 23.8607 81.2086 24.5726L81.9447 24.9688L81.9442 29.4384C81.9427 36.0678 82.1324 35.8892 74.9441 36.0389L70.074 36.1404L68.8981 36.736C66.4971 37.9533 65.0889 40.2131 64.9372 43.0936L64.8484 44.77L55.8952 44.7172L46.9415 44.6644L46.8821 42.9677L46.8228 41.2715L47.9277 40.2279C49.1787 39.0472 49.5216 38.4855 49.4703 37.7006C49.4115 36.7964 49.4622 36.6483 49.8331 36.6412C50.0284 36.6381 50.6386 36.4144 51.1891 36.1449C52.2168 35.6411 52.4385 35.6568 52.8773 36.2647C53.5693 37.2226 58.0213 37.1343 59.1769 36.1399C60.4132 35.0764 60.5887 30.7652 59.4407 29.6652L58.8497 29.0984L59.3362 28.0527C59.6035 27.4778 59.8237 26.8477 59.8247 26.6523C59.8267 26.2581 59.8267 26.2581 60.8804 26.1967C62.9425 26.0764 65.8488 22.476 65.1396 20.9194C64.0915 18.6184 62.3175 17.0679 60.5562 16.9121C60.0672 16.869 59.9191 16.7213 59.6903 16.048C59.5386 15.6015 59.2834 14.9622 59.1236 14.6273C58.8466 14.0474 58.8603 13.9931 59.4143 13.4873C60.5461 12.4537 60.4121 8.05217 59.2175 7.01609C57.9726 5.93638 53.9903 5.9034 52.8794 6.96383L52.3234 7.49405L51.3575 7.06277C50.8258 6.82582 50.1856 6.57518 49.9345 6.50617C49.5728 6.40672 49.478 6.23371 49.478 5.67711C49.478 4.36451 49.0168 3.70034 47.1865 2.37912C44.9392 0.756001 44.643 0.751944 42.4773 2.31012ZM64.7008 7.83298C63.1987 8.18662 62.593 9.9645 63.5619 11.1771L64.0484 11.786L67.113 11.8515L70.1775 11.9169L70.7853 11.3091C73.1569 8.93705 69.3217 6.74616 64.7008 7.83298ZM98.4485 7.76651C96.8231 8.08363 96.262 10.2446 97.5059 11.3973C98.107 11.9545 103.066 12.1483 104.145 11.6566C105.848 10.8798 105.387 8.38298 103.437 7.82334C102.768 7.63155 99.3408 7.59248 98.4485 7.76651ZM85.3486 9.45305C86.347 10.0614 86.4089 10.4536 86.4089 16.1409C86.4089 20.7337 86.3693 21.3979 86.0877 21.5059C85.6079 21.6901 82.4926 21.6485 82.1851 21.4537C81.7134 21.1543 81.8392 10.7215 82.3226 10.0609C83.0907 9.01214 84.2453 8.77975 85.3486 9.45305ZM42.7305 14.3397C42.7929 17.4783 42.8441 17.6935 43.6497 18.1846C45.7179 19.446 46.8385 18.1765 46.8431 14.567C46.8471 11.6028 46.8613 11.5775 48.2402 12.1016C50.7868 13.0692 52.6206 14.7567 53.8671 17.2789C54.7274 19.0198 54.7102 19.4292 53.7737 19.5023C51.2733 19.6976 51.3575 23.6588 53.862 23.6588C56.3969 23.6588 51.9079 29.6555 48.3868 30.9732C46.8471 31.5496 46.84 31.5384 46.84 28.5332C46.84 25.2915 46.5149 24.6735 44.8109 24.6735C43.2966 24.6735 42.7913 25.3869 42.7523 27.5813C42.6787 31.6845 42.7548 31.2751 42.074 31.2249C39.5761 31.0402 35.6837 27.2054 35.1667 24.4198L35.0257 23.6588H35.8698C39.044 23.6588 39.2616 19.7479 36.1042 19.4444L35.0313 19.3414L35.1561 18.7092C35.6578 16.1662 38.3495 13.2767 41.3009 12.1122C42.6909 11.5643 42.6747 11.5389 42.7305 14.3397ZM24.2701 31.6323C23.8541 31.991 23.4807 32.5126 23.4407 32.7917C23.3422 33.4756 22.1313 34.1027 21.6783 33.7044C20.961 33.0743 18.8131 33.3538 18.4631 34.123C18.1273 34.8603 18.1719 36.249 18.5448 36.661C19.0414 37.2099 18.4875 38.3718 17.6484 38.5398C17.0102 38.6671 15.7937 40.0513 15.7937 40.65C15.7937 41.3096 17.0107 42.7176 17.6905 42.8454C18.5595 43.0083 19.1165 44.2128 18.524 44.6461C18.0892 44.9643 18.1912 47.0476 18.6645 47.521C19.1368 47.9934 20.9093 48.1278 21.5069 47.7361C22.25 47.249 23.2281 47.6595 23.3909 48.5271C23.5127 49.1761 24.961 50.4486 25.5779 50.4486C26.1516 50.4486 27.5807 49.1923 27.7034 48.5799C27.8739 47.7275 29.0021 47.1744 29.553 47.6732C30.3439 48.3891 32.5288 47.9492 32.7292 47.0339C32.9453 46.0475 32.9078 44.9922 32.6455 44.6761C32.2396 44.187 32.7906 42.5573 33.2634 42.8495C33.7651 43.1595 35.6608 40.9828 35.3519 40.4516C34.8116 39.5216 33.9381 38.6585 33.3948 38.5175C32.5719 38.3044 32.2676 37.4941 32.6856 36.6305C32.9915 35.9988 32.8514 34.1438 32.4689 33.7613C32.1149 33.4071 30.0431 33.3244 29.548 33.6446C28.9138 34.0545 27.7658 33.6156 27.7658 32.9626C27.7658 32.3528 26.2186 30.963 25.5505 30.9727C25.2613 30.9767 24.6876 31.272 24.2701 31.6323ZM27.4574 37.2257C30.9486 39.2648 29.5967 44.5381 25.5779 44.5584C23.3149 44.57 21.6935 42.9642 21.6829 40.6992C21.6687 37.7463 24.9595 35.7669 27.4574 37.2257ZM51.5503 83.7329C51.501 84.0678 51.426 84.3418 51.3828 84.3418C51.3397 84.3418 51.3042 84.0678 51.3042 83.7329C51.3042 83.398 51.3798 83.124 51.4721 83.124C51.5645 83.124 51.5995 83.398 51.5503 83.7329ZM51.4787 86.1176L51.4498 87.4875L51.3093 86.3713C51.1804 85.3494 51.2241 84.7477 51.4275 84.7477C51.4711 84.7477 51.4944 85.3642 51.4787 86.1176ZM55.3052 86.9294C55.2586 87.2364 55.2205 86.9852 55.2205 86.3713C55.2205 85.7574 55.2586 85.5062 55.3052 85.8132C55.3514 86.1201 55.3514 86.6225 55.3052 86.9294ZM96.3528 156.003C97.722 156.768 97.8047 157.061 96.9063 157.959C96.2519 158.615 96.0966 158.685 95.7923 158.464C92.9697 156.423 89.7382 158.91 91.2033 161.997C91.9586 163.589 94.1928 164.089 95.5285 162.965C96.2148 162.387 96.3051 162.413 97.3131 163.475C98.5098 164.736 94.7102 166.365 92.2453 165.649C87.285 164.206 87.1064 157.187 91.9891 155.587C93.0645 155.235 95.3722 155.455 96.3528 156.003ZM21.9827 156.695V157.709L19.3955 157.766L16.8083 157.823V158.622V159.421L19.0911 159.479L21.374 159.536V160.551V161.565L19.0911 161.623L16.8083 161.68V162.587V163.494H19.4462H22.0842V164.614V165.735L18.2795 165.68L14.4748 165.625L14.4205 160.597L14.3662 155.569L18.1745 155.625L21.9827 155.68V156.695ZM26.734 156.745C27.9535 158.82 27.8683 158.807 29.0178 157.088L30.0273 155.578H31.2301C32.678 155.578 32.7074 155.689 31.6583 157.202C31.2327 157.816 30.5494 158.806 30.14 159.402L29.3953 160.486L31.0156 162.877C32.9778 165.773 32.9722 165.726 31.3676 165.726L30.0994 165.725L29.0848 164.112C27.8521 162.15 28.0788 162.151 26.7888 164.102L25.7149 165.726H24.542C22.9258 165.726 22.9237 165.759 24.7317 163.125C26.6828 160.283 26.6752 160.687 24.8235 158.014C22.9902 155.368 23.0029 155.578 24.6749 155.578H26.0476L26.734 156.745ZM40.8195 156.249C43.9556 158.642 42.0482 162.682 37.7823 162.682H36.7119L36.6526 164.153L36.5927 165.625L35.426 165.685L34.2592 165.746V160.643V155.54L37.167 155.61C39.9901 155.678 40.0966 155.697 40.8195 156.249ZM51.2641 156.644L51.2028 157.709L48.6156 157.766L46.0284 157.823V158.622V159.421L48.3112 159.479L50.594 159.536L50.6554 160.601L50.7168 161.667H48.3726H46.0284V162.58V163.494H48.6622C51.5873 163.494 51.6456 163.525 51.4721 165.042L51.4057 165.625H47.5503H43.6948L43.64 160.859C43.6101 158.239 43.6304 155.978 43.6847 155.836C43.7598 155.64 44.6922 155.578 47.5543 155.578H51.3255L51.2641 156.644ZM60.3213 156.265C62.0842 157.611 62.107 160.192 60.369 161.58L59.6517 162.152L60.7551 163.754C62.0375 165.616 62.0203 165.726 60.4527 165.726H59.2768L58.1821 164.104C57.1442 162.566 57.0483 162.481 56.335 162.48L55.5827 162.479L55.5234 164.052L55.464 165.625H54.348H53.2319L53.1771 160.859C53.1472 158.239 53.1695 155.972 53.2274 155.822C53.4622 155.21 59.4275 155.582 60.3213 156.265ZM65.8671 160.601L65.8128 165.625H64.6967H63.5807L63.5264 160.601L63.4721 155.578H64.6967H65.9213L65.8671 160.601ZM75.8171 156.644L75.7557 157.709L73.1685 157.766L70.5813 157.823V158.622V159.421L72.8642 159.479L75.147 159.536V160.551V161.565L72.8642 161.623L70.5813 161.68V162.587V163.494H73.2193H75.8572V164.614V165.735L72.0525 165.68L68.2478 165.625L68.1935 160.601L68.1392 155.578H72.0089H75.8785L75.8171 156.644ZM81.9285 158.326C83.0815 159.838 84.0642 161.036 84.1113 160.989C84.1585 160.941 84.2153 159.728 84.2377 158.291L84.2782 155.68L85.445 155.619L86.6118 155.558V160.642V165.726H85.6408H84.6699L82.6478 163.069C80.1042 159.727 80.195 159.84 80.0702 159.84C80.0129 159.84 79.9825 161.05 80.0033 162.529C80.05 165.881 80.1093 165.726 78.7777 165.726H77.6834V160.652V155.578H78.7574H79.8318L81.9285 158.326ZM106.903 156.695V157.811H104.266H101.628V158.623V159.434H103.961H106.295V160.551V161.667H103.961H101.628V162.574V163.482L104.316 163.538L107.005 163.595V164.61V165.625H103.15H99.2941L99.2393 160.859C99.2094 158.239 99.2297 155.978 99.2839 155.836C99.359 155.641 100.289 155.578 103.143 155.578H106.903V156.695ZM36.6942 159.257V160.702L37.8447 160.607C40.5877 160.38 40.5354 157.811 37.7879 157.811H36.6942V159.257ZM55.6066 159.079L55.6669 160.348L56.8205 160.373C58.7487 160.415 59.7045 159.497 58.9425 158.334C58.6245 157.848 58.49 157.811 57.0731 157.811H55.5462L55.6066 159.079Z"
            fill="#D90429" />
    </g>
    <defs>
        <clipPath id="clip0_9_452">
            <rect width="90.472" height="124" fill="white" transform="translate(0 9)" />
        </clipPath>
        <clipPath id="clip1_9_452">
            <rect width="90.472" height="124" fill="white" transform="translate(15)" />
        </clipPath>
    </defs>
</svg>