<?xml version="1.0" encoding="UTF-8" standalone="no"?>
<svg xmlns:dc="http://purl.org/dc/elements/1.1/" xmlns:cc="http://creativecommons.org/ns#"
  xmlns:rdf="http://www.w3.org/1999/02/22-rdf-syntax-ns#" xmlns:svg="http://www.w3.org/2000/svg"
  xmlns="http://www.w3.org/2000/svg" xmlns:sodipodi="http://sodipodi.sourceforge.net/DTD/sodipodi-0.dtd"
  xmlns:inkscape="http://www.inkscape.org/namespaces/inkscape" version="1.1" id="svg2" xml:space="preserve" width="64"
  height="128" viewBox="0 0 386.92001 546.1333" sodipodi:docname="HTML 5 Vector Logo.eps">
  <metadata id="metadata8">
    <rdf:RDF>
      <cc:Work rdf:about="">
        <dc:format>image/svg+xml</dc:format>
        <dc:type rdf:resource="http://purl.org/dc/dcmitype/StillImage" />
      </cc:Work>
    </rdf:RDF>
  </metadata>
  <defs id="defs6" />
  <sodipodi:namedview pagecolor="#ffffff" bordercolor="#666666" borderopacity="1" objecttolerance="10"
    gridtolerance="10" guidetolerance="10" inkscape:pageopacity="0" inkscape:pageshadow="2" inkscape:window-width="640"
    inkscape:window-height="480" id="namedview4" />
  <g id="g10" inkscape:groupmode="layer" inkscape:label="ink_ext_XXXXXX"
    transform="matrix(1.3333333,0,0,-1.3333333,0,546.13333)">
    <g id="g12" transform="scale(0.1)">
      <path d="M 1449.14,0 264.098,328.988 0,3291.06 H 2901.87 L 2637.5,329.461 1449.14,0"
        style="fill:#e53d20;fill-opacity:1;fill-rule:nonzero;stroke:none" id="path14" />
      <path d="M 2411.17,518.051 2637.1,3048.87 H 1450.93 V 251.84 l 960.24,266.211"
        style="fill:#f15123;fill-opacity:1;fill-rule:nonzero;stroke:none" id="path16" />
      <path
        d="m 1450.93,1587 v 363.28 h -480.7 l -33.203,372.03 h 513.903 v 363.28 h -1.25 -909.684 l 8.672,-97.46 L 637.969,1587 h 812.961"
        style="fill:#eeedee;fill-opacity:1;fill-rule:nonzero;stroke:none" id="path18" />
      <path
        d="m 1450.93,1006.8 -1.6,-0.43 -404.56,109.26 -25.86,289.74 H 822.301 654.219 l 50.898,-570.39 744.133,-206.621 1.68,0.473 V 1006.8"
        style="fill:#eeedee;fill-opacity:1;fill-rule:nonzero;stroke:none" id="path20" />
      <path
        d="m 270,4096.02 h 184.609 v -182.38 h 168.868 v 182.38 H 808.125 V 3543.68 H 623.477 v 184.96 H 454.609 V 3543.68 H 270 v 552.34 0"
        style="fill:#231f20;fill-opacity:1;fill-rule:nonzero;stroke:none" id="path22" />
      <path d="M 1050.9,3912.86 H 888.359 v 183.16 H 1398.12 V 3912.86 H 1235.51 V 3543.68 H 1050.9 v 369.18 0"
        style="fill:#231f20;fill-opacity:1;fill-rule:nonzero;stroke:none" id="path24" />
      <path
        d="m 1479.02,4096.02 h 192.5 l 118.44,-194.06 118.28,194.06 h 192.58 v -552.34 h -183.87 v 273.75 l -126.99,-196.37 h -3.21 l -127.11,196.37 v -273.75 h -180.62 v 552.34 0"
        style="fill:#231f20;fill-opacity:1;fill-rule:nonzero;stroke:none" id="path26" />
      <path d="m 2192.69,4096.02 h 184.69 v -369.77 h 259.61 v -182.57 h -444.3 v 552.34 0"
        style="fill:#231f20;fill-opacity:1;fill-rule:nonzero;stroke:none" id="path28" />
      <path
        d="M 2294.14,1950.28 H 1449.68 V 1587 h 447.35 l -42.19,-471.14 -405.16,-109.37 V 628.559 l 744.73,206.421 5.47,61.352 85.39,956.408 8.87,97.54"
        style="fill:#ffffff;fill-opacity:1;fill-rule:nonzero;stroke:none" id="path30" />
      <path d="m 2359.72,2685.59 h -910.04 v -363.28 h 876.33 v 0 h 1.17 l 7.27,81.64 16.56,184.18 8.71,97.46"
        style="fill:#ffffff;fill-opacity:1;fill-rule:nonzero;stroke:none" id="path32" />
    </g>
  </g>
</svg>