<svg width="24" height="24" viewBox="0 0 24 27" fill="none" xmlns="http://www.w3.org/2000/svg">
    <path
        d="M18.7953 9.02268L18.7859 9.0187C18.7804 9.01658 18.7751 9.01472 18.7703 9.00985C18.7546 8.99293 18.7476 8.96963 18.7514 8.94679L19.2748 5.74215L21.7293 8.20089L19.1766 9.28855C19.1696 9.29143 19.1619 9.29284 19.1542 9.29253H19.1441C19.1407 9.29041 19.1374 9.28776 19.1306 9.281C19.0356 9.17507 18.922 9.08751 18.7954 9.02265L18.7953 9.02268ZM22.3556 8.82739L24.9801 11.4557C25.5252 12.0022 25.7981 12.2748 25.8976 12.5908C25.9125 12.6376 25.9247 12.6843 25.9342 12.7325L19.662 10.0724C19.6587 10.0709 19.6553 10.0696 19.6519 10.0684C19.6268 10.0582 19.5977 10.0467 19.5977 10.0209C19.5977 9.99514 19.6275 9.98293 19.6526 9.97277L19.6607 9.9694L22.3556 8.82739ZM25.8272 13.576C25.6917 13.831 25.4277 14.0955 24.9808 14.5437L22.0218 17.5062L18.1947 16.7081L18.1744 16.7041C18.1406 16.6987 18.1047 16.6926 18.1047 16.6621C18.0753 16.3425 17.9147 16.0495 17.6612 15.8531C17.6456 15.8376 17.6497 15.8131 17.6545 15.7908C17.6545 15.7874 17.6545 15.784 17.6558 15.7812L18.3756 11.356L18.3782 11.3411C18.3822 11.3072 18.3884 11.2679 18.4188 11.2679C18.7304 11.2291 19.0134 11.0666 19.2043 10.8169C19.2104 10.8102 19.2144 10.8027 19.2226 10.7986C19.2442 10.7885 19.27 10.7986 19.2923 10.8082L25.8265 13.5761L25.8272 13.576ZM21.3413 18.1877L16.4755 23.0604L17.3084 17.9341L17.3097 17.9274C17.3104 17.9207 17.3118 17.9138 17.3137 17.9077C17.3204 17.8914 17.3381 17.8847 17.355 17.8779L17.3632 17.8745C17.5455 17.7966 17.7068 17.6764 17.8337 17.5239C17.85 17.5049 17.8696 17.4866 17.8947 17.4832C17.9012 17.4821 17.9078 17.4821 17.9143 17.4832L21.3405 18.1885L21.3413 18.1877ZM15.4456 24.0918L14.8972 24.6411L8.83363 15.8653C8.83144 15.8621 8.82918 15.8589 8.82691 15.8557C8.81748 15.8428 8.80728 15.83 8.8093 15.815C8.8093 15.8042 8.8168 15.7947 8.8242 15.7866L8.83092 15.7777C8.84921 15.7506 8.86479 15.7235 8.8817 15.6943L8.89524 15.6706L8.89735 15.6685C8.90689 15.6522 8.91564 15.6366 8.93188 15.6278C8.9461 15.6211 8.96575 15.6238 8.98132 15.6271L15.699 17.0145C15.7178 17.0173 15.7355 17.0251 15.7504 17.0368C15.7593 17.0457 15.7613 17.0552 15.7633 17.066C15.8583 17.4259 16.1158 17.7207 16.4594 17.8628C16.4783 17.8723 16.4702 17.8933 16.4615 17.9156C16.4571 17.9255 16.4536 17.9357 16.4513 17.9462C16.3667 18.4615 15.6408 22.8948 15.4458 24.0917L15.4456 24.0918ZM14.3 25.2385C13.8957 25.6392 13.6574 25.8515 13.3879 25.9369C13.1222 26.021 12.837 26.021 12.5713 25.9369C12.2558 25.8365 11.9829 25.5639 11.4378 25.0174L5.34852 18.9194L6.93907 16.4491C6.94657 16.4369 6.95397 16.426 6.96615 16.4172C6.98306 16.405 7.00745 16.4105 7.02776 16.4172C7.39284 16.5275 7.78481 16.5076 8.13688 16.3609C8.15516 16.3542 8.17344 16.3494 8.18766 16.3623C8.19484 16.3687 8.20113 16.3761 8.20661 16.384L14.3 25.2391L14.3 25.2385ZM4.76147 18.3315L3.36458 16.9326L6.12314 15.7541C6.13018 15.7509 6.13779 15.7494 6.14549 15.7493C6.16851 15.7493 6.18206 15.7723 6.19425 15.7934C6.22197 15.8361 6.25132 15.8777 6.28227 15.9181L6.2911 15.929C6.29924 15.9405 6.29374 15.952 6.28563 15.9629L4.76212 18.3314L4.76147 18.3315ZM2.74638 16.3135L0.979107 14.5437C0.678468 14.2426 0.460437 14.0243 0.308764 13.8364L5.68234 14.9526C5.68906 14.9538 5.69586 14.955 5.70266 14.9559C5.73584 14.9614 5.77239 14.9675 5.77239 14.9987C5.77239 15.0326 5.73244 15.0481 5.69859 15.061L5.68302 15.0678L2.74638 16.3135ZM0 12.9264C0.00614941 12.8124 0.0266021 12.6996 0.060936 12.5908C0.161149 12.2748 0.433349 12.0022 0.979103 11.4557L3.24066 9.19084C4.28195 10.7043 5.32607 12.2157 6.37299 13.7252C6.39128 13.7496 6.41158 13.7768 6.39061 13.7971C6.29174 13.9063 6.19289 14.0256 6.12314 14.1551C6.11556 14.1718 6.10393 14.1862 6.08928 14.1972C6.08045 14.2026 6.071 14.2005 6.06085 14.1985H6.05951L0 12.9258V12.9264ZM3.84601 8.58463L6.88557 5.53934C7.17199 5.66479 8.21272 6.10487 9.1424 6.49816C9.84659 6.79652 10.4885 7.06775 10.6903 7.1559C10.7106 7.16405 10.7289 7.17217 10.7377 7.19252C10.7431 7.20472 10.7403 7.22032 10.7377 7.23321C10.6399 7.67974 10.773 8.14558 11.0918 8.47276C11.1121 8.4931 11.0918 8.52225 11.0742 8.54735L11.0648 8.56159L7.97713 13.3509C7.96899 13.3645 7.96155 13.376 7.94801 13.3848C7.93176 13.395 7.90872 13.3903 7.88977 13.3855C7.76968 13.354 7.64623 13.3372 7.5221 13.3353C7.41105 13.3353 7.29053 13.3557 7.16864 13.3781H7.16795C7.15441 13.3802 7.14222 13.3828 7.13139 13.3747C7.11942 13.3649 7.10913 13.3532 7.10092 13.3401L3.84537 8.58468L3.84601 8.58463ZM7.50107 4.92432L11.4378 0.981917C11.9829 0.436056 12.2558 0.162787 12.5713 0.0631072C12.837 -0.0210357 13.1222 -0.0210357 13.3879 0.0631072C13.7034 0.162787 13.9763 0.436056 14.5214 0.981917L15.3746 1.83631L12.5747 6.17878C12.5678 6.19142 12.5583 6.20249 12.5469 6.21132C12.53 6.22285 12.5063 6.21804 12.486 6.21132C12.0378 6.07513 11.5514 6.16899 11.1859 6.46222C11.1676 6.4812 11.1406 6.47036 11.1175 6.4601C10.7519 6.30075 7.90802 5.09715 7.50107 4.92424L7.50107 4.92432ZM15.9691 2.43167L18.5543 5.0206L17.9313 8.88435V8.89452C17.9308 8.90335 17.9289 8.912 17.9259 8.92029C17.9191 8.93385 17.9056 8.93656 17.892 8.94063C17.7588 8.98104 17.6334 9.04362 17.5209 9.12575C17.5161 9.12929 17.5116 9.1331 17.5074 9.13728C17.4999 9.14542 17.4925 9.15286 17.4803 9.15423C17.4704 9.15452 17.4605 9.15297 17.4512 9.14946L13.5118 7.47323L13.5043 7.46986C13.4792 7.45969 13.4494 7.44747 13.4494 7.42172C13.4262 7.20187 13.3546 6.98993 13.2395 6.80127C13.2205 6.77007 13.1995 6.73752 13.2158 6.70566L15.9691 2.43167ZM13.3066 8.26729L16.9996 9.83367C17.0199 9.84321 17.0423 9.85198 17.0511 9.873C17.0547 9.88565 17.0547 9.899 17.0511 9.91165C17.0402 9.9659 17.0308 10.0276 17.0308 10.09V10.1937C17.0308 10.2195 17.0044 10.2304 16.98 10.2405L16.9725 10.2432C16.3875 10.4934 8.7591 13.7509 8.74759 13.7509C8.73608 13.7509 8.7239 13.7509 8.71239 13.7394C8.69208 13.7191 8.71239 13.6906 8.73067 13.6648C8.73396 13.6604 8.737 13.6558 8.7401 13.6513L11.7749 8.94533L11.7804 8.93719C11.798 8.90872 11.8183 8.87684 11.8508 8.87684L11.8813 8.88161C11.9504 8.89114 12.0113 8.89991 12.0729 8.89991C12.5333 8.89991 12.9599 8.67546 13.2172 8.29166C13.2234 8.28141 13.2311 8.27224 13.2403 8.26453C13.2585 8.25097 13.2856 8.25781 13.3066 8.26717L13.3066 8.26729ZM9.07739 14.4955L17.3924 10.9444C17.3924 10.9444 17.4045 10.9444 17.4161 10.9559C17.4614 11.0013 17.5 11.0318 17.5373 11.0603L17.5555 11.0719C17.5725 11.0814 17.5894 11.0922 17.5907 11.1098C17.5907 11.1166 17.5907 11.1207 17.5893 11.1268L16.877 15.5086L16.8744 15.5262C16.8696 15.5601 16.8649 15.5988 16.833 15.5988C16.4475 15.6249 16.0996 15.8398 15.9034 16.1731L15.9 16.1786C15.8906 16.1942 15.8817 16.2091 15.8661 16.2172C15.8519 16.224 15.8336 16.2212 15.8187 16.2179L9.18777 14.8482C9.18105 14.8468 9.08485 14.4963 9.0774 14.4956L9.07739 14.4955Z"
        fill="url(#paint0_radial_121_120)" />
    <defs>
        <radialGradient id="paint0_radial_121_120" cx="0" cy="0" r="1" gradientUnits="userSpaceOnUse"
            gradientTransform="translate(12.9671 -13) scale(26 26.066)">
            <stop stop-color="#20C6B7" />
            <stop offset="1" stop-color="#4D9ABF" />
        </radialGradient>
    </defs>
</svg>