<svg width="521" height="428" viewBox="0 0 521 428" fill="none" xmlns="http://www.w3.org/2000/svg">
    <g clip-path="url(#clip0_16_5)">
        <path
            d="M128.534 389.693L129.593 412.019L129.593 412.019C129.772 415.793 128.444 419.483 125.903 422.277C123.361 425.072 119.813 426.742 116.04 426.922L115.578 426.944L113.843 390.39L128.534 389.693Z"
            fill="#2F2E41" />
        <path
            d="M445.948 351.964C435.315 372.715 421.828 392.783 404.763 410.947C404.384 411.357 404.001 411.757 403.615 412.163L363.184 393.023C363.432 392.612 363.703 392.151 363.994 391.646C381.362 361.931 486.202 180.664 482.889 139.609C483.275 142.995 495.702 254.973 445.948 351.964Z"
            fill="#E6E6E6" />
        <path
            d="M412.563 414.64C411.997 414.961 411.417 415.276 410.833 415.58L380.503 401.222C380.927 400.921 381.421 400.565 381.988 400.165C391.281 393.493 418.911 373.477 445.948 351.964C475.003 328.846 503.377 304.007 507.591 292.15C506.735 294.869 480.141 377.515 412.563 414.64Z"
            fill="#E6E6E6" />
        <path
            d="M50.4532 426.052C76.3047 426.052 97.2614 405.095 97.2614 379.244C97.2614 353.393 76.3047 332.436 50.4532 332.436C24.6018 332.436 3.64504 353.393 3.64504 379.244C3.64504 405.095 24.6018 426.052 50.4532 426.052Z"
            fill="#D90429" />
        <path
            d="M69.203 359.601H31.7034C30.0464 359.602 28.4578 360.262 27.2861 361.433C26.1144 362.605 25.4553 364.194 25.4535 365.851V392.636C25.4553 394.293 26.1144 395.882 27.2861 397.053C28.4578 398.225 30.0464 398.884 31.7034 398.886H69.203C70.8601 398.884 72.4487 398.225 73.6204 397.053C74.7921 395.882 75.4512 394.293 75.453 392.636V365.851C75.4511 364.194 74.7921 362.605 73.6204 361.433C72.4487 360.261 70.86 359.602 69.203 359.601ZM69.203 363.172C69.4269 363.173 69.6498 363.202 69.8664 363.259L50.4575 378.741L31.1622 363.227C31.3403 363.19 31.5216 363.172 31.7034 363.172H69.203ZM69.203 395.315H31.7034C30.9933 395.314 30.3124 395.031 29.8103 394.529C29.3081 394.027 29.0257 393.346 29.0249 392.636V366.091L49.3343 382.421C49.6506 382.675 50.044 382.814 50.4498 382.815C50.8556 382.815 51.2496 382.678 51.5668 382.425L71.8816 366.219V392.636C71.8808 393.346 71.5983 394.027 71.0962 394.529C70.594 395.031 69.9132 395.314 69.203 395.315Z"
            fill="white" />
        <path
            d="M231.097 311.664L241.57 311.751C242.63 311.759 243.679 311.537 244.644 311.098C245.609 310.66 246.466 310.017 247.157 309.213C247.848 308.409 248.355 307.464 248.643 306.444C248.931 305.424 248.993 304.354 248.825 303.308C248.644 302.181 248.201 301.113 247.532 300.19C246.863 299.266 245.986 298.512 244.972 297.989C243.959 297.466 242.837 297.188 241.696 297.178C240.556 297.167 239.429 297.425 238.406 297.93L228.529 302.803L194.747 310.337L180.274 295.54L171.961 309.232L191.491 324.321L231.097 311.664Z"
            fill="#FFB8B8" />
        <path
            d="M229.134 419.873L216.794 422.246C208.366 395.677 199.234 370.516 199.234 351.056C187.306 364.331 172.515 371.926 155.097 374.311L156.995 344.886L171.233 337.293L193.024 327.235C194.932 326.355 196.99 325.846 199.088 325.735C203.168 325.521 207.183 326.823 210.36 329.391C213.537 331.959 215.652 335.611 216.297 339.645L229.134 419.873Z"
            fill="#2F2E41" />
        <path
            d="M170.047 370.752L165.128 374.49C163.014 376.097 160.515 377.123 157.881 377.466C155.248 377.81 152.57 377.458 150.114 376.447C136.027 365.888 126.019 369.003 116.949 384.94C106.07 372.662 103.386 354.928 113.095 336.581L166.962 337.767L177.877 334.445L170.047 370.752Z"
            fill="#2F2E41" />
        <path
            d="M152.107 425.739C149.02 426.689 145.698 426.522 142.722 425.268C139.746 424.014 137.306 421.753 135.83 418.881C130.989 414.617 126.904 408.513 123.362 401.089C120.82 395.643 118.637 390.037 116.828 384.306C114.376 376.735 118.475 368.464 126.104 366.199C126.331 366.131 126.561 366.068 126.793 366.008C136.978 363.393 147.436 369.267 150.918 379.189L161.04 408.039C161.638 409.744 161.895 411.549 161.795 413.353C161.695 415.156 161.241 416.922 160.459 418.55C159.677 420.178 158.582 421.636 157.236 422.841C155.89 424.046 154.32 424.973 152.616 425.572C152.447 425.631 152.278 425.686 152.107 425.739Z"
            fill="#2F2E41" />
        <path opacity="0.2" d="M121.638 397.804C121.638 397.804 133.503 411.093 135.876 418.686L121.638 397.804Z"
            fill="black" />
        <path
            d="M75.6209 335.089L71.65 344.781C71.2482 345.762 71.0651 346.818 71.1136 347.877C71.1621 348.935 71.4409 349.971 71.9306 350.911C72.4203 351.851 73.1091 352.672 73.949 353.319C74.789 353.965 75.7597 354.42 76.7937 354.653C77.9065 354.903 79.0625 354.889 80.1687 354.611C81.2749 354.333 82.3004 353.799 83.1626 353.052C84.0249 352.306 84.6998 351.367 85.1332 350.312C85.5665 349.257 85.746 348.115 85.6574 346.978L84.8018 335.997L90.3578 301.834L109.472 293.895L99.8487 281.09L78.5846 293.616L75.6209 335.089Z"
            fill="#FFB8B8" />
        <path
            d="M170.521 336.581C156.885 359.486 129.701 368.355 106.417 350.419C110.513 336.962 123.737 299.769 115.194 298.345C97.0556 305.952 97.0293 288.093 93.6366 279.155L134.926 263.968L157.233 270.138L161.805 271.76C164.781 272.816 167.362 274.758 169.201 277.324C171.04 279.891 172.049 282.959 172.092 286.117C162.722 299.653 155.786 314.093 170.521 336.581Z"
            fill="#D90429" />
        <path d="M175.742 318.072L159.368 304.546L164.826 272.985L187.132 296.715L175.742 318.072Z" fill="#D90429" />
        <path
            d="M447.43 101.258H445.09V37.1633C445.09 27.325 441.181 17.8896 434.225 10.9329C427.268 3.97613 417.833 0.0678711 407.994 0.0678711H272.2C262.361 0.0678711 252.926 3.97613 245.969 10.9329C239.013 17.8896 235.104 27.325 235.104 37.1633V388.794C235.104 398.632 239.013 408.068 245.969 415.024C252.926 421.981 262.361 425.889 272.2 425.889H407.994C417.832 425.889 427.267 421.981 434.224 415.024C441.181 408.068 445.089 398.632 445.089 388.794V146.882H447.43L447.43 101.258Z"
            fill="#3F3D56" />
        <path
            d="M409.491 9.71804H391.766C392.581 11.7167 392.893 13.8852 392.672 16.0326C392.452 18.18 391.708 20.2403 390.504 22.032C389.3 23.8237 387.673 25.2917 385.768 26.3068C383.863 27.3218 381.738 27.8527 379.579 27.8527H301.784C299.626 27.8525 297.501 27.3215 295.596 26.3065C293.691 25.2915 292.065 23.8237 290.861 22.0323C289.657 20.2408 288.912 18.1808 288.692 16.0337C288.472 13.8866 288.783 11.7183 289.598 9.71979H273.04C265.693 9.71979 258.646 12.6385 253.451 17.8339C248.255 23.0293 245.337 30.0758 245.337 37.4232V388.537C245.337 395.884 248.255 402.93 253.451 408.126C258.646 413.321 265.693 416.24 273.04 416.24H409.486C416.833 416.24 423.88 413.321 429.075 408.126C434.271 402.93 437.189 395.884 437.189 388.537V388.536V37.4214C437.189 30.074 434.271 23.0276 429.075 17.8322C423.88 12.6368 416.833 9.71802 409.486 9.71802H409.491L409.491 9.71804Z"
            fill="white" />
        <path
            d="M341.5 396.619C349.902 396.619 356.712 389.808 356.712 381.406C356.712 373.004 349.902 366.193 341.5 366.193C333.098 366.193 326.287 373.004 326.287 381.406C326.287 389.808 333.098 396.619 341.5 396.619Z"
            fill="#E6E6E6" />
        <path
            d="M279.785 240.719C278.347 240.719 277.177 242.055 277.177 243.696C277.177 245.337 278.347 246.673 279.785 246.673H402.74C404.178 246.673 405.349 245.337 405.349 243.696C405.349 242.055 404.178 240.719 402.74 240.719H279.785Z"
            fill="#E6E6E6" />
        <path
            d="M279.785 310.931C278.347 310.931 277.177 312.267 277.177 313.908C277.177 315.549 278.347 316.885 279.785 316.885H402.74C404.178 316.885 405.349 315.549 405.349 313.908C405.349 312.267 404.178 310.931 402.74 310.931H279.785Z"
            fill="#E6E6E6" />
        <path
            d="M279.785 258.581C278.347 258.581 277.177 259.917 277.177 261.558C277.177 263.199 278.347 264.535 279.785 264.535H332.693C334.131 264.535 335.302 263.199 335.302 261.558C335.302 259.917 334.131 258.581 332.693 258.581H279.785Z"
            fill="#E6E6E6" />
        <path
            d="M279.785 275.606C278.347 275.606 277.177 276.942 277.177 278.583C277.177 280.225 278.347 281.56 279.785 281.56H402.74C404.178 281.56 405.349 280.225 405.349 278.583C405.349 276.942 404.178 275.606 402.74 275.606H279.785Z"
            fill="#E6E6E6" />
        <path
            d="M279.785 293.468C278.347 293.468 277.177 294.803 277.177 296.445C277.177 298.086 278.347 299.422 279.785 299.422H332.693C334.131 299.422 335.302 298.086 335.302 296.445C335.302 294.803 334.131 293.468 332.693 293.468H279.785Z"
            fill="#E6E6E6" />
        <path
            d="M302.997 105.168H379.536C380.382 105.169 381.192 105.505 381.79 106.103C382.388 106.701 382.724 107.512 382.725 108.357V188.07C382.724 188.915 382.388 189.726 381.79 190.324C381.192 190.921 380.382 191.258 379.536 191.259H302.997C302.152 191.258 301.341 190.921 300.743 190.324C300.145 189.726 299.809 188.915 299.808 188.07V108.357C299.809 107.512 300.145 106.701 300.743 106.103C301.341 105.505 302.152 105.169 302.997 105.168Z"
            fill="#D90429" />
        <path
            d="M363.227 174.82C363.512 174.821 363.794 174.765 364.057 174.657C364.32 174.549 364.559 174.389 364.761 174.188C364.962 173.987 365.122 173.748 365.231 173.486C365.341 173.223 365.397 172.941 365.397 172.656C365.397 172.372 365.341 172.09 365.232 171.827C365.123 171.564 364.964 171.325 364.762 171.124C364.561 170.923 364.322 170.763 364.059 170.654C363.796 170.546 363.514 170.49 363.229 170.49H319.306C319.021 170.49 318.739 170.545 318.476 170.654C318.213 170.762 317.974 170.921 317.773 171.122C317.571 171.323 317.411 171.562 317.302 171.825C317.193 172.088 317.137 172.37 317.136 172.654C317.136 172.939 317.192 173.221 317.301 173.484C317.41 173.747 317.57 173.986 317.771 174.187C317.972 174.388 318.211 174.547 318.474 174.656C318.737 174.765 319.019 174.821 319.304 174.82H363.227Z"
            fill="white" />
        <path
            d="M363.228 162.064C363.802 162.064 364.352 161.836 364.759 161.43C365.165 161.024 365.393 160.473 365.393 159.899C365.393 159.325 365.165 158.774 364.759 158.368C364.352 157.962 363.802 157.734 363.228 157.734H319.306C318.732 157.734 318.181 157.961 317.775 158.367C317.369 158.773 317.14 159.324 317.14 159.898C317.14 160.472 317.367 161.023 317.773 161.429C318.179 161.836 318.73 162.064 319.304 162.064H363.228Z"
            fill="white" />
        <path
            d="M341.267 121.606C343.962 121.606 346.597 122.405 348.838 123.903C351.08 125.401 352.826 127.529 353.858 130.019C354.889 132.51 355.159 135.25 354.633 137.893C354.108 140.537 352.81 142.965 350.904 144.871C348.998 146.777 346.569 148.075 343.925 148.601C341.282 149.127 338.541 148.857 336.051 147.826C333.561 146.794 331.432 145.047 329.935 142.806C328.437 140.565 327.638 137.93 327.638 135.235C327.642 131.621 329.079 128.157 331.634 125.602C334.189 123.047 337.653 121.61 341.267 121.606Z"
            fill="white" />
        <path
            d="M167.377 259.836H126.917C126.085 259.835 125.287 259.504 124.698 258.915C124.11 258.327 123.779 257.529 123.778 256.697V239.257C123.778 233.059 126.24 227.115 130.623 222.733C135.005 218.35 140.949 215.888 147.147 215.888C153.345 215.888 159.289 218.35 163.671 222.733C168.054 227.115 170.516 233.059 170.516 239.257V256.697C170.515 257.529 170.184 258.327 169.595 258.915C169.007 259.504 168.209 259.835 167.377 259.836Z"
            fill="#2F2E41" />
        <path
            d="M166.648 249.87C171.186 241.567 168.135 231.157 159.832 226.618C151.529 222.079 141.119 225.131 136.58 233.434C132.041 241.736 135.093 252.147 143.396 256.685C151.699 261.224 162.109 258.173 166.648 249.87Z"
            fill="#FFB6B6" />
        <path
            d="M176.044 241.001H151.304L151.05 237.449L149.782 241.001H145.973L145.47 233.961L142.956 241.001H135.585V240.652C135.59 235.751 137.539 231.053 141.005 227.587C144.471 224.121 149.169 222.172 154.07 222.167H157.558C162.46 222.172 167.158 224.121 170.624 227.587C174.089 231.053 176.039 235.751 176.044 240.652V241.001Z"
            fill="#2F2E41" />
        <path
            d="M151.102 263.091C150.915 263.091 150.73 263.075 150.546 263.042L132.43 259.846V229.906H152.372L151.879 230.481C145.01 238.493 150.185 251.483 153.881 258.513C154.153 259.028 154.275 259.61 154.231 260.191C154.188 260.771 153.981 261.328 153.635 261.797C153.345 262.198 152.965 262.524 152.524 262.749C152.084 262.974 151.596 263.091 151.102 263.091Z"
            fill="#2F2E41" />
        <path
            d="M211.417 410.912L233.767 410.911H233.768C237.546 410.911 241.169 412.412 243.84 415.083C246.511 417.754 248.012 421.377 248.012 425.155V425.618L211.417 425.619L211.417 410.912Z"
            fill="#2F2E41" />
        <path
            d="M520.156 427.068H0.585102C0.429923 427.068 0.2811 427.006 0.171372 426.896C0.0616441 426.787 0 426.638 0 426.483C0 426.327 0.0616441 426.179 0.171372 426.069C0.2811 425.959 0.429923 425.897 0.585102 425.897H520.156C520.311 425.897 520.46 425.959 520.57 426.069C520.679 426.179 520.741 426.327 520.741 426.483C520.741 426.638 520.679 426.787 520.57 426.896C520.46 427.006 520.311 427.068 520.156 427.068Z"
            fill="#CACACA" />
    </g>
    <defs>
        <clipPath id="clip0_16_5">
            <rect width="520.741" height="427" fill="white" transform="translate(0 0.0678711)" />
        </clipPath>
    </defs>
</svg>