<svg width="140" height="121" viewBox="0 0 140 121" fill="none" xmlns="http://www.w3.org/2000/svg">
    <g clip-path="url(#clip0_8_401)">
        <path fill-rule="evenodd" clip-rule="evenodd"
            d="M36.0538 36.2755C35.5939 36.4524 35.108 36.8086 34.428 37.4664C33.8949 37.9829 33.4303 38.405 33.3959 38.405C33.3409 38.4047 30.4684 41.0851 28.8714 42.6275C28.5496 42.938 28.3192 43.2453 28.3592 43.31C28.3993 43.3748 28.3755 43.3929 28.3064 43.3501C28.2085 43.2897 24.9021 46.4939 24.8881 46.6627C24.8862 46.6849 24.0145 47.6038 22.9511 48.7044C21.8874 49.805 21.0157 50.7617 21.0136 50.8305C21.0086 51.01 20.2263 51.5327 20.1447 51.4111C19.8361 50.9502 16.6869 50.8427 16.9712 51.3026C17.0231 51.3867 16.9749 51.4058 16.8405 51.3539C16.4868 51.2185 15.0114 52.3303 15.0114 52.7324C15.0114 52.8212 14.9551 52.894 14.8863 52.894C14.8175 52.894 14.7613 52.9738 14.7613 53.0713C14.7613 53.1686 14.719 53.2671 14.6675 53.2902C14.5174 53.3568 13.8636 54.2698 13.9658 54.2698C14.0168 54.2698 13.9687 54.3401 13.8586 54.4261C13.6085 54.6215 12.1349 56.7373 12.1349 56.9008C12.1349 56.9671 12.0927 57.0215 12.0411 57.0221C11.9151 57.0231 11.3135 57.9185 11.3532 58.0461C11.3704 58.1014 11.3373 58.1468 11.2791 58.1468C11.1503 58.1468 9.50854 60.4611 9.50854 60.6427C9.50854 60.7143 9.4582 60.7731 9.39661 60.7731C9.33501 60.7731 9.16617 61.0123 9.02141 61.3046C8.87665 61.597 8.75815 61.7805 8.75815 61.7127C8.75815 61.5845 7.94586 62.7416 7.88145 62.9617C7.86144 63.0305 7.77889 63.1431 7.69791 63.2119C7.52032 63.3626 6.63205 64.6213 6.63205 64.7217C6.63205 64.7611 6.55795 64.8671 6.46728 64.9578C6.37661 65.0484 6.02486 65.5359 5.68562 66.0405C5.34639 66.5452 4.96525 67.072 4.83862 67.2111C4.43904 67.6501 3.75275 69.1243 3.84092 69.3544C3.89376 69.492 3.87469 69.5386 3.78745 69.4848C3.5639 69.3466 3.33597 70.6016 3.32503 72.0289C3.31658 73.1336 3.27094 73.425 3.03738 73.8646C2.19757 75.4429 2.05499 77.7228 2.69595 79.3211C2.92388 79.8895 3.09241 80.1516 3.20246 80.109C3.31252 80.0668 3.34222 80.1125 3.29126 80.245C3.24874 80.3554 3.29845 80.5061 3.40225 80.5827C3.50512 80.6587 3.65801 80.8491 3.74149 81.0057C3.82497 81.1624 3.94816 81.2568 4.01507 81.2152C4.08198 81.174 4.12138 81.2059 4.10262 81.2859C4.08354 81.3662 4.17578 81.4972 4.30741 81.5767C4.43904 81.6564 4.63727 81.8058 4.74795 81.909C4.85863 82.0122 5.085 82.1854 5.25102 82.2942L5.55305 82.4918L5.26947 82.9508C5.11345 83.2031 5.03247 83.4107 5.08969 83.4117C5.14691 83.4126 5.12502 83.4573 5.0406 83.5108C4.9565 83.5646 4.86207 83.7465 4.83112 83.9154C4.80017 84.0845 4.7639 84.2509 4.75045 84.2852C4.73732 84.3196 4.73326 84.39 4.74139 84.4416C4.74951 84.4932 4.70762 84.5354 4.64884 84.5354C4.23112 84.5354 4.21611 87.975 4.63133 88.4755C4.69886 88.5565 4.73138 88.6459 4.70386 88.6741C4.60037 88.7794 5.35389 90.0992 5.49865 90.0664C5.58213 90.0476 5.61527 90.0882 5.57275 90.157C5.34482 90.5257 7.68979 92.2472 8.28791 92.1502C8.37451 92.1365 8.54773 92.1693 8.67279 92.2237C8.87446 92.3116 10.0066 92.2634 10.5091 92.1456C10.6613 92.1102 10.692 92.2378 10.6723 92.8209C10.6588 93.2164 10.6932 93.54 10.7489 93.54C10.8042 93.54 10.8223 93.6823 10.7892 93.8561C10.6888 94.3805 11.3339 96.3555 11.6737 96.5657C11.7553 96.6163 11.8222 96.7151 11.8222 96.7855C11.8222 97.9254 15.5095 99.4603 16.8248 98.8678C16.9624 98.8056 17.1444 98.7405 17.2294 98.7227C17.4767 98.6708 18.2631 98.1568 18.2631 98.0467C18.2631 97.6743 19.3649 97.9761 19.3887 98.355C19.3987 98.5188 20.3032 99.187 21.0145 99.5559C22.1326 100.136 24.2605 99.9343 24.9397 99.1836C25.0691 99.0407 25.2101 98.9453 25.2526 98.9716C25.2951 98.9982 25.8063 98.6308 26.3885 98.1558C27.6436 97.1313 27.5698 97.1472 27.7696 97.8604C27.9609 98.5435 28.6397 99.7054 29.1684 100.254L29.5523 100.652L29.2272 101.207C29.0487 101.512 28.938 101.797 28.9814 101.84C29.0249 101.884 28.9961 101.919 28.9176 101.919C28.8004 101.919 28.3667 102.567 28.3317 102.795C28.3264 102.829 28.2414 102.998 28.1426 103.17C27.8599 103.663 27.9056 106.454 28.2073 107.11C28.3339 107.385 28.4552 107.708 28.4768 107.827C28.5381 108.164 29.2112 109.189 29.3078 109.092C29.3551 109.045 29.3938 109.094 29.3938 109.2C29.3938 109.463 30.3693 110.329 30.5438 110.221C30.6285 110.169 30.6479 110.192 30.5938 110.28C30.5188 110.401 30.7573 110.562 31.2698 110.737C31.3042 110.748 31.4449 110.81 31.5825 110.872C31.958 111.044 33.8246 111.014 34.0425 110.833C34.2485 110.662 34.5215 110.836 34.5215 111.138C34.5215 111.356 35.0455 112.476 35.1721 112.529C35.2272 112.552 35.2737 112.636 35.2759 112.716C35.2803 112.878 35.8375 113.55 35.9669 113.55C36.0119 113.55 36.1576 113.689 36.2905 113.857C36.6448 114.308 37.9939 114.928 38.8009 115.011C39.4193 115.075 39.5619 115.149 40.1037 115.681C40.4383 116.009 40.7485 116.256 40.7929 116.228C40.8373 116.2 40.9057 116.262 40.9454 116.365C40.9848 116.468 41.1055 116.552 41.2137 116.552C41.3216 116.552 41.5776 116.676 41.7824 116.827C42.0913 117.056 42.3371 117.105 43.2319 117.122L44.3094 117.141L44.8037 117.66C45.0754 117.946 45.358 118.142 45.4318 118.097C45.5069 118.05 45.5297 118.072 45.484 118.146C45.1435 118.697 48.3183 119.516 49.4042 119.157C49.9732 118.969 50.4235 118.922 50.339 119.058C50.2312 119.233 51.3652 120.343 51.5406 120.235C51.6297 120.18 51.6619 120.192 51.6175 120.264C51.2692 120.828 54.8298 121.423 55.3623 120.891C55.4101 120.843 55.548 120.804 55.6693 120.804C55.7906 120.804 55.9782 120.716 56.0861 120.607C56.1943 120.5 56.2827 120.446 56.2827 120.489C56.2827 120.667 57.4111 119.762 58.2506 118.909C58.7481 118.404 59.491 117.685 59.9015 117.312C60.312 116.939 60.6134 116.573 60.5712 116.499C60.5293 116.425 60.5406 116.406 60.5962 116.456C60.6519 116.507 60.8198 116.422 60.9692 116.268C61.4517 115.772 62.077 115.234 61.9854 115.394C61.9297 115.492 62.016 115.605 62.2161 115.696C62.3922 115.776 62.536 115.882 62.536 115.932C62.536 116.005 63.1776 116.329 63.4114 116.373C63.4458 116.38 63.6147 116.443 63.7866 116.513C64.4879 116.799 66.534 116.599 66.327 116.264C66.2817 116.191 66.3123 116.177 66.3999 116.231C66.4827 116.282 66.7307 116.241 66.9508 116.139C67.1709 116.037 67.6149 115.835 67.9375 115.69C68.2599 115.545 68.5594 115.37 68.6026 115.3C68.646 115.229 68.7298 115.202 68.7892 115.239C68.8486 115.275 68.928 115.255 68.9659 115.194C69.0037 115.133 69.3451 114.931 69.7247 114.745C70.1046 114.559 70.4151 114.365 70.4151 114.312C70.4151 114.26 70.4873 114.217 70.5751 114.217C70.7934 114.217 71.4156 113.8 71.4156 113.654C71.4156 113.589 71.4719 113.57 71.5406 113.613C71.6094 113.655 71.6657 113.631 71.6657 113.558C71.6657 113.485 71.7501 113.425 71.8533 113.425C71.9565 113.425 72.0409 113.369 72.0409 113.3C72.0409 113.231 72.1172 113.175 72.2104 113.175C72.3032 113.175 72.5283 113.037 72.7106 112.868C72.8926 112.7 73.0414 112.596 73.0414 112.638C73.0414 112.68 73.1468 112.618 73.2759 112.502C73.5048 112.294 74.3052 112.271 74.5003 112.466C74.5463 112.512 74.6623 112.55 74.7582 112.55C74.8542 112.55 75.2529 112.704 75.6443 112.892C76.4335 113.271 78.5443 113.481 78.5443 113.18C78.5443 113.1 78.6005 113.07 78.6693 113.113C78.7381 113.155 78.8647 113.145 78.9507 113.091C79.0367 113.036 79.1352 112.984 79.1696 112.976C79.204 112.967 79.415 112.917 79.6386 112.864C79.8621 112.812 80.045 112.719 80.045 112.659C80.045 112.599 80.131 112.55 80.2361 112.55C80.6482 112.55 83.414 110.962 83.5259 110.661C83.549 110.599 83.6475 110.549 83.7448 110.549C83.8423 110.549 83.922 110.496 83.922 110.432C83.922 110.368 84.0305 110.281 84.1631 110.239C84.2954 110.197 84.6434 109.926 84.936 109.636C85.2287 109.347 85.42 109.195 85.3612 109.298C85.2931 109.419 85.3512 109.401 85.5235 109.25C85.6711 109.121 85.7574 108.959 85.7152 108.89C85.6726 108.822 85.7142 108.791 85.8074 108.822C85.9006 108.853 86.1476 108.722 86.3564 108.532C86.5653 108.34 87.0452 107.914 87.4229 107.584C87.8006 107.255 88.4309 106.683 88.8236 106.314L89.5381 105.645L90.4289 105.734C91.3315 105.825 92.4265 105.64 92.4265 105.397C92.4265 105.334 92.478 105.313 92.5409 105.352C92.604 105.391 92.8213 105.283 93.024 105.113C93.2266 104.942 93.427 104.837 93.4692 104.88C93.5114 104.922 93.5817 104.864 93.6249 104.751C93.6683 104.638 93.784 104.546 93.8819 104.546C93.9801 104.546 94.0926 104.461 94.132 104.358C94.1717 104.255 94.2765 104.171 94.365 104.171C94.4538 104.171 94.7067 104.002 94.9277 103.795C95.1488 103.589 95.383 103.42 95.4486 103.42C95.5143 103.42 95.5277 103.355 95.4787 103.276C95.4286 103.195 95.4439 103.165 95.5134 103.208C95.6888 103.316 96.2 102.931 96.0987 102.767C96.0518 102.691 96.0721 102.667 96.1443 102.711C96.3854 102.86 97.3474 101.979 97.2121 101.733C97.1736 101.664 97.2127 101.672 97.2987 101.751C97.4684 101.907 98.3045 101.511 98.3045 101.274C98.3045 101.208 98.3573 101.187 98.4217 101.227C98.4865 101.267 98.595 101.2 98.6631 101.078C98.7313 100.956 98.8332 100.865 98.8898 100.875C98.9461 100.885 98.9814 100.853 98.968 100.802C98.9545 100.752 99.0145 100.71 99.1012 100.71C99.3003 100.71 100.055 100.158 100.055 100.012C100.055 99.9527 100.112 99.9386 100.181 99.9815C100.251 100.024 100.341 99.9712 100.382 99.8636C100.424 99.756 100.508 99.6682 100.57 99.6682C100.696 99.6682 102.332 98.36 102.782 97.8995C103.787 96.8721 104.782 95.4379 104.828 94.9501C104.833 94.8967 104.889 94.7188 104.951 94.5546C105.014 94.3902 105.036 94.2266 105 94.1907C104.964 94.155 105.001 94.0465 105.081 93.9496C105.226 93.7755 105.266 92.5167 105.169 91.1985L105.121 90.5457L105.968 89.6912C106.435 89.2209 106.786 88.7973 106.75 88.7494C106.714 88.7016 106.717 88.6866 106.758 88.7157C106.869 88.7954 108.06 87.6357 108.06 87.4484C108.06 87.3596 108.11 87.2868 108.171 87.2868C108.452 87.2868 109.048 85.2282 109.056 84.233C109.061 83.5099 108.822 82.0341 108.699 82.0341C108.653 82.0341 108.603 81.8915 108.588 81.7174C108.557 81.3406 108.272 80.7525 107.845 80.1819L107.535 79.7682L107.747 78.7002C107.864 78.1127 107.924 77.4545 107.882 77.2379C107.839 77.0212 107.784 76.6188 107.76 76.3437C107.591 74.4674 106.642 72.8884 105.174 72.0449C104.637 71.7363 103.661 70.7783 103.883 70.7783C104.088 70.7783 102.641 69.5223 102.353 69.4498C102.19 69.4088 102.056 69.3307 102.056 69.2756C102.056 69.1471 100.932 68.7619 100.798 68.8445C100.742 68.8789 100.755 68.7232 100.825 68.4984C101.086 67.6679 101.188 66.9413 101.167 66.0721C101.148 65.2783 101.182 65.1319 101.483 64.738C101.668 64.4947 101.829 64.1808 101.839 64.0404C101.85 63.9 101.885 63.8119 101.917 63.8438C102.005 63.9313 102.653 62.4884 103.099 61.2108C103.538 59.9574 103.699 57.0478 103.338 56.9271C103.251 56.8983 103.209 56.8292 103.243 56.7736C103.33 56.6325 102.987 55.8465 102.753 55.6527C102.646 55.5642 102.587 55.4472 102.621 55.3922C102.77 55.1518 101.152 53.5475 100.666 53.454C100.513 53.4243 100.349 53.3399 100.304 53.2661C99.9394 52.6767 96.6787 52.6827 96.6787 53.2727C96.6787 53.3302 96.5539 53.4171 96.4016 53.4653C96.0067 53.5907 93.9829 55.1452 94.0241 55.2918C94.0429 55.3591 94.0066 55.3819 93.9432 55.3428C93.8378 55.2778 92.8098 56.051 92.0857 56.7398C91.9228 56.8946 91.758 57.0212 91.7189 57.0212C91.6801 57.0212 91.3797 57.246 91.0517 57.5208C90.391 58.0736 90.3791 58.0698 89.9924 57.1775C89.8657 56.8852 89.7144 56.646 89.656 56.646C89.5978 56.646 89.55 56.5728 89.55 56.4831C89.55 56.3937 89.2967 56.0791 88.9872 55.784C88.6776 55.4891 88.4244 55.1683 88.4244 55.0714C88.4244 54.9745 88.3681 54.8951 88.2993 54.8951C88.2305 54.8951 88.1858 54.8529 88.1999 54.8013C88.335 54.3079 86.9292 52.507 86.0894 52.098C85.8262 51.9695 85.461 51.7866 85.2784 51.6916C84.8879 51.4877 82.8527 51.4511 82.7327 51.6456C82.6895 51.7153 82.6148 51.7481 82.5667 51.7184C82.5185 51.6887 82.2562 51.7675 81.9835 51.8935C81.3398 52.1912 81.296 52.1493 81.2941 51.2294C81.2926 50.4118 81.0058 49.108 80.8132 49.0439C80.6904 49.003 80.7457 48.7306 81.1706 47.2883C81.3191 46.7843 81.4098 46.2919 81.372 46.194C81.3345 46.0959 81.3638 46.0155 81.4373 46.0155C81.6324 46.0155 81.5311 42.8595 81.3279 42.615C81.2425 42.5121 81.2013 42.3999 81.236 42.3652C81.3307 42.2701 80.9352 41.3881 80.7976 41.3881C80.732 41.3881 80.706 41.3159 80.7398 41.2274C80.8239 41.0085 80.3183 40.4842 80.1313 40.5965C80.0225 40.6618 80.0238 40.6346 80.136 40.4961C80.3408 40.2431 78.9398 38.9071 78.6546 39.0835C78.594 39.121 78.5443 39.0988 78.5443 39.0344C78.5443 38.8712 77.8383 38.5945 77.6763 38.6945C77.6035 38.7396 77.5437 38.717 77.5437 38.6442C77.5437 38.2903 74.8896 38.6079 74.5422 39.0031C74.5078 39.0425 74.278 39.1767 74.0316 39.3017C73.7849 39.4268 73.4472 39.6519 73.2812 39.802C73.1149 39.9521 72.7256 40.2391 72.4161 40.4401C71.6929 40.9094 69.8551 42.2745 68.0804 43.6615L66.6834 44.7527L66.3414 44.2899C65.8083 43.5683 65.258 43.0174 65.1426 43.0887C65.0845 43.1246 65.0373 43.0984 65.0373 43.0305C65.0373 42.7988 63.725 42.2657 62.9581 42.1857C62.1717 42.1041 60.9101 42.3136 60.9101 42.5262C60.9101 42.5881 60.8679 42.6275 60.8163 42.6141C60.6456 42.569 60.1597 42.7785 60.1597 42.8973C60.1597 42.9614 60.2864 43.0146 60.4411 43.0155C60.7838 43.0171 62.3781 43.4101 63.1951 43.6937C63.5234 43.8078 63.8554 43.8616 63.9336 43.8134C64.013 43.7643 64.0411 43.7809 63.9977 43.8516C63.9548 43.9207 64.129 44.0404 64.3847 44.118C64.6405 44.1952 65.2912 44.4847 65.8311 44.7617C66.3708 45.0384 66.8773 45.2276 66.9567 45.1823C67.0358 45.1369 67.0602 45.145 67.0102 45.2004C66.9605 45.2554 67.2953 45.5528 67.7549 45.8607C68.2145 46.169 68.8371 46.6255 69.1381 46.875C69.4396 47.1245 69.7419 47.3134 69.8097 47.2943C69.8779 47.2755 69.9057 47.3049 69.872 47.3596C69.8379 47.4143 70.0633 47.7114 70.3728 48.0193C70.6824 48.3273 71.1354 48.8169 71.3802 49.1077C71.6247 49.3982 71.8727 49.6064 71.9315 49.5701C71.9899 49.5339 72.0046 49.5911 71.964 49.6974C71.9202 49.8112 71.9724 49.9219 72.0903 49.9672C72.2007 50.0097 72.291 50.0917 72.291 50.1498C72.291 50.2077 72.4536 50.4972 72.6522 50.793C73.1649 51.5571 74.0154 53.2145 74.1851 53.7811C74.2645 54.0456 74.3859 54.2266 74.455 54.1838C74.5244 54.1409 74.5447 54.1644 74.5009 54.2354C74.4568 54.3067 74.5256 54.6953 74.6541 55.0989C75.9323 59.1241 75.548 64.4381 73.7174 68.05C73.547 68.3864 73.4466 68.7244 73.4938 68.8013C73.5467 68.8864 73.5235 68.9061 73.4351 68.851C73.351 68.7991 73.2543 68.857 73.2052 68.9883C73.1249 69.2037 72.9889 69.4254 72.4161 70.273C72.1628 70.6476 72.0578 70.999 72.3026 70.6532C72.4205 70.4866 72.4289 70.4866 72.3786 70.6532C72.3476 70.7564 72.2626 70.828 72.19 70.8124C71.9837 70.768 71.2596 71.751 71.3643 71.9329C71.4146 72.0202 71.4109 72.0511 71.3562 72.0017C71.3018 71.9523 70.744 72.396 70.1168 72.9875C68.3502 74.6547 66.7866 75.6824 63.2238 77.5193C62.2608 78.0158 61.4163 78.4888 61.3476 78.5707C61.2785 78.653 61.1378 78.7383 61.0349 78.7608C60.483 78.8812 57.998 80.6246 58.1131 80.811C58.1668 80.8976 58.1387 80.911 58.0358 80.8475C57.7945 80.6981 56.385 82.2714 55.8694 83.2653C55.003 84.9359 54.9477 86.7659 55.6502 90.5188C56.2402 93.672 56.1489 95.83 55.3591 97.3883C55.0609 97.9773 53.7983 99.293 53.5313 99.293C53.4544 99.293 53.4188 99.3371 53.4522 99.3912C53.4857 99.4453 53.4184 99.494 53.3034 99.5C53.188 99.5056 52.7525 99.6025 52.3354 99.7154C50.2906 100.269 48.3665 98.8096 47.652 96.1633C47.4857 95.5464 47.4985 95.6164 47.229 93.8527C46.9598 92.0912 46.0005 84.1299 45.8258 82.2095C45.6094 79.8305 46.3914 78.3397 48.6166 76.8899C49.0499 76.6075 49.3657 76.3199 49.321 76.248C49.2744 76.1723 49.3007 76.1548 49.3839 76.2061C49.6274 76.3565 53.3115 73.7595 54.7435 72.4276C54.963 72.2234 55.3154 71.9332 55.5264 71.7829C55.7378 71.6325 55.8728 71.4489 55.8272 71.3748C55.7812 71.3004 55.8012 71.2754 55.8716 71.3189C56.0336 71.4189 56.4403 70.9809 56.3143 70.8417C56.2624 70.7848 56.2859 70.7758 56.3665 70.822C56.5426 70.9227 56.9409 70.5572 56.8374 70.39C56.7974 70.3249 56.8118 70.2874 56.8699 70.3062C57.1379 70.3934 59.2233 68.232 59.0861 68.0093C59.0345 67.9262 59.0495 67.8965 59.1208 67.9406C59.304 68.0537 59.9575 67.3299 59.8415 67.1423C59.7855 67.0517 59.7974 67.0195 59.8705 67.0645C60.0003 67.1448 60.272 66.8169 61.0408 65.6534C63.1522 62.4571 63.6322 58.6542 62.2812 55.8231C61.6996 54.6046 59.9431 52.9541 59.5113 53.2208C59.4269 53.2733 59.4053 53.2517 59.4575 53.1673C59.7664 52.6677 56.647 52.1237 55.0196 52.3932C52.9601 52.734 49.4889 54.6994 49.8666 55.3103C49.9088 55.3785 49.8829 55.3966 49.8091 55.3513C49.4992 55.1596 47.1793 58.4597 47.3362 58.8687C47.3716 58.9603 47.3519 59.0053 47.2928 58.9687C47.1802 58.899 46.4755 60.4689 46.3382 61.0958C46.2941 61.2965 46.2107 61.5735 46.1528 61.7111C46.095 61.8487 45.8489 62.6744 45.6063 63.5461C44.6098 67.1245 42.444 68.9298 40.0828 68.1507C38.6739 67.6857 37.4543 65.1691 38.2512 64.3722C38.4132 64.2102 38.4545 63.9754 38.3047 64.0683C37.7904 64.3872 38.6264 58.0752 39.3931 55.8496C39.5319 55.446 39.6097 55.0574 39.5657 54.9861C39.5209 54.9142 39.5456 54.8935 39.6207 54.9401C39.697 54.9873 39.7936 54.9001 39.842 54.7406C40.2379 53.4331 42.1079 50.4193 43.4608 48.9076C43.6687 48.6753 43.82 48.4221 43.7972 48.3448C43.7741 48.2673 43.7963 48.2451 43.8466 48.2951C43.8966 48.3455 44.2997 48.0478 44.7418 47.6341C48.2386 44.3631 52.3041 42.7732 57.1895 42.766C58.8925 42.7638 59.1439 42.6413 58.5874 42.085C58.4795 41.9769 58.4245 41.8884 58.4657 41.8884C58.5946 41.8884 58.1919 41.2011 57.7598 40.6843C57.5321 40.4117 57.3177 40.1887 57.2833 40.1887C57.2489 40.1887 57.0669 40.0349 56.879 39.847C56.435 39.403 55.5067 39.0072 54.7194 38.9259C53.2011 38.7696 49.6984 39.6932 49.987 40.174C50.0573 40.2913 50.0358 40.2913 49.8901 40.1734C49.7369 40.0496 49.4992 40.1456 48.5844 40.7006C47.5623 41.3203 47.0436 41.541 47.1984 41.2906C47.2315 41.2371 47.0661 40.9704 46.8307 40.6981C46.5952 40.4257 46.4026 40.2528 46.4026 40.3144C46.4026 40.3757 46.2854 40.2907 46.1419 40.1253C45.9987 39.9602 45.8398 39.8248 45.7892 39.8248C45.7385 39.8248 45.6025 39.7304 45.4868 39.6147C44.9994 39.1273 43.241 38.8627 42.4112 39.152C42.0338 39.2836 41.3832 38.9453 41.5989 38.7295C41.6311 38.6973 41.4945 38.4963 41.295 38.2831C41.0958 38.0695 40.9536 37.8744 40.9789 37.8488C41.0317 37.7959 40.3142 37.1359 40.2041 37.1359C40.1641 37.1359 40.0465 37.0509 39.9427 36.9471C39.8389 36.8433 39.6935 36.7957 39.6197 36.8414C39.546 36.887 39.5206 36.8677 39.5635 36.7982C39.7182 36.5478 38.1399 36.0103 37.2729 36.0182C36.9634 36.021 36.415 36.137 36.0538 36.2755ZM52.6559 102.49C53.8255 102.626 55.1825 103.141 55.9407 103.736C57.907 105.28 58.0815 108.645 56.2956 110.583C56.0154 110.887 55.8272 111.182 55.8778 111.238C55.9285 111.294 55.8963 111.297 55.8059 111.244C55.7134 111.191 55.5496 111.23 55.4307 111.335C54.4734 112.173 52.3479 112.531 50.7899 112.116C50.4172 112.017 50.0567 111.97 49.9889 112.012C49.9213 112.054 49.9023 112.029 49.947 111.957C49.9917 111.885 49.9476 111.795 49.8494 111.757C49.7509 111.719 49.6431 111.756 49.6096 111.838C49.5755 111.922 49.5446 111.895 49.5393 111.777C49.5336 111.661 49.4236 111.533 49.2944 111.492C49.1653 111.451 48.9014 111.281 48.7082 111.115C48.515 110.949 48.3205 110.836 48.2761 110.863C48.2317 110.891 48.1945 110.845 48.1936 110.762C48.1926 110.679 48.0244 110.358 47.8196 110.049C47.0008 108.812 47.038 106.103 47.8812 105.557C47.9431 105.517 48.0872 105.301 48.2014 105.078C48.7845 103.94 50.8406 102.255 51.5303 102.349C51.771 102.382 52.2775 102.445 52.6559 102.49Z"
            fill="#2B2B2B" />
        <path fill-rule="evenodd" clip-rule="evenodd"
            d="M55.4698 42.8957C45.9718 43.7071 38.8434 51.7409 38.3869 62.1488C38.3281 63.4901 38.245 64.8518 38.2021 65.1745C37.9955 66.7334 39.3784 68.1841 41.0874 68.201C43.175 68.2213 44.7321 66.5389 45.5891 63.3369C47.5545 55.9947 51.2013 52.2315 56.3453 52.2375C62.2117 52.2443 64.9381 58.2734 61.8478 64.4044C60.1782 67.7161 55.3901 72.5154 50.6548 75.6233C49.8638 76.1423 48.9105 76.7701 48.5365 77.0181C46.1293 78.6145 45.6366 79.9755 46.0818 83.7991C47.576 96.636 47.6726 97.1194 49.0502 98.6139C50.1739 99.8327 51.5212 100.079 53.1251 99.3593C55.7321 98.1893 56.4597 95.3838 55.5104 90.1602C54.2407 83.1741 55.195 81.7533 64.537 76.7204C71.4199 73.0119 74.6857 68.4924 75.2904 61.838C76.1624 52.2396 69.3504 44.202 59.288 42.9567C57.6256 42.751 57.2351 42.7447 55.4698 42.8957ZM60.1785 45.01C70.0173 46.708 75.7312 56.1404 72.5943 65.5053C71.1207 69.9044 68.3339 72.6858 62.4371 75.6439C61.7843 75.9713 61.4326 76.2158 61.4873 76.3043C61.5408 76.3909 61.5176 76.41 61.4273 76.3543C61.113 76.1598 57.8054 78.1928 56.3115 79.4984C53.1921 82.2245 52.5871 85.0078 53.777 91.1604C54.4161 94.4652 54.166 96.1139 52.8503 97.2692C51.0656 98.8359 49.5517 97.4111 49.2203 93.8527C49.0965 92.5242 48.2952 86.1247 48.0925 84.8481C47.425 80.6365 47.6239 80.009 50.1546 78.3428C59.9215 71.9117 64.9428 65.5528 64.9666 59.585C65.0113 48.4227 51.423 46.7828 45.7976 57.2713C45.0841 58.6014 44.6148 59.8483 43.9492 62.1801C43.3179 64.3931 43.0962 64.919 42.5187 65.5769C41.5438 66.6871 39.6413 66.31 40.1434 65.1066C40.2544 64.8402 40.2988 64.2224 40.2804 63.1987C40.0734 51.6593 49.3857 43.1471 60.1785 45.01ZM68.6641 54.5199C68.3124 54.8716 68.3527 55.4057 68.7864 56.141C70.375 58.8352 70.4075 60.3432 68.9577 64.0689C68.4803 65.2961 68.5378 65.6766 69.2285 65.8498C70.0627 66.0593 70.3209 65.7782 71.0307 63.8897C72.2278 60.7034 72.1975 58.8102 70.9075 56.1457C69.9907 54.2522 69.3767 53.8073 68.6641 54.5199ZM68.0388 67.1164C67.0564 67.471 67.2578 68.9439 68.2889 68.9439C69.3582 68.9439 69.5177 67.3903 68.4765 67.1148C68.3389 67.0783 68.142 67.0792 68.0388 67.1164ZM50.5241 102.78C45.3708 106.219 46.7991 112.438 52.6755 112.148C56.7939 111.944 59.0157 107.226 56.395 104.248C55.1734 102.86 51.7041 101.993 50.5241 102.78ZM53.8633 104.792C57.5052 106.403 54.8113 111.445 51.0231 110.109C48.746 109.305 48.5615 107.401 50.5607 105.332L51.4677 104.393L52.3641 104.459C52.8719 104.496 53.5219 104.64 53.8633 104.792ZM-7 146.067V151.07H55.5323H118.065V146.067V141.065H55.5323H-7V146.067ZM20.4892 144.466C20.719 144.696 20.6677 145.252 20.3942 145.5C19.8298 146.011 19.0285 145.257 19.4509 144.612C19.6632 144.288 20.231 144.208 20.4892 144.466ZM19.67 144.524C19.4506 144.613 19.4749 145.254 19.7051 145.445C19.9877 145.68 20.5142 145.411 20.5142 145.032C20.5142 144.551 20.1484 144.331 19.67 144.524ZM-2.43952 145.999C-2.16688 146.787 -1.92675 147.414 -1.9058 147.393C-1.88517 147.372 -1.6488 146.752 -1.38116 146.014C-0.879023 144.631 -0.799607 144.472 -0.672041 144.599C-0.631082 144.641 -0.842754 145.367 -1.1426 146.215C-1.85609 148.231 -1.97709 148.25 -2.62149 146.442C-3.28933 144.569 -3.28996 144.566 -3.10017 144.566C-3.00231 144.566 -2.73404 145.149 -2.43952 145.999ZM4.13075 144.942C4.13075 145.192 4.19329 145.317 4.31835 145.317C4.42153 145.317 4.50595 145.373 4.50595 145.442C4.50595 145.511 4.42153 145.567 4.31835 145.567C4.16827 145.567 4.13075 145.755 4.13075 146.509C4.13075 147.231 4.17453 147.468 4.31835 147.523C4.55754 147.615 4.56254 147.818 4.32554 147.818C3.90908 147.818 3.75556 147.305 3.75556 145.914C3.75556 144.8 3.78808 144.566 3.94316 144.566C4.06822 144.566 4.13075 144.692 4.13075 144.942ZM10.5109 144.755C10.7479 144.878 10.8505 145.009 10.8039 145.13C10.7154 145.361 10.7076 145.361 10.2392 145.119C9.76023 144.871 9.25841 144.975 9.25841 145.322C9.25841 145.479 9.38691 145.623 9.60233 145.708C10.5625 146.087 10.7748 146.215 10.9024 146.495C11.3138 147.398 10.2095 148.086 8.90854 147.738C8.55023 147.642 8.589 147.236 8.95043 147.297C10.5087 147.56 11.1209 146.801 9.73428 146.325C8.962 146.06 8.75815 145.861 8.75815 145.371C8.75815 144.641 9.67081 144.321 10.5109 144.755ZM11.7597 144.942C11.7597 145.258 11.8085 145.317 12.0724 145.317C12.2668 145.317 12.385 145.388 12.385 145.504C12.385 145.621 12.2668 145.692 12.0724 145.692C11.4849 145.692 11.6687 147.267 12.28 147.47C12.4935 147.542 12.2881 147.818 12.0217 147.818C11.5002 147.818 11.3245 147.371 11.2798 145.929C11.2388 144.617 11.2469 144.566 11.4986 144.566C11.7053 144.566 11.7597 144.645 11.7597 144.942ZM17.7628 145.341V146.116L18.1752 145.716C18.455 145.445 18.7061 145.318 18.9569 145.322L19.3261 145.327L18.7749 145.811L18.224 146.295L18.6564 146.9C19.317 147.824 19.3149 147.818 18.9697 147.818C18.7402 147.818 18.5704 147.674 18.3059 147.256C17.8597 146.549 17.7628 146.549 17.7628 147.255C17.7628 147.735 17.7256 147.818 17.5127 147.818C17.2754 147.818 17.2625 147.735 17.2625 146.192C17.2625 144.65 17.2754 144.566 17.5127 144.566C17.7359 144.566 17.7628 144.65 17.7628 145.341ZM20.2278 144.931C20.2091 145.19 20.16 145.261 20.0574 145.176C19.9624 145.097 19.8911 145.111 19.8483 145.218C19.8126 145.307 19.7792 145.196 19.7738 144.973C19.7657 144.649 19.8139 144.566 20.009 144.566C20.2022 144.566 20.2485 144.643 20.2278 144.931ZM0.749006 145.439C0.968495 145.557 1.25427 146.17 1.25427 146.524C1.25427 146.649 1.03071 146.693 0.378815 146.693C-0.581369 146.693 -0.726757 146.838 -0.246508 147.318C0.0292593 147.594 0.507944 147.641 0.898458 147.433C1.11294 147.318 1.14484 147.332 1.10794 147.526C1.0329 147.921 -0.0360872 147.915 -0.432855 147.518C-1.3574 146.594 -0.362506 144.844 0.749006 145.439ZM3.34629 145.525C3.37943 145.626 3.24342 145.65 2.90137 145.604C2.22664 145.514 1.87959 145.856 1.87959 146.611C1.87959 147.346 2.18569 147.627 2.88417 147.533C3.24029 147.485 3.37943 147.509 3.34597 147.61C3.31971 147.69 3.04269 147.772 2.73034 147.793C1.60883 147.867 1.05667 146.496 1.8774 145.675C2.26854 145.284 3.23435 145.185 3.34629 145.525ZM6.68332 145.702C7.37962 146.529 6.92095 147.804 5.92324 147.814C5.16504 147.822 4.75608 147.384 4.75608 146.566C4.75608 145.405 5.97421 144.859 6.68332 145.702ZM7.63256 145.446C7.63256 145.536 7.7076 145.536 7.87457 145.446C8.44674 145.14 8.5718 145.396 8.00682 145.717C7.64288 145.925 7.63256 145.957 7.63256 146.874C7.63256 147.42 7.57973 147.818 7.5075 147.818C7.43246 147.818 7.38244 147.318 7.38244 146.567C7.38244 145.817 7.43246 145.317 7.5075 145.317C7.57629 145.317 7.63256 145.375 7.63256 145.446ZM14.3485 145.505C14.7512 145.787 14.9385 146.468 14.7613 147.005C14.3182 148.348 12.587 148 12.587 146.567C12.587 145.524 13.5481 144.944 14.3485 145.505ZM16.8677 145.616C16.9061 145.818 16.8576 145.842 16.5431 145.78C15.9822 145.667 15.6367 145.969 15.6367 146.572C15.6367 147.169 16.0319 147.505 16.5738 147.369C16.8598 147.298 16.9052 147.321 16.8673 147.52C16.792 147.916 15.8474 147.915 15.4507 147.518C14.6543 146.722 15.2193 145.263 16.2936 145.341C16.696 145.37 16.8336 145.436 16.8677 145.616ZM-0.0714179 145.663C-0.207738 145.754 -0.496638 146.235 -0.496638 146.372C-0.496638 146.411 -0.187103 146.442 0.191218 146.442C0.787151 146.442 0.879074 146.41 0.879074 146.201C0.879074 145.737 0.305027 145.411 -0.0714179 145.663ZM5.3098 145.827C4.77828 146.415 5.15691 147.568 5.88166 147.568C6.3519 147.568 6.68895 147.151 6.68895 146.567C6.68895 145.984 6.3519 145.567 5.88166 145.567C5.69656 145.567 5.43924 145.684 5.3098 145.827ZM13.3186 145.867C12.9844 146.112 12.9844 147.023 13.3186 147.268C13.842 147.65 14.3179 147.317 14.3179 146.567C14.3179 146.054 14.0618 145.692 13.6982 145.692C13.6213 145.692 13.4506 145.771 13.3186 145.867ZM85.4228 146.505C85.5094 146.814 85.6219 147.068 85.6729 147.068C85.7239 147.068 85.8364 146.814 85.923 146.505C86.0162 146.172 86.1541 145.942 86.2604 145.942C86.4555 145.942 86.4449 145.998 86.0612 147.005C85.7079 147.933 85.4909 147.764 84.976 146.161C84.9313 146.022 84.9707 145.942 85.0854 145.942C85.1917 145.942 85.3296 146.172 85.4228 146.505ZM93.4895 146.125C93.4895 146.192 93.3256 146.248 93.1252 146.25C92.6049 146.257 92.5987 146.484 93.1121 146.729C93.8106 147.062 93.6161 147.761 92.8501 147.671C92.3532 147.612 92.3204 147.338 92.8132 147.361C93.3666 147.388 93.3938 147.158 92.8663 146.906C92.4092 146.688 92.2988 146.37 92.5821 146.087C92.7588 145.91 93.4895 145.941 93.4895 146.125ZM97.5541 146.38C97.5541 146.827 97.7198 146.967 97.8495 146.63C97.8889 146.527 98.0162 146.442 98.1322 146.442C98.326 146.442 98.3248 146.463 98.1197 146.689C97.908 146.923 97.9077 146.954 98.1103 147.263C98.4176 147.732 98.2138 147.826 97.8561 147.38L97.5553 147.005L97.5547 147.349C97.5544 147.538 97.4978 147.693 97.429 147.693C97.3574 147.693 97.3039 147.318 97.3039 146.818C97.3039 146.317 97.3574 145.942 97.429 145.942C97.4978 145.942 97.5541 146.139 97.5541 146.38ZM104.808 146.027C104.808 146.265 104.244 147.818 104.158 147.818C104.011 147.818 104.031 147.682 104.313 146.768C104.521 146.092 104.808 145.664 104.808 146.027ZM106.184 145.988C106.184 146.177 105.404 147.693 105.307 147.693C105.136 147.693 105.142 147.667 105.489 146.884L105.795 146.192H105.434C105.235 146.192 105.038 146.136 104.995 146.067C104.948 145.99 105.161 145.942 105.551 145.942C105.899 145.942 106.184 145.962 106.184 145.988ZM107.309 146.067C107.309 146.136 107.168 146.192 106.996 146.192C106.824 146.192 106.684 146.249 106.684 146.317C106.684 146.386 106.785 146.442 106.909 146.442C107.399 146.442 107.644 147.238 107.254 147.562C107.032 147.746 106.409 147.687 106.34 147.475C106.303 147.365 106.395 147.341 106.656 147.394C106.924 147.447 107.044 147.413 107.1 147.267C107.243 146.894 107.053 146.663 106.666 146.74C106.289 146.815 106.249 146.741 106.387 146.224C106.466 145.932 107.309 145.788 107.309 146.067ZM108.685 146.067C108.685 146.136 108.544 146.192 108.372 146.192C108.2 146.192 108.059 146.249 108.059 146.317C108.059 146.386 108.161 146.442 108.285 146.442C108.774 146.442 109.02 147.238 108.63 147.562C108.401 147.752 107.784 147.684 107.71 147.461C107.668 147.333 107.745 147.311 108.029 147.374C108.306 147.435 108.422 147.405 108.478 147.262C108.619 146.893 108.426 146.663 108.041 146.74C107.664 146.815 107.624 146.741 107.763 146.224C107.842 145.932 108.685 145.788 108.685 146.067ZM110.056 146.184C110.386 146.8 110.051 147.693 109.491 147.693C109.112 147.693 109.085 147.475 109.457 147.42C109.798 147.37 109.917 147.068 109.596 147.068C109.285 147.068 109.06 146.831 109.06 146.505C109.06 145.956 109.805 145.715 110.056 146.184ZM111.561 146.067C111.561 146.136 111.46 146.192 111.336 146.192C111.106 146.192 110.811 146.415 110.811 146.588C110.811 146.642 110.891 146.654 110.989 146.617C111.273 146.507 111.686 146.799 111.686 147.11C111.686 147.664 111.038 147.902 110.632 147.496C110.353 147.217 110.383 146.496 110.686 146.192C110.944 145.934 111.561 145.846 111.561 146.067ZM112.933 146.184C113.281 146.834 112.998 147.693 112.437 147.693C112.014 147.693 111.811 147.409 111.811 146.818C111.811 146.226 112.014 145.942 112.437 145.942C112.671 145.942 112.85 146.029 112.933 146.184ZM114.308 146.184C114.638 146.8 114.303 147.693 113.743 147.693C113.364 147.693 113.337 147.475 113.709 147.42C114.05 147.37 114.169 147.068 113.848 147.068C113.538 147.068 113.312 146.831 113.312 146.505C113.312 145.956 114.058 145.715 114.308 146.184ZM89.6515 146.401C89.8035 146.553 89.8179 146.624 89.705 146.662C89.4742 146.739 89.5174 147.327 89.7688 147.527C89.9698 147.686 89.962 147.697 89.675 147.666C89.4064 147.636 89.3514 147.551 89.286 147.068C89.1719 146.229 89.2807 146.03 89.6515 146.401ZM94.1539 146.401C94.3058 146.553 94.3202 146.624 94.2073 146.662C93.9885 146.735 94.0138 147.311 94.2398 147.398C94.5312 147.51 94.4606 147.715 94.146 147.671C93.9159 147.638 93.8506 147.528 93.7884 147.068C93.6742 146.229 93.783 146.03 94.1539 146.401ZM109.358 146.374C109.27 146.603 109.398 146.818 109.623 146.818C109.88 146.818 109.978 146.582 109.806 146.374C109.613 146.143 109.446 146.142 109.358 146.374ZM112.212 146.342C111.932 146.622 112.065 147.443 112.39 147.443C112.682 147.443 112.877 146.871 112.71 146.505C112.551 146.158 112.435 146.119 112.212 146.342ZM113.61 146.374C113.522 146.603 113.65 146.818 113.875 146.818C114.105 146.818 114.206 146.636 114.112 146.391C114.017 146.142 113.703 146.132 113.61 146.374ZM87.5239 146.593C87.8059 146.875 87.6905 147.068 87.2403 147.068C86.8992 147.068 86.8223 147.109 86.881 147.262C86.9257 147.379 87.0718 147.441 87.2465 147.419C87.4063 147.398 87.5417 147.437 87.547 147.505C87.5614 147.691 86.9364 147.734 86.7285 147.562C86.3207 147.223 86.5878 146.442 87.1112 146.442C87.2556 146.442 87.4413 146.51 87.5239 146.593ZM88.9502 146.63C88.9296 146.699 88.7805 146.738 88.6182 146.716C88.2652 146.67 88.1276 146.849 88.2411 147.207C88.3093 147.421 88.3928 147.455 88.697 147.395C88.9627 147.342 89.055 147.365 89.0187 147.475C88.9493 147.687 88.3258 147.746 88.1042 147.562C87.8828 147.378 87.8684 146.798 88.0798 146.587C88.2599 146.407 89.0053 146.444 88.9502 146.63ZM91.1695 146.623C91.5982 147.139 90.8915 147.968 90.325 147.613C89.8072 147.289 90.0608 146.442 90.6755 146.442C90.865 146.442 91.0873 146.523 91.1695 146.623ZM92.0662 146.705C91.9114 146.85 91.8011 147.107 91.8011 147.323C91.8011 147.526 91.7448 147.693 91.676 147.693C91.2893 147.693 91.5519 146.481 91.9412 146.469L92.3314 146.458L92.0662 146.705ZM95.7009 146.755C95.9138 147.223 95.6653 147.693 95.2057 147.693C94.7657 147.693 94.5525 147.489 94.5525 147.068C94.5525 146.399 95.4298 146.16 95.7009 146.755ZM97.0794 146.63C97.0588 146.699 96.9112 146.738 96.7515 146.717C96.4344 146.675 96.2612 146.937 96.3878 147.267C96.4438 147.413 96.5632 147.447 96.8318 147.394C97.0926 147.341 97.1842 147.365 97.1479 147.475C97.0785 147.687 96.455 147.746 96.2334 147.562C96.012 147.378 95.9976 146.798 96.209 146.587C96.3891 146.407 97.1345 146.444 97.0794 146.63ZM100.206 146.63C100.185 146.699 100.038 146.738 99.8781 146.717C99.561 146.675 99.3878 146.937 99.5144 147.267C99.5704 147.413 99.6898 147.447 99.9584 147.394C100.219 147.341 100.311 147.365 100.275 147.475C100.205 147.687 99.5817 147.746 99.36 147.562C99.1386 147.378 99.1242 146.798 99.3356 146.587C99.5157 146.407 100.261 146.444 100.206 146.63ZM101.601 146.717C101.956 147.284 101.127 147.99 100.611 147.562C100.389 147.378 100.375 146.798 100.586 146.587C100.799 146.375 101.438 146.457 101.601 146.717ZM103.783 147.099C103.828 147.799 103.591 147.918 103.533 147.224C103.507 146.908 103.434 146.755 103.307 146.755C103.18 146.755 103.107 146.908 103.081 147.224C103.031 147.819 102.807 147.841 102.807 147.251C102.807 146.962 102.738 146.783 102.607 146.733C102.36 146.638 102.186 146.892 102.183 147.349C102.182 147.538 102.125 147.693 102.056 147.693C101.988 147.693 101.931 147.418 101.931 147.082V146.472L102.838 146.488L103.745 146.505L103.783 147.099ZM90.38 146.88C90.2731 147.159 90.4219 147.443 90.6755 147.443C90.7984 147.443 90.9313 147.359 90.971 147.255C91.0779 146.976 90.9291 146.693 90.6755 146.693C90.5526 146.693 90.4197 146.777 90.38 146.88ZM94.848 146.88C94.7382 147.166 94.8917 147.443 95.1606 147.443C95.4292 147.443 95.583 147.166 95.4733 146.88C95.4336 146.777 95.2929 146.693 95.1606 146.693C95.0281 146.693 94.8874 146.777 94.848 146.88ZM100.76 146.88C100.653 147.159 100.802 147.443 101.056 147.443C101.179 147.443 101.312 147.359 101.351 147.255C101.458 146.976 101.309 146.693 101.056 146.693C100.933 146.693 100.8 146.777 100.76 146.88ZM110.819 146.935C110.609 147.068 110.84 147.443 111.131 147.443C111.382 147.443 111.476 147.204 111.306 147C111.131 146.789 111.064 146.78 110.819 146.935Z"
            fill="white" />
        <path fill-rule="evenodd" clip-rule="evenodd"
            d="M67.0538 20.2755C66.5939 20.4524 66.108 20.8086 65.428 21.4664C64.8949 21.9829 64.4303 22.405 64.3959 22.405C64.3409 22.4047 61.4684 25.0851 59.8714 26.6275C59.5496 26.938 59.3192 27.2453 59.3592 27.31C59.3993 27.3748 59.3755 27.3929 59.3064 27.3501C59.2085 27.2897 55.9021 30.4939 55.8881 30.6627C55.8862 30.6849 55.0145 31.6038 53.9511 32.7044C52.8874 33.805 52.0157 34.7617 52.0136 34.8305C52.0086 35.01 51.2263 35.5327 51.1447 35.4111C50.8361 34.9502 47.6869 34.8427 47.9712 35.3026C48.0231 35.3867 47.9749 35.4058 47.8405 35.3539C47.4868 35.2185 46.0114 36.3303 46.0114 36.7324C46.0114 36.8212 45.9551 36.894 45.8863 36.894C45.8175 36.894 45.7613 36.9738 45.7613 37.0713C45.7613 37.1686 45.719 37.2671 45.6675 37.2902C45.5174 37.3568 44.8636 38.2698 44.9658 38.2698C45.0168 38.2698 44.9687 38.3401 44.8586 38.4261C44.6085 38.6215 43.1349 40.7373 43.1349 40.9008C43.1349 40.9671 43.0927 41.0215 43.0411 41.0221C42.9151 41.0231 42.3135 41.9185 42.3532 42.0461C42.3704 42.1014 42.3373 42.1468 42.2791 42.1468C42.1503 42.1468 40.5085 44.4611 40.5085 44.6427C40.5085 44.7143 40.4582 44.7731 40.3966 44.7731C40.335 44.7731 40.1662 45.0123 40.0214 45.3046C39.8766 45.597 39.7582 45.7805 39.7582 45.7127C39.7582 45.5845 38.9459 46.7416 38.8814 46.9617C38.8614 47.0305 38.7789 47.1431 38.6979 47.2119C38.5203 47.3626 37.6321 48.6213 37.6321 48.7217C37.6321 48.7611 37.558 48.8671 37.4673 48.9578C37.3766 49.0484 37.0249 49.5359 36.6856 50.0405C36.3464 50.5452 35.9653 51.072 35.8386 51.2111C35.439 51.6501 34.7527 53.1243 34.8409 53.3544C34.8938 53.492 34.8747 53.5386 34.7875 53.4848C34.5639 53.3466 34.336 54.6016 34.325 56.0289C34.3166 57.1336 34.2709 57.425 34.0374 57.8646C33.1976 59.4429 33.055 61.7228 33.696 63.3211C33.9239 63.8895 34.0924 64.1516 34.2025 64.109C34.3125 64.0668 34.3422 64.1125 34.2913 64.245C34.2487 64.3554 34.2985 64.5061 34.4023 64.5827C34.5051 64.6587 34.658 64.8491 34.7415 65.0057C34.825 65.1624 34.9482 65.2568 35.0151 65.2152C35.082 65.174 35.1214 65.2059 35.1026 65.2859C35.0835 65.3662 35.1758 65.4972 35.3074 65.5767C35.439 65.6564 35.6373 65.8058 35.748 65.909C35.8586 66.0122 36.085 66.1854 36.251 66.2942L36.5531 66.4918L36.2695 66.9508C36.1135 67.2031 36.0325 67.4107 36.0897 67.4117C36.1469 67.4126 36.125 67.4573 36.0406 67.5108C35.9565 67.5646 35.8621 67.7465 35.8311 67.9154C35.8002 68.0845 35.7639 68.2509 35.7505 68.2852C35.7373 68.3196 35.7333 68.39 35.7414 68.4416C35.7495 68.4932 35.7076 68.5354 35.6488 68.5354C35.2311 68.5354 35.2161 71.975 35.6313 72.4755C35.6989 72.5565 35.7314 72.6459 35.7039 72.6741C35.6004 72.7794 36.3539 74.0992 36.4987 74.0664C36.5821 74.0476 36.6153 74.0882 36.5728 74.157C36.3448 74.5257 38.6898 76.2472 39.2879 76.1502C39.3745 76.1365 39.5477 76.1693 39.6728 76.2237C39.8745 76.3116 41.0066 76.2634 41.5091 76.1456C41.6613 76.1102 41.692 76.2378 41.6723 76.8209C41.6588 77.2164 41.6932 77.54 41.7489 77.54C41.8042 77.54 41.8223 77.6823 41.7892 77.8561C41.6888 78.3805 42.3339 80.3555 42.6737 80.5657C42.7553 80.6163 42.8222 80.7151 42.8222 80.7855C42.8222 81.9254 46.5095 83.4603 47.8248 82.8678C47.9624 82.8056 48.1444 82.7405 48.2294 82.7227C48.4767 82.6708 49.2631 82.1568 49.2631 82.0467C49.2631 81.6743 50.3649 81.9761 50.3887 82.355C50.3987 82.5188 51.3032 83.187 52.0145 83.5559C53.1326 84.1359 55.2605 83.9343 55.9397 83.1836C56.0691 83.0407 56.2101 82.9453 56.2526 82.9716C56.2951 82.9982 56.8063 82.6308 57.3885 82.1558C58.6436 81.1313 58.5698 81.1472 58.7696 81.8604C58.9609 82.5435 59.6397 83.7054 60.1684 84.2541L60.5523 84.6524L60.2272 85.2068C60.0487 85.512 59.938 85.7968 59.9814 85.8402C60.0249 85.8837 59.9961 85.9193 59.9176 85.9193C59.8004 85.9193 59.3667 86.5672 59.3317 86.7948C59.3264 86.8292 59.2414 86.998 59.1426 87.17C58.8599 87.6631 58.9056 90.4539 59.2073 91.1095C59.3339 91.3847 59.4552 91.7077 59.4768 91.8274C59.5381 92.1645 60.2112 93.189 60.3078 93.0924C60.3551 93.0449 60.3938 93.0937 60.3938 93.2003C60.3938 93.4629 61.3693 94.329 61.5438 94.2211C61.6285 94.1689 61.6479 94.1917 61.5938 94.2796C61.5188 94.4009 61.7573 94.5623 62.2698 94.7367C62.3042 94.7483 62.4449 94.8096 62.5825 94.8724C62.958 95.0437 64.8246 95.014 65.0425 94.8333C65.2485 94.6623 65.5215 94.8361 65.5215 95.1379C65.5215 95.3561 66.0455 96.4761 66.1721 96.5289C66.2272 96.552 66.2737 96.6364 66.2759 96.7165C66.2803 96.8781 66.8375 97.5504 66.9669 97.5504C67.0119 97.5504 67.1576 97.6885 67.2905 97.8574C67.6448 98.3082 68.9939 98.9283 69.8009 99.0114C70.4193 99.0752 70.5619 99.1487 71.1037 99.6805C71.4383 100.009 71.7485 100.256 71.7929 100.228C71.8373 100.2 71.9057 100.262 71.9454 100.365C71.9848 100.468 72.1055 100.552 72.2137 100.552C72.3216 100.552 72.5776 100.676 72.7824 100.827C73.0913 101.056 73.3371 101.105 74.2319 101.122L75.3094 101.141L75.8037 101.66C76.0754 101.946 76.358 102.142 76.4318 102.097C76.5069 102.05 76.5297 102.072 76.484 102.146C76.1435 102.697 79.3183 103.516 80.4042 103.157C80.9732 102.969 81.4235 102.922 81.339 103.058C81.2312 103.233 82.3652 104.343 82.5406 104.235C82.6297 104.18 82.6619 104.192 82.6175 104.264C82.2692 104.828 85.8298 105.423 86.3623 104.891C86.4101 104.843 86.548 104.804 86.6693 104.804C86.7906 104.804 86.9782 104.716 87.0861 104.607C87.1943 104.5 87.2827 104.446 87.2827 104.489C87.2827 104.667 88.4111 103.762 89.2506 102.909C89.7481 102.404 90.491 101.685 90.9015 101.312C91.312 100.939 91.6134 100.573 91.5712 100.499C91.5293 100.425 91.5406 100.406 91.5962 100.456C91.6519 100.507 91.8198 100.422 91.9692 100.268C92.4517 99.7721 93.077 99.2344 92.9854 99.3944C92.9297 99.492 93.016 99.6049 93.2161 99.6962C93.3922 99.7762 93.536 99.8822 93.536 99.9316C93.536 100.005 94.1776 100.329 94.4114 100.373C94.4458 100.38 94.6147 100.443 94.7866 100.513C95.4879 100.799 97.534 100.599 97.327 100.264C97.2817 100.191 97.3123 100.177 97.3999 100.231C97.4827 100.282 97.7307 100.241 97.9508 100.139C98.1709 100.037 98.6149 99.8347 98.9375 99.6899C99.2599 99.5454 99.5594 99.3697 99.6026 99.2997C99.646 99.2293 99.7298 99.2021 99.7892 99.2387C99.8486 99.2753 99.928 99.2553 99.9659 99.194C100.004 99.133 100.345 98.9308 100.725 98.745C101.105 98.5593 101.415 98.3645 101.415 98.3123C101.415 98.2601 101.487 98.2173 101.575 98.2173C101.793 98.2173 102.416 97.7999 102.416 97.6535C102.416 97.5888 102.472 97.5704 102.541 97.6129C102.609 97.6554 102.666 97.6307 102.666 97.5579C102.666 97.485 102.75 97.4253 102.853 97.4253C102.956 97.4253 103.041 97.369 103.041 97.3002C103.041 97.2314 103.117 97.1752 103.21 97.1752C103.303 97.1752 103.528 97.0373 103.711 96.8684C103.893 96.6999 104.041 96.5961 104.041 96.6377C104.041 96.6796 104.147 96.6183 104.276 96.5017C104.505 96.2944 105.305 96.2713 105.5 96.466C105.546 96.5123 105.662 96.5498 105.758 96.5498C105.854 96.5498 106.253 96.7037 106.644 96.8919C107.433 97.2715 109.544 97.4813 109.544 97.1802C109.544 97.1004 109.601 97.0701 109.669 97.1126C109.738 97.1552 109.865 97.1451 109.951 97.0907C110.037 97.036 110.135 96.9844 110.17 96.9757C110.204 96.9669 110.415 96.9169 110.639 96.8644C110.862 96.8118 111.045 96.7193 111.045 96.6593C111.045 96.5989 111.131 96.5498 111.236 96.5498C111.648 96.5498 114.414 94.9618 114.526 94.6607C114.549 94.5991 114.648 94.5488 114.745 94.5488C114.842 94.5488 114.922 94.4963 114.922 94.4322C114.922 94.3681 115.031 94.2812 115.163 94.239C115.295 94.1971 115.643 93.926 115.936 93.6365C116.229 93.3472 116.42 93.195 116.361 93.2982C116.293 93.4185 116.351 93.401 116.524 93.2503C116.671 93.1206 116.757 92.9586 116.715 92.8901C116.673 92.8217 116.714 92.7907 116.807 92.822C116.901 92.8529 117.148 92.7222 117.356 92.5315C117.565 92.3405 118.045 91.9143 118.423 91.5845C118.801 91.2546 119.431 90.6831 119.824 90.3144L120.538 89.6447L121.429 89.7341C122.332 89.8248 123.426 89.6403 123.426 89.3974C123.426 89.3336 123.478 89.3133 123.541 89.3521C123.604 89.3911 123.821 89.2833 124.024 89.1129C124.227 88.9422 124.427 88.8374 124.469 88.8796C124.511 88.9222 124.582 88.8643 124.625 88.7511C124.668 88.6383 124.784 88.5457 124.882 88.5457C124.98 88.5457 125.093 88.4613 125.132 88.3581C125.172 88.2549 125.276 88.1705 125.365 88.1705C125.454 88.1705 125.707 88.0017 125.928 87.7953C126.149 87.589 126.383 87.4201 126.449 87.4201C126.514 87.4201 126.528 87.3551 126.479 87.2757C126.429 87.1947 126.444 87.165 126.513 87.2081C126.689 87.3163 127.2 86.9311 127.099 86.767C127.052 86.6913 127.072 86.6666 127.144 86.7113C127.385 86.8602 128.347 85.9788 128.212 85.733C128.174 85.6636 128.213 85.6717 128.299 85.7511C128.468 85.9075 129.304 85.5113 129.304 85.2743C129.304 85.2084 129.357 85.1868 129.422 85.2268C129.486 85.2665 129.595 85.1996 129.663 85.0777C129.731 84.956 129.833 84.8647 129.89 84.8751C129.946 84.8854 129.981 84.8525 129.968 84.8022C129.955 84.7516 130.015 84.7103 130.101 84.7103C130.3 84.7103 131.055 84.1581 131.055 84.0124C131.055 83.9527 131.112 83.9386 131.181 83.9815C131.251 84.0243 131.341 83.9712 131.382 83.8636C131.424 83.756 131.508 83.6682 131.57 83.6682C131.696 83.6682 133.332 82.36 133.782 81.8995C134.787 80.8721 135.782 79.4379 135.828 78.9501C135.833 78.8967 135.889 78.7188 135.951 78.5546C136.014 78.3902 136.036 78.2266 136 78.1907C135.964 78.155 136.001 78.0465 136.081 77.9496C136.226 77.7755 136.266 76.5167 136.169 75.1985L136.121 74.5457L136.968 73.6912C137.435 73.2209 137.786 72.7973 137.75 72.7494C137.714 72.7016 137.717 72.6866 137.758 72.7157C137.869 72.7954 139.06 71.6357 139.06 71.4484C139.06 71.3596 139.11 71.2868 139.171 71.2868C139.452 71.2868 140.048 69.2282 140.056 68.233C140.061 67.5099 139.822 66.0341 139.699 66.0341C139.653 66.0341 139.603 65.8915 139.588 65.7174C139.557 65.3406 139.272 64.7525 138.845 64.1819L138.535 63.7682L138.747 62.7002C138.864 62.1127 138.924 61.4545 138.882 61.2379C138.839 61.0212 138.784 60.6188 138.76 60.3437C138.591 58.4674 137.642 56.8884 136.174 56.0449C135.637 55.7363 134.661 54.7783 134.883 54.7783C135.088 54.7783 133.641 53.5223 133.353 53.4498C133.19 53.4088 133.056 53.3307 133.056 53.2756C133.056 53.1471 131.932 52.7619 131.798 52.8445C131.742 52.8789 131.755 52.7232 131.825 52.4984C132.086 51.6679 132.188 50.9413 132.167 50.0721C132.148 49.2783 132.182 49.1319 132.483 48.738C132.668 48.4947 132.829 48.1808 132.839 48.0404C132.85 47.9 132.885 47.8119 132.917 47.8438C133.005 47.9313 133.653 46.4884 134.099 45.2108C134.538 43.9574 134.699 41.0478 134.338 40.9271C134.251 40.8983 134.209 40.8292 134.243 40.7736C134.33 40.6325 133.987 39.8465 133.753 39.6527C133.646 39.5642 133.587 39.4472 133.621 39.3922C133.77 39.1518 132.152 37.5475 131.666 37.454C131.513 37.4243 131.349 37.3399 131.304 37.2661C130.939 36.6767 127.679 36.6827 127.679 37.2727C127.679 37.3302 127.554 37.4171 127.402 37.4653C127.007 37.5907 124.983 39.1452 125.024 39.2918C125.043 39.3591 125.007 39.3819 124.943 39.3428C124.838 39.2778 123.81 40.051 123.086 40.7398C122.923 40.8946 122.758 41.0212 122.719 41.0212C122.68 41.0212 122.38 41.246 122.052 41.5208C121.391 42.0736 121.379 42.0698 120.992 41.1775C120.866 40.8852 120.714 40.646 120.656 40.646C120.598 40.646 120.55 40.5728 120.55 40.4831C120.55 40.3937 120.297 40.0791 119.987 39.784C119.678 39.4891 119.424 39.1683 119.424 39.0714C119.424 38.9745 119.368 38.8951 119.299 38.8951C119.231 38.8951 119.186 38.8529 119.2 38.8013C119.335 38.3079 117.929 36.507 117.089 36.098C116.826 35.9695 116.461 35.7866 116.278 35.6916C115.888 35.4877 113.853 35.4511 113.733 35.6456C113.69 35.7153 113.615 35.7481 113.567 35.7184C113.519 35.6887 113.256 35.7675 112.984 35.8935C112.34 36.1912 112.296 36.1493 112.294 35.2294C112.293 34.4118 112.006 33.108 111.813 33.0439C111.69 33.003 111.746 32.7306 112.171 31.2883C112.319 30.7843 112.41 30.2919 112.372 30.194C112.334 30.0959 112.364 30.0155 112.437 30.0155C112.632 30.0155 112.531 26.8595 112.328 26.615C112.243 26.5121 112.201 26.3999 112.236 26.3652C112.331 26.2701 111.935 25.3881 111.798 25.3881C111.732 25.3881 111.706 25.3159 111.74 25.2274C111.824 25.0085 111.318 24.4842 111.131 24.5965C111.023 24.6618 111.024 24.6346 111.136 24.4961C111.341 24.2431 109.94 22.9071 109.655 23.0835C109.594 23.121 109.544 23.0988 109.544 23.0344C109.544 22.8712 108.838 22.5945 108.676 22.6945C108.603 22.7396 108.544 22.717 108.544 22.6442C108.544 22.2903 105.89 22.6079 105.542 23.0031C105.508 23.0425 105.278 23.1767 105.032 23.3017C104.785 23.4268 104.447 23.6519 104.281 23.802C104.115 23.9521 103.726 24.2391 103.416 24.4401C102.693 24.9094 100.855 26.2745 99.0804 27.6615L97.6834 28.7527L97.3414 28.2899C96.8083 27.5683 96.258 27.0174 96.1426 27.0887C96.0845 27.1246 96.0373 27.0984 96.0373 27.0305C96.0373 26.7988 94.725 26.2657 93.9581 26.1857C93.1717 26.1041 91.9101 26.3136 91.9101 26.5262C91.9101 26.5881 91.8679 26.6275 91.8163 26.6141C91.6456 26.569 91.1597 26.7785 91.1597 26.8973C91.1597 26.9614 91.2864 27.0146 91.4411 27.0155C91.7838 27.0171 93.3781 27.4101 94.1951 27.6937C94.5234 27.8078 94.8554 27.8616 94.9336 27.8134C95.013 27.7643 95.0411 27.7809 94.9977 27.8516C94.9548 27.9207 95.129 28.0404 95.3847 28.118C95.6405 28.1952 96.2912 28.4847 96.8311 28.7617C97.3708 29.0384 97.8773 29.2276 97.9567 29.1823C98.0358 29.1369 98.0602 29.145 98.0102 29.2004C97.9605 29.2554 98.2953 29.5528 98.7549 29.8607C99.2145 30.169 99.8371 30.6255 100.138 30.875C100.44 31.1245 100.742 31.3134 100.81 31.2943C100.878 31.2755 100.906 31.3049 100.872 31.3596C100.838 31.4143 101.063 31.7114 101.373 32.0193C101.682 32.3273 102.135 32.8169 102.38 33.1077C102.625 33.3982 102.873 33.6064 102.931 33.5701C102.99 33.5339 103.005 33.5911 102.964 33.6974C102.92 33.8112 102.972 33.9219 103.09 33.9672C103.201 34.0097 103.291 34.0917 103.291 34.1498C103.291 34.2077 103.454 34.4972 103.652 34.793C104.165 35.5571 105.015 37.2145 105.185 37.7811C105.265 38.0456 105.386 38.2266 105.455 38.1838C105.524 38.1409 105.545 38.1644 105.501 38.2354C105.457 38.3067 105.526 38.6953 105.654 39.0989C106.932 43.1241 106.548 48.4381 104.717 52.05C104.547 52.3864 104.447 52.7244 104.494 52.8013C104.547 52.8864 104.524 52.9061 104.435 52.851C104.351 52.7991 104.254 52.857 104.205 52.9883C104.125 53.2037 103.989 53.4254 103.416 54.273C103.163 54.6476 103.058 54.999 103.303 54.6532C103.42 54.4866 103.429 54.4866 103.379 54.6532C103.348 54.7564 103.263 54.828 103.19 54.8124C102.984 54.768 102.26 55.751 102.364 55.9329C102.415 56.0202 102.411 56.0511 102.356 56.0017C102.302 55.9523 101.744 56.396 101.117 56.9875C99.3502 58.6547 97.7866 59.6824 94.2238 61.5193C93.2608 62.0158 92.4163 62.4888 92.3476 62.5707C92.2785 62.653 92.1378 62.7383 92.0349 62.7608C91.483 62.8812 88.998 64.6246 89.1131 64.811C89.1668 64.8976 89.1387 64.911 89.0358 64.8475C88.7945 64.6981 87.385 66.2714 86.8694 67.2653C86.003 68.9359 85.9477 70.7659 86.6502 74.5188C87.2402 77.672 87.1489 79.83 86.3591 81.3883C86.0609 81.9773 84.7983 83.293 84.5313 83.293C84.4544 83.293 84.4188 83.3371 84.4522 83.3912C84.4857 83.4453 84.4184 83.494 84.3034 83.5C84.188 83.5056 83.7525 83.6025 83.3354 83.7154C81.2906 84.2691 79.3665 82.8096 78.652 80.1633C78.4857 79.5464 78.4985 79.6164 78.229 77.8527C77.9598 76.0912 77.0005 68.1299 76.8258 66.2095C76.6094 63.8305 77.3914 62.3397 79.6166 60.8899C80.0499 60.6075 80.3657 60.3199 80.321 60.248C80.2744 60.1723 80.3007 60.1548 80.3839 60.2061C80.6274 60.3565 84.3115 57.7595 85.7435 56.4276C85.963 56.2234 86.3154 55.9332 86.5264 55.7829C86.7378 55.6325 86.8728 55.4489 86.8272 55.3748C86.7812 55.3004 86.8012 55.2754 86.8716 55.3189C87.0336 55.4189 87.4403 54.9809 87.3143 54.8417C87.2624 54.7848 87.2859 54.7758 87.3665 54.822C87.5426 54.9227 87.9409 54.5572 87.8374 54.39C87.7974 54.3249 87.8118 54.2874 87.8699 54.3062C88.1379 54.3934 90.2233 52.232 90.0861 52.0093C90.0345 51.9262 90.0495 51.8965 90.1208 51.9406C90.304 52.0537 90.9575 51.3299 90.8415 51.1423C90.7855 51.0517 90.7974 51.0195 90.8705 51.0645C91.0003 51.1448 91.272 50.8169 92.0408 49.6534C94.1522 46.4571 94.6322 42.6542 93.2812 39.8231C92.6996 38.6046 90.9431 36.9541 90.5113 37.2208C90.4269 37.2733 90.4053 37.2517 90.4575 37.1673C90.7664 36.6677 87.647 36.1237 86.0196 36.3932C83.9601 36.734 80.4889 38.6994 80.8666 39.3103C80.9088 39.3785 80.8829 39.3966 80.8091 39.3513C80.4992 39.1596 78.1793 42.4597 78.3362 42.8687C78.3716 42.9603 78.3519 43.0053 78.2928 42.9687C78.1802 42.899 77.4755 44.4689 77.3382 45.0958C77.2941 45.2965 77.2107 45.5735 77.1528 45.7111C77.095 45.8487 76.8489 46.6744 76.6063 47.5461C75.6098 51.1245 73.444 52.9298 71.0828 52.1507C69.6739 51.6857 68.4543 49.1691 69.2512 48.3722C69.4132 48.2102 69.4545 47.9754 69.3047 48.0683C68.7904 48.3872 69.6264 42.0752 70.3931 39.8496C70.5319 39.446 70.6097 39.0574 70.5657 38.9861C70.5209 38.9142 70.5456 38.8935 70.6207 38.9401C70.697 38.9873 70.7936 38.9001 70.842 38.7406C71.2379 37.4331 73.1079 34.4193 74.4608 32.9076C74.6687 32.6753 74.82 32.4221 74.7972 32.3448C74.7741 32.2673 74.7963 32.2451 74.8466 32.2951C74.8966 32.3455 75.2997 32.0478 75.7418 31.6341C79.2386 28.3631 83.3041 26.7732 88.1895 26.766C89.8925 26.7638 90.1439 26.6413 89.5874 26.085C89.4795 25.9769 89.4245 25.8884 89.4657 25.8884C89.5946 25.8884 89.1919 25.2011 88.7598 24.6843C88.5321 24.4117 88.3177 24.1887 88.2833 24.1887C88.2489 24.1887 88.0669 24.0349 87.879 23.847C87.435 23.403 86.5067 23.0072 85.7194 22.9259C84.2011 22.7696 80.6984 23.6932 80.987 24.174C81.0573 24.2913 81.0358 24.2913 80.8901 24.1734C80.7369 24.0496 80.4992 24.1456 79.5844 24.7006C78.5623 25.3203 78.0436 25.541 78.1984 25.2906C78.2315 25.2371 78.0661 24.9704 77.8307 24.6981C77.5952 24.4257 77.4026 24.2528 77.4026 24.3144C77.4026 24.3757 77.2854 24.2907 77.1419 24.1253C76.9987 23.9602 76.8398 23.8248 76.7892 23.8248C76.7385 23.8248 76.6025 23.7304 76.4868 23.6147C75.9994 23.1273 74.241 22.8627 73.4112 23.152C73.0338 23.2836 72.3832 22.9453 72.5989 22.7295C72.6311 22.6973 72.4945 22.4963 72.295 22.2831C72.0958 22.0695 71.9536 21.8744 71.9789 21.8488C72.0317 21.7959 71.3142 21.1359 71.2041 21.1359C71.1641 21.1359 71.0465 21.0509 70.9427 20.9471C70.8389 20.8433 70.6935 20.7957 70.6197 20.8414C70.546 20.887 70.5206 20.8677 70.5635 20.7982C70.7182 20.5478 69.1399 20.0103 68.2729 20.0182C67.9634 20.021 67.415 20.137 67.0538 20.2755ZM83.6559 86.4896C84.8255 86.6263 86.1825 87.1412 86.9407 87.7362C88.907 89.2795 89.0815 92.6453 87.2956 94.5829C87.0154 94.8871 86.8272 95.1816 86.8778 95.2376C86.9285 95.2936 86.8963 95.2967 86.8059 95.2445C86.7134 95.191 86.5496 95.2304 86.4307 95.3345C85.4734 96.1728 83.3479 96.5311 81.7899 96.1165C81.4172 96.0171 81.0567 95.9702 80.9889 96.0121C80.9213 96.054 80.9023 96.0293 80.947 95.957C80.9917 95.8848 80.9476 95.7948 80.8494 95.7569C80.7509 95.7194 80.6431 95.7557 80.6096 95.8376C80.5755 95.9217 80.5446 95.8951 80.5393 95.7766C80.5336 95.6609 80.4236 95.5327 80.2944 95.4918C80.1653 95.4505 79.9014 95.2814 79.7082 95.115C79.515 94.949 79.3205 94.8355 79.2761 94.863C79.2317 94.8905 79.1945 94.8452 79.1936 94.762C79.1926 94.6792 79.0244 94.3581 78.8196 94.0485C78.0008 92.8117 78.038 90.1031 78.8812 89.5565C78.9431 89.5165 79.0872 89.3011 79.2014 89.0779C79.7845 87.9398 81.8406 86.2545 82.5303 86.349C82.771 86.3821 83.2775 86.4452 83.6559 86.4896Z"
            fill="#D90429" />
        <path fill-rule="evenodd" clip-rule="evenodd"
            d="M86.4698 26.8957C76.9718 27.7071 69.8434 35.7409 69.3869 46.1488C69.3281 47.4901 69.245 48.8518 69.2021 49.1745C68.9955 50.7334 70.3784 52.1841 72.0874 52.201C74.175 52.2213 75.7321 50.5389 76.5891 47.3369C78.5545 39.9947 82.2013 36.2315 87.3453 36.2375C93.2117 36.2443 95.9381 42.2734 92.8478 48.4044C91.1782 51.7161 86.3901 56.5154 81.6548 59.6233C80.8638 60.1423 79.9105 60.7701 79.5365 61.0181C77.1293 62.6145 76.6366 63.9755 77.0818 67.7991C78.576 80.636 78.6726 81.1194 80.0502 82.6139C81.1739 83.8327 82.5212 84.0794 84.1251 83.3593C86.7321 82.1893 87.4597 79.3838 86.5104 74.1602C85.2407 67.1741 86.195 65.7533 95.537 60.7204C102.42 57.0119 105.686 52.4924 106.29 45.838C107.162 36.2396 100.35 28.202 90.288 26.9567C88.6256 26.751 88.2351 26.7447 86.4698 26.8957ZM91.1785 29.01C101.017 30.708 106.731 40.1404 103.594 49.5053C102.121 53.9044 99.3339 56.6858 93.4371 59.6439C92.7843 59.9713 92.4326 60.2158 92.4873 60.3043C92.5407 60.3909 92.5176 60.41 92.4273 60.3543C92.113 60.1598 88.8054 62.1928 87.3115 63.4984C84.1921 66.2245 83.5871 69.0078 84.777 75.1604C85.4161 78.4652 85.166 80.1139 83.8503 81.2692C82.0656 82.8359 80.5517 81.4111 80.2203 77.8527C80.0965 76.5242 79.2952 70.1247 79.0925 68.8481C78.425 64.6365 78.6239 64.009 81.1545 62.3428C90.9215 55.9117 95.9428 49.5528 95.9666 43.585C96.0113 32.4227 82.423 30.7828 76.7976 41.2713C76.0841 42.6014 75.6148 43.8483 74.9492 46.1801C74.3179 48.3931 74.0962 48.919 73.5187 49.5769C72.5438 50.6871 70.6413 50.31 71.1434 49.1066C71.2544 48.8402 71.2988 48.2224 71.2804 47.1987C71.0734 35.6593 80.3857 27.1471 91.1785 29.01ZM99.6641 38.5199C99.3124 38.8716 99.3527 39.4057 99.7864 40.141C101.375 42.8352 101.408 44.3432 99.9577 48.0689C99.4803 49.2961 99.5378 49.6766 100.228 49.8498C101.063 50.0593 101.321 49.7782 102.031 47.8897C103.228 44.7034 103.198 42.8102 101.907 40.1457C100.991 38.2522 100.377 37.8073 99.6641 38.5199ZM99.0388 51.1164C98.0564 51.471 98.2578 52.9439 99.2889 52.9439C100.358 52.9439 100.518 51.3903 99.4765 51.1148C99.339 51.0783 99.142 51.0792 99.0388 51.1164ZM81.5241 86.7805C76.3708 90.2191 77.7991 96.4383 83.6755 96.1478C87.7939 95.9443 90.0157 91.2256 87.395 88.2481C86.1734 86.8602 82.7041 85.9929 81.5241 86.7805ZM84.8633 88.7915C88.5052 90.4026 85.8113 95.4453 82.0231 94.1086C79.746 93.3054 79.5615 91.401 81.5607 89.3318L82.4677 88.3929L83.3641 88.4588C83.8719 88.4964 84.5219 88.6405 84.8633 88.7915ZM24 130.067V135.07H86.5323H149.065V130.067V125.065H86.5323H24V130.067ZM51.4892 128.466C51.719 128.696 51.6677 129.252 51.3942 129.5C50.8298 130.011 50.0285 129.257 50.4509 128.612C50.6632 128.288 51.231 128.208 51.4892 128.466ZM50.67 128.524C50.4506 128.613 50.4749 129.254 50.7051 129.445C50.9877 129.68 51.5142 129.411 51.5142 129.032C51.5142 128.551 51.1484 128.331 50.67 128.524ZM28.5605 129.999C28.8331 130.787 29.0732 131.414 29.0942 131.393C29.1148 131.372 29.3512 130.752 29.6188 130.014C30.121 128.631 30.2004 128.472 30.328 128.599C30.3689 128.641 30.1572 129.367 29.8574 130.215C29.1439 132.231 29.0229 132.25 28.3785 130.442C27.7107 128.569 27.71 128.566 27.8998 128.566C27.9977 128.566 28.266 129.149 28.5605 129.999ZM35.1308 128.942C35.1308 129.192 35.1933 129.317 35.3184 129.317C35.4215 129.317 35.5059 129.373 35.5059 129.442C35.5059 129.511 35.4215 129.567 35.3184 129.567C35.1683 129.567 35.1308 129.755 35.1308 130.509C35.1308 131.231 35.1745 131.468 35.3184 131.523C35.5575 131.615 35.5625 131.818 35.3255 131.818C34.9091 131.818 34.7556 131.305 34.7556 129.914C34.7556 128.8 34.7881 128.566 34.9432 128.566C35.0682 128.566 35.1308 128.692 35.1308 128.942ZM41.5109 128.755C41.7479 128.878 41.8505 129.009 41.8039 129.13C41.7154 129.361 41.7076 129.361 41.2392 129.119C40.7602 128.871 40.2584 128.975 40.2584 129.322C40.2584 129.479 40.3869 129.623 40.6023 129.708C41.5625 130.087 41.7748 130.215 41.9024 130.495C42.3138 131.398 41.2095 132.086 39.9085 131.738C39.5502 131.642 39.589 131.236 39.9504 131.297C41.5087 131.56 42.1209 130.801 40.7343 130.325C39.962 130.06 39.7581 129.861 39.7581 129.371C39.7581 128.641 40.6708 128.321 41.5109 128.755ZM42.7597 128.942C42.7597 129.258 42.8085 129.317 43.0724 129.317C43.2668 129.317 43.385 129.388 43.385 129.504C43.385 129.621 43.2668 129.692 43.0724 129.692C42.4849 129.692 42.6687 131.267 43.28 131.47C43.4935 131.542 43.2881 131.818 43.0217 131.818C42.5002 131.818 42.3245 131.371 42.2798 129.929C42.2388 128.617 42.2469 128.566 42.4986 128.566C42.7053 128.566 42.7597 128.645 42.7597 128.942ZM48.7628 129.341V130.116L49.1752 129.716C49.455 129.445 49.7061 129.318 49.9569 129.322L50.3261 129.327L49.7749 129.811L49.224 130.295L49.6564 130.9C50.317 131.824 50.3149 131.818 49.9697 131.818C49.7402 131.818 49.5704 131.674 49.3059 131.256C48.8597 130.549 48.7628 130.549 48.7628 131.255C48.7628 131.735 48.7256 131.818 48.5127 131.818C48.2754 131.818 48.2625 131.735 48.2625 130.192C48.2625 128.65 48.2754 128.566 48.5127 128.566C48.7359 128.566 48.7628 128.65 48.7628 129.341ZM51.2278 128.931C51.2091 129.19 51.16 129.261 51.0574 129.176C50.9624 129.097 50.8911 129.111 50.8483 129.218C50.8126 129.307 50.7792 129.196 50.7738 128.973C50.7657 128.649 50.8139 128.566 51.009 128.566C51.2022 128.566 51.2485 128.643 51.2278 128.931ZM31.749 129.439C31.9685 129.557 32.2543 130.17 32.2543 130.524C32.2543 130.649 32.0307 130.693 31.3788 130.693C30.4186 130.693 30.2732 130.838 30.7535 131.318C31.0293 131.594 31.5079 131.641 31.8985 131.433C32.1129 131.318 32.1448 131.332 32.1079 131.526C32.0329 131.921 30.9639 131.915 30.5671 131.518C29.6426 130.594 30.6375 128.844 31.749 129.439ZM34.3463 129.525C34.3794 129.626 34.2434 129.65 33.9014 129.604C33.2266 129.514 32.8796 129.856 32.8796 130.611C32.8796 131.346 33.1857 131.627 33.8842 131.533C34.2403 131.485 34.3794 131.509 34.346 131.61C34.3197 131.69 34.0427 131.772 33.7303 131.793C32.6088 131.867 32.0567 130.496 32.8774 129.675C33.2685 129.284 34.2344 129.185 34.3463 129.525ZM37.6833 129.702C38.3796 130.529 37.9209 131.804 36.9232 131.814C36.165 131.822 35.7561 131.384 35.7561 130.566C35.7561 129.405 36.9742 128.859 37.6833 129.702ZM38.6326 129.446C38.6326 129.536 38.7076 129.536 38.8746 129.446C39.4467 129.14 39.5718 129.396 39.0068 129.717C38.6429 129.925 38.6326 129.957 38.6326 130.874C38.6326 131.42 38.5797 131.818 38.5075 131.818C38.4325 131.818 38.3824 131.318 38.3824 130.567C38.3824 129.817 38.4325 129.317 38.5075 129.317C38.5763 129.317 38.6326 129.375 38.6326 129.446ZM45.3485 129.505C45.7512 129.787 45.9385 130.468 45.7612 131.005C45.3182 132.348 43.587 132 43.587 130.567C43.587 129.524 44.5481 128.944 45.3485 129.505ZM47.8677 129.616C47.9061 129.818 47.8576 129.842 47.5431 129.78C46.9822 129.667 46.6367 129.969 46.6367 130.572C46.6367 131.169 47.0319 131.505 47.5738 131.369C47.8598 131.298 47.9052 131.321 47.8673 131.52C47.792 131.916 46.8474 131.915 46.4507 131.518C45.6543 130.722 46.2193 129.263 47.2936 129.341C47.696 129.37 47.8336 129.436 47.8677 129.616ZM30.9286 129.663C30.7923 129.754 30.5034 130.235 30.5034 130.372C30.5034 130.411 30.8129 130.442 31.1912 130.442C31.7872 130.442 31.8791 130.41 31.8791 130.201C31.8791 129.737 31.305 129.411 30.9286 129.663ZM36.3098 129.827C35.7783 130.415 36.1569 131.568 36.8817 131.568C37.3519 131.568 37.689 131.151 37.689 130.567C37.689 129.984 37.3519 129.567 36.8817 129.567C36.6966 129.567 36.4392 129.684 36.3098 129.827ZM44.3186 129.867C43.9844 130.112 43.9844 131.023 44.3186 131.268C44.842 131.65 45.3179 131.317 45.3179 130.567C45.3179 130.054 45.0618 129.692 44.6982 129.692C44.6213 129.692 44.4506 129.771 44.3186 129.867ZM116.423 130.505C116.509 130.814 116.622 131.068 116.673 131.068C116.724 131.068 116.836 130.814 116.923 130.505C117.016 130.172 117.154 129.942 117.26 129.942C117.456 129.942 117.445 129.998 117.061 131.005C116.708 131.933 116.491 131.764 115.976 130.161C115.931 130.022 115.971 129.942 116.085 129.942C116.192 129.942 116.33 130.172 116.423 130.505ZM124.489 130.125C124.489 130.192 124.326 130.248 124.125 130.25C123.605 130.257 123.599 130.484 124.112 130.729C124.811 131.062 124.616 131.761 123.85 131.671C123.353 131.612 123.32 131.338 123.813 131.361C124.367 131.388 124.394 131.158 123.866 130.906C123.409 130.688 123.299 130.37 123.582 130.087C123.759 129.91 124.489 129.941 124.489 130.125ZM128.554 130.38C128.554 130.827 128.72 130.967 128.85 130.63C128.889 130.527 129.016 130.442 129.132 130.442C129.326 130.442 129.325 130.463 129.12 130.689C128.908 130.923 128.908 130.954 129.11 131.263C129.418 131.732 129.214 131.826 128.856 131.38L128.555 131.005L128.555 131.349C128.554 131.538 128.498 131.693 128.429 131.693C128.357 131.693 128.304 131.318 128.304 130.818C128.304 130.317 128.357 129.942 128.429 129.942C128.498 129.942 128.554 130.139 128.554 130.38ZM135.808 130.027C135.808 130.265 135.244 131.818 135.158 131.818C135.011 131.818 135.031 131.682 135.313 130.768C135.521 130.092 135.808 129.664 135.808 130.027ZM137.184 129.988C137.184 130.177 136.404 131.693 136.307 131.693C136.136 131.693 136.142 131.667 136.489 130.884L136.795 130.192H136.434C136.235 130.192 136.038 130.136 135.995 130.067C135.948 129.99 136.161 129.942 136.551 129.942C136.899 129.942 137.184 129.962 137.184 129.988ZM138.309 130.067C138.309 130.136 138.168 130.192 137.996 130.192C137.824 130.192 137.684 130.249 137.684 130.317C137.684 130.386 137.785 130.442 137.909 130.442C138.399 130.442 138.644 131.238 138.254 131.562C138.032 131.746 137.409 131.687 137.34 131.475C137.303 131.365 137.395 131.341 137.656 131.394C137.924 131.447 138.044 131.413 138.1 131.267C138.243 130.894 138.053 130.663 137.666 130.74C137.289 130.815 137.249 130.741 137.387 130.224C137.466 129.932 138.309 129.788 138.309 130.067ZM139.685 130.067C139.685 130.136 139.544 130.192 139.372 130.192C139.2 130.192 139.059 130.249 139.059 130.317C139.059 130.386 139.161 130.442 139.285 130.442C139.774 130.442 140.02 131.238 139.63 131.562C139.401 131.752 138.784 131.684 138.71 131.461C138.668 131.333 138.745 131.311 139.029 131.374C139.306 131.435 139.422 131.405 139.478 131.262C139.619 130.893 139.426 130.663 139.041 130.74C138.664 130.815 138.624 130.741 138.763 130.224C138.842 129.932 139.685 129.788 139.685 130.067ZM141.056 130.184C141.386 130.8 141.051 131.693 140.491 131.693C140.112 131.693 140.085 131.475 140.457 131.42C140.798 131.37 140.917 131.068 140.596 131.068C140.285 131.068 140.06 130.831 140.06 130.505C140.06 129.956 140.805 129.715 141.056 130.184ZM142.561 130.067C142.561 130.136 142.46 130.192 142.336 130.192C142.106 130.192 141.811 130.415 141.811 130.588C141.811 130.642 141.891 130.654 141.989 130.617C142.273 130.507 142.686 130.799 142.686 131.11C142.686 131.664 142.038 131.902 141.632 131.496C141.353 131.217 141.383 130.496 141.686 130.192C141.944 129.934 142.561 129.846 142.561 130.067ZM143.933 130.184C144.281 130.834 143.998 131.693 143.437 131.693C143.014 131.693 142.811 131.409 142.811 130.818C142.811 130.226 143.014 129.942 143.437 129.942C143.671 129.942 143.85 130.029 143.933 130.184ZM145.308 130.184C145.638 130.8 145.303 131.693 144.743 131.693C144.364 131.693 144.337 131.475 144.709 131.42C145.05 131.37 145.169 131.068 144.848 131.068C144.538 131.068 144.312 130.831 144.312 130.505C144.312 129.956 145.058 129.715 145.308 130.184ZM120.652 130.401C120.803 130.553 120.818 130.624 120.705 130.662C120.474 130.739 120.517 131.327 120.769 131.527C120.97 131.686 120.962 131.697 120.675 131.666C120.406 131.636 120.351 131.551 120.286 131.068C120.172 130.229 120.281 130.03 120.652 130.401ZM125.154 130.401C125.306 130.553 125.32 130.624 125.207 130.662C124.988 130.735 125.014 131.311 125.24 131.398C125.531 131.51 125.461 131.715 125.146 131.671C124.916 131.638 124.851 131.528 124.788 131.068C124.674 130.229 124.783 130.03 125.154 130.401ZM140.358 130.374C140.27 130.603 140.398 130.818 140.623 130.818C140.88 130.818 140.978 130.582 140.806 130.374C140.613 130.143 140.446 130.142 140.358 130.374ZM143.212 130.342C142.932 130.622 143.065 131.443 143.39 131.443C143.682 131.443 143.877 130.871 143.71 130.505C143.551 130.158 143.435 130.119 143.212 130.342ZM144.61 130.374C144.522 130.603 144.65 130.818 144.875 130.818C145.105 130.818 145.206 130.636 145.112 130.391C145.017 130.142 144.703 130.132 144.61 130.374ZM118.524 130.593C118.806 130.875 118.691 131.068 118.24 131.068C117.899 131.068 117.822 131.109 117.881 131.262C117.926 131.379 118.072 131.441 118.247 131.419C118.406 131.398 118.542 131.437 118.547 131.505C118.561 131.691 117.936 131.734 117.728 131.562C117.321 131.223 117.588 130.442 118.111 130.442C118.256 130.442 118.441 130.51 118.524 130.593ZM119.95 130.63C119.93 130.699 119.78 130.738 119.618 130.716C119.265 130.67 119.128 130.849 119.241 131.207C119.309 131.421 119.393 131.455 119.697 131.395C119.963 131.342 120.055 131.365 120.019 131.475C119.949 131.687 119.326 131.746 119.104 131.562C118.883 131.378 118.868 130.798 119.08 130.587C119.26 130.407 120.005 130.444 119.95 130.63ZM122.17 130.623C122.598 131.139 121.892 131.968 121.325 131.613C120.807 131.289 121.061 130.442 121.675 130.442C121.865 130.442 122.087 130.523 122.17 130.623ZM123.066 130.705C122.911 130.85 122.801 131.107 122.801 131.323C122.801 131.526 122.745 131.693 122.676 131.693C122.289 131.693 122.552 130.481 122.941 130.469L123.331 130.458L123.066 130.705ZM126.701 130.755C126.914 131.223 126.665 131.693 126.206 131.693C125.766 131.693 125.552 131.489 125.552 131.068C125.552 130.399 126.43 130.16 126.701 130.755ZM128.079 130.63C128.059 130.699 127.911 130.738 127.751 130.717C127.434 130.675 127.261 130.937 127.388 131.267C127.444 131.413 127.563 131.447 127.832 131.394C128.093 131.341 128.184 131.365 128.148 131.475C128.078 131.687 127.455 131.746 127.233 131.562C127.012 131.378 126.998 130.798 127.209 130.587C127.389 130.407 128.134 130.444 128.079 130.63ZM131.206 130.63C131.185 130.699 131.038 130.738 130.878 130.717C130.561 130.675 130.388 130.937 130.514 131.267C130.57 131.413 130.69 131.447 130.958 131.394C131.219 131.341 131.311 131.365 131.275 131.475C131.205 131.687 130.582 131.746 130.36 131.562C130.139 131.378 130.124 130.798 130.336 130.587C130.516 130.407 131.261 130.444 131.206 130.63ZM132.601 130.717C132.956 131.284 132.127 131.99 131.611 131.562C131.389 131.378 131.375 130.798 131.586 130.587C131.799 130.375 132.438 130.457 132.601 130.717ZM134.783 131.099C134.828 131.799 134.591 131.918 134.533 131.224C134.507 130.908 134.434 130.755 134.307 130.755C134.18 130.755 134.107 130.908 134.081 131.224C134.031 131.819 133.807 131.841 133.807 131.251C133.807 130.962 133.738 130.783 133.607 130.733C133.36 130.638 133.186 130.892 133.183 131.349C133.182 131.538 133.125 131.693 133.056 131.693C132.988 131.693 132.931 131.418 132.931 131.082V130.472L133.838 130.488L134.745 130.505L134.783 131.099ZM121.38 130.88C121.273 131.159 121.422 131.443 121.675 131.443C121.798 131.443 121.931 131.359 121.971 131.255C122.078 130.976 121.929 130.693 121.675 130.693C121.553 130.693 121.42 130.777 121.38 130.88ZM125.848 130.88C125.738 131.166 125.892 131.443 126.161 131.443C126.429 131.443 126.583 131.166 126.473 130.88C126.434 130.777 126.293 130.693 126.161 130.693C126.028 130.693 125.887 130.777 125.848 130.88ZM131.76 130.88C131.653 131.159 131.802 131.443 132.056 131.443C132.179 131.443 132.312 131.359 132.351 131.255C132.458 130.976 132.309 130.693 132.056 130.693C131.933 130.693 131.8 130.777 131.76 130.88ZM141.819 130.935C141.609 131.068 141.84 131.443 142.131 131.443C142.382 131.443 142.476 131.204 142.306 131C142.131 130.789 142.064 130.78 141.819 130.935Z"
            fill="white" />
    </g>
    <defs>
        <clipPath id="clip0_8_401">
            <rect width="140" height="121" fill="white" />
        </clipPath>
    </defs>
</svg>