<svg width="44" height="50" viewBox="0 0 44 50" fill="none" xmlns="http://www.w3.org/2000/svg">
    <path
        d="M42.696 33.896C43.4213 33.896 43.784 34.8773 43.784 36.84C43.784 37.9067 43.336 39.208 42.44 40.744C41.544 42.2373 40.3707 43.624 38.92 44.904C37.512 46.1413 35.9333 47.1653 34.184 47.976C32.4347 48.7867 30.7707 49.192 29.192 49.192C27.6133 49.192 26.376 48.8933 25.48 48.296C24.584 47.6987 23.88 46.888 23.368 45.864C22.6427 44.4133 22.0453 41.6613 21.576 37.608C21.1067 33.512 20.6373 30.6533 20.168 29.032C19.0587 28.8187 18.0773 28.392 17.224 27.752C16.4133 27.0693 16.008 26.2587 16.008 25.32C16.008 24.3387 16.4347 23.6347 17.288 23.208C18.184 22.7813 19.1867 22.568 20.296 22.568C21.448 22.568 22.472 22.8453 23.368 23.4C24.5627 22.4187 25.5227 21.2667 26.248 19.944C27.016 18.5787 27.4 16.7653 27.4 14.504C27.4 12.2 26.632 10.3653 25.096 9C23.56 7.63467 21.2987 6.952 18.312 6.952C15.368 6.952 13.1067 7.18667 11.528 7.656C9.94933 8.12533 8.584 8.63733 7.432 9.192C6.32267 9.74666 5.32 10.2587 4.424 10.728C3.57067 11.1973 2.76 11.432 1.992 11.432C1.224 11.432 0.84 11.1973 0.84 10.728C0.84 10.216 1.24533 9.40533 2.056 8.296C2.86667 7.18666 4.06133 6.07733 5.64 4.968C9.608 2.19467 14.088 0.829332 19.08 0.871998C24.072 0.871998 28.1893 1.81067 31.432 3.688C35.2293 5.90667 37.128 9.23466 37.128 13.672C37.1707 17.3413 36.2107 20.392 34.248 22.824C32.2853 25.256 29.8533 27.0053 26.952 28.072C27.592 29.48 28.104 30.9947 28.488 32.616C28.9147 34.2373 29.32 35.7307 29.704 37.096C30.088 38.4613 30.5147 39.592 30.984 40.488C31.496 41.384 32.0933 41.832 32.776 41.832C33.5013 41.832 34.3547 41.4267 35.336 40.616C36.36 39.7627 37.3627 38.8453 38.344 37.864C39.3253 36.8827 40.2 35.9867 40.968 35.176C41.7787 34.3227 42.3547 33.896 42.696 33.896ZM14.856 10.856C15.4107 10.856 15.688 11.5813 15.688 13.032C15.688 14.4827 15.6027 15.848 15.432 17.128C15.048 19.6027 14.5573 21.9067 13.96 24.04C12.424 29.8427 11.656 33.2347 11.656 34.216V43.624C11.656 45.928 10.7813 47.5067 9.032 48.36C8.22133 48.744 7.432 49.1067 6.664 49.448C5.93867 49.7893 5.10667 49.96 4.168 49.96C2.376 49.96 1.48 47.912 1.48 43.816C1.48 39.6773 2.44 34.472 4.36 28.2C6.28 21.928 8.28533 17.1493 10.376 13.864C10.8027 13.224 11.4213 12.5627 12.232 11.88C13.0427 11.1973 13.9173 10.856 14.856 10.856Z"
        fill="#D90429" />
</svg>