<svg width="113" height="103" viewBox="0 0 113 103" fill="none" xmlns="http://www.w3.org/2000/svg">
    <g clip-path="url(#clip0_4_3)">
        <path fill-rule="evenodd" clip-rule="evenodd"
            d="M15.1635 23.8265C14.4153 24.1713 14.2588 24.302 14.3203 24.5304C14.3784 24.7468 18.4431 33.9297 18.5314 34.0445C18.5533 34.0729 20.933 33.0383 20.9919 32.9746C21.0121 32.9527 20.0518 30.76 18.8579 28.1019C16.4008 22.6318 16.787 23.0786 15.1635 23.8265ZM52.4892 17.7052C52.1856 18.074 52.1646 18.3301 52.2257 20.9182C52.294 23.8252 52.2105 24.3817 51.6678 24.6242C50.9554 24.9428 50.6122 24.7429 48.5575 22.8111C45.5641 19.997 45.7099 19.9964 43.0457 22.8415L41.5379 24.452L38.6884 24.9986C26.3822 27.3594 17.7813 38.4741 18.9287 50.5341L19.0404 51.7091L18.5696 51.7908C17.7592 51.9314 17.5952 52.4039 17.504 54.8631C17.459 56.0797 17.4255 57.0951 17.4297 57.1193C17.4339 57.1434 16.5274 56.7404 15.4151 56.2236C12.5005 54.8693 12.6826 54.8028 10.3869 58.0626C8.1039 61.304 8.10784 61.1218 10.2742 63.3737C11.0947 64.2266 11.7397 64.9622 11.7072 65.0083C11.6748 65.0544 10.7638 65.4455 9.68293 65.8777C6.89414 66.9925 7.02924 66.6744 7.70055 70.5432C8.37199 74.4128 8.13744 74.1588 11.1467 74.2738C12.3126 74.3183 13.3065 74.383 13.3553 74.4175C13.4043 74.452 13.0416 75.357 12.5496 76.4288C11.2479 79.2641 11.186 79.1016 14.4346 81.3894C17.6829 83.6773 17.509 83.6739 19.74 81.493C20.5834 80.6685 21.3164 80.0241 21.3687 80.061C21.421 80.098 21.8171 81.0134 22.2486 82.0953C22.874 83.6627 23.1213 84.1247 23.4653 84.369L23.8972 84.6756L26.928 84.1497L29.9589 83.6238L30.2622 83.1896C30.504 82.8437 30.5809 82.3255 30.6417 80.639C30.6836 79.4749 30.7465 78.4818 30.7814 78.4322C30.8164 78.3823 31.7242 78.742 32.7985 79.2314C35.4023 80.417 35.5731 80.3938 36.8194 78.681L37.7198 77.4433L38.1914 79.8547C38.7636 82.7798 39.3252 83.7113 40.9789 84.4782L41.6131 84.7722L42.3028 88.7472C43.1286 93.5075 43.2766 93.8635 44.9036 95.0092C46.501 96.1343 46.9697 96.1649 51.2456 95.4229C55.385 94.7047 55.9208 94.4853 56.9888 93.0715C58.2317 91.4262 58.2996 90.3491 57.4641 85.5252L56.8926 82.2244L57.6108 81.2259C58.7791 79.6018 58.8199 79.1133 58.1654 74.6082C57.4477 69.6682 57.5871 69.0051 59.8399 66.6438C61.7076 64.6864 62.2884 64.0014 62.208 63.8519C62.099 63.6494 60.3968 62.262 60.269 62.2717C59.5641 62.324 55.9206 66.9499 55.4447 68.3967C54.8059 70.3384 54.8055 70.4396 55.4171 74.5509C56.0455 78.7775 56.0375 78.9486 55.1644 79.891L54.6923 80.4006L49.057 81.4207C41.1136 82.8586 41.5956 83.0725 40.5036 77.624C39.3477 71.8562 38.4804 70.5761 34.3769 68.5809C18.9843 61.0963 16.8038 41.3958 30.264 31.4224C33.3277 29.1523 38.9089 27.0575 39.2273 28.0581C39.2905 28.2569 40.2294 29.2618 41.3139 30.291C43.5315 32.3955 43.6608 32.5768 43.4425 33.2698C43.2209 33.9723 42.8303 34.0813 40.2502 34.1605C35.7443 34.2992 36.0179 33.9497 36.1696 39.3728C36.3051 44.2193 36.263 43.8731 36.7685 44.2893C37.1451 44.5991 37.3815 44.6184 39.9814 44.552C43.0547 44.4734 43.3506 44.5177 43.7289 45.1152C44.1318 45.7516 43.907 46.1337 41.7968 48.3971C39.0579 51.3351 38.9788 50.9471 43.1057 54.8234C47.0131 58.4935 46.6383 58.4559 49.4676 55.4601C52.6368 52.1042 53.1748 52.3201 53.3237 57.0077C53.4535 61.092 52.9907 60.7892 58.8281 60.6091C64.192 60.4437 63.8098 60.7529 63.6876 56.6765C63.5922 53.4939 63.671 53.1995 64.6645 53.0271L65.3152 52.9142L67.3772 54.846C70.44 57.7153 70.0842 57.7762 73.9028 53.7291C77.6629 49.7439 77.6307 50.2034 74.3659 47.116C72.3622 45.2209 72.189 44.936 72.5896 44.1932C72.8914 43.6341 73.1753 43.5791 76.345 43.467C80.0842 43.3345 79.9133 43.5781 79.7703 38.5839C79.6323 33.7573 79.4136 32.8382 78.4433 33.0066C77.7142 33.1329 72.9614 33.1372 72.671 33.0116C71.5248 32.5159 71.8115 31.7267 73.9837 29.3983C76.8514 26.3241 76.9177 26.7188 72.8982 22.9435C68.9043 19.1925 69.276 19.2306 66.3884 22.2774C64.3092 24.471 63.9739 24.6669 63.2141 24.1319C62.6877 23.7612 62.6776 23.7018 62.5903 20.511C62.4858 16.6918 62.7446 16.8719 57.5765 17.0239C53.103 17.1556 52.9214 17.1799 52.4892 17.7052ZM57.7839 19.7423L59.8112 19.666L59.8585 20.4272C59.8846 20.8457 59.9343 21.854 59.9692 22.6675C60.1 25.7334 61.6751 27.3138 64.3147 27.0285C65.6631 26.8826 66.1732 26.5456 68.0207 24.5799C68.7022 23.855 69.2852 23.2842 69.3164 23.3116C70.1298 24.0268 72.7198 26.5415 72.7308 26.6267C72.7394 26.6916 72.2681 27.2399 71.6836 27.845C69.4338 30.1745 69.1264 30.8205 69.4255 32.5901C69.8658 35.195 71.1958 35.9667 75.0209 35.8365C76.0224 35.8027 76.8695 35.7899 76.9032 35.8083C76.963 35.8409 77.1418 40.5938 77.0869 40.6864C77.0716 40.7119 76.3533 40.7488 75.4909 40.7686C71.0059 40.8704 69.2776 42.2869 69.8193 45.4166C70.0601 46.8077 70.1303 46.9119 72.066 48.7488C72.8235 49.4675 73.4479 50.0818 73.4534 50.1139C73.4699 50.2085 70.315 53.5057 70.1729 53.5427C70.1013 53.5611 69.3375 52.9204 68.4757 52.1184C66.5741 50.3499 65.7448 49.9944 64.1561 50.2673C61.7007 50.6893 60.8606 52.0853 60.9482 55.5976C60.9783 56.8 60.9963 57.7978 60.9885 57.8151C60.963 57.8715 56.2001 57.9841 56.132 57.9299C56.0955 57.9008 56.0412 56.9885 56.0112 55.9023C55.9177 52.5227 55.0967 51.1477 52.8695 50.6405C51.2313 50.2673 50.0646 50.8202 48.0679 52.9161L46.673 54.3804L44.9678 52.7786C42.9111 50.8464 42.9694 51.1734 44.4074 49.6363C46.5514 47.3447 46.8375 46.725 46.5324 45.0308C46.0827 42.5334 44.6726 41.6998 41.1082 41.8242C38.8048 41.9044 38.9858 42.109 38.8925 39.3229C38.8026 36.6429 38.5758 36.9371 40.7846 36.8705C44.1343 36.7695 45.4419 36.0585 46.1235 33.9673C46.6652 32.3058 46.0411 30.9589 43.7306 28.8029L42.3753 27.5382L44.0634 25.752L45.7517 23.966L46.0917 24.2952C48.9737 27.0868 49.7767 27.5682 51.3373 27.4408C53.9165 27.2305 55.0686 25.6301 54.9788 22.3823C54.903 19.6408 54.8801 19.8025 55.3456 19.8112C55.5716 19.8154 56.6688 19.7844 57.7839 19.7423ZM5.3681 33.3331C5.04374 33.9927 4.84844 34.5629 4.93389 34.6004C5.01952 34.6379 7.26513 35.7163 9.92427 36.9969C12.5836 38.2774 14.7964 39.3187 14.8415 39.3109C14.9303 39.2955 15.943 37.1892 15.9622 36.98C15.9729 36.8629 6.56482 32.2535 6.14665 32.1709C6.0429 32.1506 5.69246 32.6735 5.3681 33.3331ZM54.9469 28.9996C48.1996 31.0072 45.5187 39.1807 49.72 44.9355C54.6964 51.7517 65.5894 49.7797 67.8541 41.6529C70.0402 33.8084 62.7627 26.6741 54.9469 28.9996ZM30.3016 36.2971C24.1381 42.7451 23.5241 52.3725 28.8162 59.5915C31.273 62.9432 34.3739 64.9782 39.0689 66.3209C42.9927 67.443 45.3955 69.625 45.8983 72.5231L45.9782 72.9834L47.3322 72.7484L48.6863 72.5135L48.4106 71.5309C47.2911 67.5412 44.4913 64.9256 40.1061 63.7728C28.2175 60.6475 23.9007 47.0314 32.0709 38.4284C32.5557 37.9178 32.9464 37.4647 32.9389 37.4217C32.9249 37.3409 31.214 35.3997 31.1674 35.4119C31.153 35.4155 30.7634 35.8139 30.3016 36.2971ZM59.0218 31.3646C63.5606 31.9974 66.4958 36.5546 65.1804 40.9268C63.6528 46.003 57.8571 47.9742 53.5426 44.8847C47.2053 40.3468 51.2827 30.2854 59.0218 31.3646ZM9.84093 45.4928C7.19006 46.6649 5.01165 47.6324 4.99998 47.6428C4.84232 47.7858 6.07795 50.1361 6.26263 50.0441C6.3876 49.9818 8.56174 49.0145 11.0941 47.8948C13.6267 46.775 15.72 45.8284 15.7464 45.7912C15.8009 45.7136 14.96 43.7248 14.78 43.5063C14.7005 43.4097 13.0583 44.0702 9.84093 45.4928ZM21.2159 59.2922C21.7103 60.2949 21.7262 60.4013 21.3912 60.4594C18.2585 61.003 15.7143 65.6587 16.5325 69.3505C18.1412 76.6085 28.117 77.6841 31.0832 70.9192L31.4007 70.1951L32.802 70.8663C34.6379 71.7458 35.5438 72.3795 36.2132 73.2523L36.7605 73.9664L35.7238 75.4465C34.4967 77.1988 34.7268 77.1153 33.155 76.3766C29.6719 74.74 28.0672 75.5626 27.9589 79.0405C27.8795 81.5926 28.0633 81.2816 26.472 81.5577C25.2835 81.7639 25.0736 81.763 24.9704 81.5512C24.9045 81.4157 24.5975 80.6724 24.2881 79.8992C22.8925 76.4109 21.2515 76.1384 18.433 78.9271C17.2045 80.1423 17.4345 80.1221 16.0265 79.1387C14.6154 78.1529 14.6656 78.3511 15.4218 76.7537C17.0695 73.2727 16.2376 71.7585 12.593 71.6049C11.8026 71.5716 11.0001 71.5362 10.8094 71.5263C10.335 71.5016 9.79686 68.8054 10.2254 68.6007C10.3611 68.5359 11.1731 68.2075 12.0297 67.8711C15.3072 66.5836 15.573 64.8131 12.8929 62.1202C11.6291 60.8502 11.6513 61.0663 12.6376 59.6545C13.6272 58.2379 13.3268 58.2916 15.2815 59.1817C18.1142 60.4716 20.4103 59.4554 20.1772 57.015C20.1651 56.8868 20.3055 57.1678 20.4895 57.6395C20.6734 58.1113 21.0003 58.855 21.2159 59.2922ZM23.8547 63.6027C24.8018 64.9019 25.9958 66.1542 27.5398 67.4675L28.9258 68.6466L28.7699 69.2525C28.2818 71.1495 26.0142 72.775 23.9777 72.6878C18.7904 72.4659 17.2207 65.5599 21.825 63.2183C23.0225 62.6092 23.1478 62.633 23.8547 63.6027ZM70.2941 63.5743L70.5255 64.9081L74.9707 64.1367L79.4161 63.3654L79.1847 62.0317L78.9533 60.6981L74.5079 61.4695L70.0627 62.2408L70.2941 63.5743ZM70.076 70.1102C69.7318 70.7195 69.4781 71.236 69.512 71.258C69.546 71.2803 71.5187 72.4187 73.8959 73.7883L78.2183 76.278L78.7927 75.3591C79.1084 74.8536 79.412 74.3142 79.4672 74.1603C79.566 73.884 71.2834 68.8941 70.8576 68.9737C70.7719 68.9895 70.4201 69.5011 70.076 70.1102ZM46.7495 77.4286L47.0838 79.355L48.4173 79.1236L49.7511 78.8922L49.4168 76.9658L49.0826 75.0395L47.7488 75.2709L46.4153 75.5023L46.7495 77.4286ZM65.0254 78.0735L65.7967 82.5187L67.1303 82.2873L68.4638 82.0559L67.6925 77.6107L66.9211 73.1653L65.5876 73.3967L64.254 73.6281L65.0254 78.0735ZM54.5353 84.4727L54.741 85.6582L49.7771 86.5195L44.8131 87.3808L44.6074 86.1954L44.4017 85.01L49.3657 84.1487L54.3296 83.2873L54.5353 84.4727ZM55.2953 88.8525C55.7395 91.4124 55.04 92.0158 50.7675 92.7579C46.6335 93.4758 45.8241 93.2072 45.4392 90.9892L45.2759 90.0481L50.2399 89.1868L55.2038 88.3254L55.2953 88.8525Z"
            fill="#2B2B2B" />
    </g>
    <g clip-path="url(#clip1_4_3)">
        <path fill-rule="evenodd" clip-rule="evenodd"
            d="M38.1635 10.8265C37.4152 11.1713 37.2588 11.302 37.3203 11.5304C37.3784 11.7468 41.4431 20.9297 41.5314 21.0445C41.5533 21.0729 43.933 20.0383 43.9919 19.9746C44.0121 19.9527 43.0518 17.76 41.8579 15.1019C39.4008 9.63182 39.787 10.0786 38.1635 10.8265ZM75.4891 4.70522C75.1856 5.074 75.1646 5.33008 75.2257 7.91818C75.294 10.8252 75.2105 11.3817 74.6678 11.6242C73.9554 11.9428 73.6122 11.7429 71.5575 9.81114C68.5641 6.99704 68.7099 6.99636 66.0457 9.84146L64.5379 11.452L61.6884 11.9986C49.3822 14.3594 40.7813 25.4741 41.9287 37.5341L42.0404 38.7091L41.5696 38.7908C40.7592 38.9314 40.5952 39.4039 40.504 41.8631C40.459 43.0797 40.4255 44.0951 40.4297 44.1193C40.4339 44.1434 39.5274 43.7404 38.4151 43.2236C35.5005 41.8693 35.6826 41.8028 33.3869 45.0626C31.1039 48.304 31.1078 48.1218 33.2742 50.3737C34.0946 51.2266 34.7396 51.9622 34.7072 52.0083C34.6748 52.0544 33.7638 52.4455 32.6829 52.8777C29.8941 53.9925 30.0292 53.6744 30.7005 57.5432C31.372 61.4128 31.1374 61.1588 34.1466 61.2738C35.3126 61.3183 36.3065 61.383 36.3553 61.4175C36.4043 61.452 36.0416 62.357 35.5496 63.4288C34.2479 66.2641 34.186 66.1016 37.4346 68.3894C40.6829 70.6773 40.509 70.6739 42.74 68.493C43.5834 67.6685 44.3164 67.0241 44.3687 67.061C44.421 67.098 44.8171 68.0134 45.2486 69.0953C45.874 70.6627 46.1213 71.1247 46.4653 71.369L46.8971 71.6756L49.928 71.1497L52.9589 70.6238L53.2622 70.1896C53.504 69.8437 53.5809 69.3255 53.6417 67.639C53.6836 66.4749 53.7465 65.4818 53.7814 65.4322C53.8164 65.3823 54.7242 65.742 55.7985 66.2314C58.4023 67.417 58.5731 67.3938 59.8194 65.681L60.7198 64.4433L61.1914 66.8547C61.7636 69.7798 62.3252 70.7113 63.9789 71.4782L64.6131 71.7722L65.3028 75.7472C66.1286 80.5075 66.2766 80.8635 67.9036 82.0092C69.501 83.1343 69.9697 83.1649 74.2456 82.4229C78.385 81.7047 78.9208 81.4853 79.9888 80.0715C81.2317 78.4262 81.2996 77.3491 80.4641 72.5252L79.8926 69.2244L80.6108 68.2259C81.7791 66.6018 81.8199 66.1133 81.1654 61.6082C80.4477 56.6682 80.587 56.0051 82.8399 53.6438C84.7076 51.6864 85.2884 51.0014 85.208 50.8519C85.099 50.6494 83.3968 49.262 83.269 49.2717C82.5641 49.324 78.9206 53.9499 78.4447 55.3967C77.8059 57.3384 77.8055 57.4396 78.4171 61.5509C79.0455 65.7775 79.0375 65.9486 78.1644 66.891L77.6923 67.4006L72.057 68.4207C64.1136 69.8586 64.5956 70.0725 63.5036 64.624C62.3477 58.8562 61.4804 57.5761 57.3769 55.5809C41.9843 48.0963 39.8038 28.3958 53.264 18.4224C56.3277 16.1523 61.9089 14.0575 62.2273 15.0581C62.2905 15.2569 63.2294 16.2618 64.3139 17.291C66.5315 19.3955 66.6608 19.5768 66.4425 20.2698C66.2209 20.9723 65.8303 21.0813 63.2502 21.1605C58.7443 21.2992 59.0179 20.9497 59.1696 26.3728C59.3051 31.2193 59.263 30.8731 59.7685 31.2893C60.1451 31.5991 60.3815 31.6184 62.9814 31.552C66.0547 31.4734 66.3506 31.5177 66.7289 32.1152C67.1318 32.7516 66.907 33.1337 64.7968 35.3971C62.0579 38.3351 61.9788 37.9471 66.1057 41.8234C70.0131 45.4935 69.6383 45.4559 72.4676 42.4601C75.6368 39.1042 76.1748 39.3201 76.3237 44.0077C76.4535 48.092 75.9907 47.7892 81.8281 47.6091C87.192 47.4437 86.8098 47.7529 86.6876 43.6765C86.5922 40.4939 86.671 40.1995 87.6645 40.0271L88.3152 39.9142L90.3772 41.846C93.4399 44.7153 93.0842 44.7762 96.9028 40.7291C100.663 36.7439 100.631 37.2034 97.3659 34.116C95.3622 32.2209 95.189 31.936 95.5896 31.1932C95.8914 30.6341 96.1753 30.5791 99.345 30.467C103.084 30.3345 102.913 30.5781 102.77 25.5839C102.632 20.7573 102.414 19.8382 101.443 20.0066C100.714 20.1329 95.9614 20.1372 95.671 20.0116C94.5248 19.5159 94.8115 18.7267 96.9837 16.3983C99.8514 13.3241 99.9177 13.7188 95.8982 9.94349C91.9043 6.19249 92.276 6.23055 89.3884 9.27737C87.3092 11.471 86.9739 11.6669 86.2141 11.1319C85.6877 10.7612 85.6776 10.7018 85.5903 7.51101C85.4858 3.69175 85.7446 3.87191 80.5765 4.02389C76.103 4.15559 75.9214 4.17987 75.4891 4.70522ZM80.7839 6.74233L82.8112 6.66604L82.8585 7.42723C82.8846 7.84569 82.9343 8.854 82.9692 9.66755C83.1 12.7334 84.6751 14.3138 87.3147 14.0285C88.6631 13.8826 89.1732 13.5456 91.0207 11.5799C91.7022 10.855 92.2852 10.2842 92.3164 10.3116C93.1298 11.0268 95.7198 13.5415 95.7308 13.6267C95.7394 13.6916 95.2681 14.2399 94.6836 14.845C92.4338 17.1745 92.1264 17.8205 92.4255 19.5901C92.8658 22.195 94.1958 22.9667 98.0209 22.8365C99.0224 22.8027 99.8695 22.7899 99.9032 22.8083C99.963 22.8409 100.142 27.5938 100.087 27.6864C100.072 27.7119 99.3533 27.7488 98.4909 27.7686C94.0059 27.8704 92.2776 29.2869 92.8193 32.4166C93.0601 33.8077 93.1303 33.9119 95.066 35.7488C95.8235 36.4675 96.4479 37.0818 96.4534 37.1139C96.4699 37.2085 93.315 40.5057 93.1729 40.5427C93.1013 40.5611 92.3375 39.9204 91.4757 39.1184C89.5741 37.3499 88.7448 36.9944 87.1561 37.2673C84.7007 37.6893 83.8606 39.0853 83.9482 42.5976C83.9783 43.8 83.9963 44.7978 83.9885 44.8151C83.963 44.8715 79.2001 44.9841 79.132 44.9299C79.0955 44.9008 79.0412 43.9885 79.0112 42.9023C78.9177 39.5227 78.0967 38.1477 75.8695 37.6405C74.2313 37.2673 73.0646 37.8202 71.0679 39.9161L69.673 41.3804L67.9678 39.7786C65.9111 37.8464 65.9694 38.1734 67.4073 36.6363C69.5514 34.3447 69.8375 33.725 69.5324 32.0308C69.0827 29.5334 67.6726 28.6998 64.1082 28.8242C61.8048 28.9044 61.9858 29.109 61.8925 26.3229C61.8026 23.6429 61.5758 23.9371 63.7846 23.8705C67.1343 23.7695 68.4419 23.0585 69.1235 20.9673C69.6652 19.3058 69.0411 17.9589 66.7306 15.8029L65.3753 14.5382L67.0634 12.752L68.7517 10.966L69.0917 11.2952C71.9737 14.0868 72.7767 14.5682 74.3373 14.4408C76.9165 14.2305 78.0686 12.6301 77.9788 9.38231C77.903 6.64085 77.8801 6.8025 78.3456 6.8112C78.5716 6.81536 79.6688 6.78441 80.7839 6.74233ZM28.3681 20.3331C28.0437 20.9927 27.8484 21.5629 27.9339 21.6004C28.0195 21.6379 30.2651 22.7163 32.9243 23.9969C35.5836 25.2774 37.7964 26.3187 37.8415 26.3109C37.9303 26.2955 38.943 24.1892 38.9622 23.98C38.9729 23.8629 29.5648 19.2535 29.1466 19.1709C29.0429 19.1506 28.6925 19.6735 28.3681 20.3331ZM77.9469 15.9996C71.1996 18.0072 68.5187 26.1807 72.72 31.9355C77.6964 38.7517 88.5894 36.7797 90.8541 28.6529C93.0402 20.8084 85.7627 13.6741 77.9469 15.9996ZM53.3016 23.2971C47.1381 29.7451 46.5241 39.3725 51.8162 46.5915C54.273 49.9432 57.3739 51.9782 62.0689 53.3209C65.9927 54.443 68.3954 56.625 68.8983 59.5231L68.9782 59.9834L70.3322 59.7484L71.6862 59.5135L71.4106 58.5309C70.2911 54.5412 67.4913 51.9256 63.1061 50.7728C51.2175 47.6475 46.9007 34.0314 55.0709 25.4284C55.5557 24.9178 55.9464 24.4647 55.9389 24.4217C55.9249 24.3409 54.214 22.3997 54.1674 22.4119C54.153 22.4155 53.7634 22.8139 53.3016 23.2971ZM82.0218 18.3646C86.5606 18.9974 89.4958 23.5546 88.1804 27.9268C86.6528 33.003 80.8571 34.9742 76.5426 31.8847C70.2053 27.3468 74.2827 17.2854 82.0218 18.3646ZM32.8409 32.4928C30.1901 33.6649 28.0117 34.6324 28 34.6428C27.8423 34.7858 29.0779 37.1361 29.2626 37.0441C29.3876 36.9818 31.5617 36.0145 34.0941 34.8948C36.6267 33.775 38.72 32.8284 38.7464 32.7912C38.8009 32.7136 37.96 30.7248 37.78 30.5063C37.7005 30.4097 36.0583 31.0702 32.8409 32.4928ZM44.2159 46.2922C44.7103 47.2949 44.7262 47.4013 44.3912 47.4594C41.2585 48.003 38.7143 52.6587 39.5325 56.3505C41.1412 63.6085 51.117 64.6841 54.0832 57.9192L54.4007 57.1951L55.802 57.8663C57.6379 58.7458 58.5438 59.3795 59.2132 60.2523L59.7605 60.9664L58.7238 62.4465C57.4967 64.1988 57.7268 64.1153 56.155 63.3766C52.6719 61.74 51.0672 62.5626 50.9589 66.0405C50.8795 68.5926 51.0633 68.2816 49.472 68.5577C48.2835 68.7639 48.0736 68.763 47.9704 68.5512C47.9045 68.4157 47.5975 67.6724 47.2881 66.8992C45.8925 63.4109 44.2515 63.1384 41.433 65.9271C40.2045 67.1423 40.4345 67.1221 39.0265 66.1387C37.6154 65.1529 37.6656 65.3511 38.4218 63.7537C40.0695 60.2727 39.2376 58.7585 35.593 58.6049C34.8026 58.5716 34.0001 58.5362 33.8094 58.5263C33.335 58.5016 32.7969 55.8054 33.2254 55.6007C33.3611 55.5359 34.1731 55.2075 35.0297 54.8711C38.3072 53.5836 38.573 51.8131 35.8929 49.1202C34.6291 47.8502 34.6513 48.0663 35.6376 46.6545C36.6272 45.2379 36.3268 45.2916 38.2815 46.1817C41.1142 47.4716 43.4103 46.4554 43.1772 44.015C43.1651 43.8868 43.3055 44.1678 43.4895 44.6395C43.6734 45.1113 44.0003 45.855 44.2159 46.2922ZM46.8547 50.6027C47.8018 51.9019 48.9958 53.1542 50.5398 54.4675L51.9258 55.6466L51.7699 56.2525C51.2818 58.1495 49.0142 59.775 46.9777 59.6878C41.7904 59.4659 40.2207 52.5599 44.825 50.2183C46.0225 49.6092 46.1478 49.633 46.8547 50.6027ZM93.2941 50.5743L93.5255 51.9081L97.9707 51.1367L102.416 50.3654L102.185 49.0317L101.953 47.6981L97.5079 48.4695L93.0627 49.2408L93.2941 50.5743ZM93.076 57.1102C92.7318 57.7195 92.4781 58.236 92.512 58.258C92.546 58.2803 94.5187 59.4187 96.8959 60.7883L101.218 63.278L101.793 62.3591C102.108 61.8536 102.412 61.3142 102.467 61.1603C102.566 60.884 94.2834 55.8941 93.8576 55.9737C93.7719 55.9895 93.4201 56.5011 93.076 57.1102ZM69.7495 64.4286L70.0838 66.355L71.4173 66.1236L72.7511 65.8922L72.4168 63.9658L72.0826 62.0395L70.7488 62.2709L69.4153 62.5023L69.7495 64.4286ZM88.0254 65.0735L88.7967 69.5187L90.1303 69.2873L91.4638 69.0559L90.6925 64.6107L89.9211 60.1653L88.5876 60.3967L87.254 60.6281L88.0254 65.0735ZM77.5353 71.4727L77.741 72.6582L72.777 73.5195L67.8131 74.3808L67.6074 73.1954L67.4017 72.01L72.3657 71.1487L77.3296 70.2873L77.5353 71.4727ZM78.2953 75.8525C78.7395 78.4124 78.04 79.0158 73.7675 79.7579C69.6335 80.4758 68.8241 80.2072 68.4392 77.9892L68.2759 77.0481L73.2399 76.1868L78.2038 75.3254L78.2953 75.8525Z"
            fill="#D90429" />
    </g>
    <defs>
        <clipPath id="clip0_4_3">
            <rect width="77" height="77" fill="white" transform="translate(0 26.1643) rotate(-9.84388)" />
        </clipPath>
        <clipPath id="clip1_4_3">
            <rect width="77" height="77" fill="white" transform="translate(23 13.1643) rotate(-9.84388)" />
        </clipPath>
    </defs>
</svg>