<svg width="566" height="385" viewBox="0 0 566 385" fill="none" xmlns="http://www.w3.org/2000/svg">
<g clip-path="url(#clip0_7_56)">
<path d="M475.082 0H0V255.555H475.082V0Z" fill="#2B2B2B"/>
<path d="M90.0729 36.0292H85.8834V42.7323H90.0729V36.0292Z" fill="#62C5B3"/>
<path d="M104.317 34.3533H100.127V41.0564H104.317V34.3533Z" fill="#62C5B3"/>
<path d="M111.858 34.3533H107.668V41.0564H111.858V34.3533Z" fill="#62C5B3"/>
<path d="M111.858 54.4626H107.668V61.1657H111.858V54.4626Z" fill="#62C5B3"/>
<path d="M120.237 44.408H116.047V51.1111H120.237V44.408Z" fill="#62C5B3"/>
<path d="M120.237 55.3005H116.047V62.0036H120.237V55.3005Z" fill="#62C5B3"/>
<path d="M111.858 76.2477H107.668V82.9508H111.858V76.2477Z" fill="#62C5B3"/>
<path d="M120.237 87.1403H116.047V93.8434H120.237V87.1403Z" fill="#62C5B3"/>
<path d="M111.858 128.197H107.668V134.9H111.858V128.197Z" fill="#62C5B3"/>
<path d="M104.317 87.1403H100.127V93.8434H104.317V87.1403Z" fill="#62C5B3"/>
<path d="M90.0729 46.9216H85.8834V53.6247H90.0729V46.9216Z" fill="#62C5B3"/>
<path d="M90.0729 151.657H85.8834V158.361H90.0729V151.657Z" fill="#62C5B3"/>
<path d="M90.0729 173.443H85.8834V180.146H90.0729V173.443Z" fill="#62C5B3"/>
<path d="M90.0729 184.335H85.8834V191.038H90.0729V184.335Z" fill="#62C5B3"/>
<path d="M90.0728 58.6521H84.2076V59.49H90.0728V58.6521Z" fill="#62C5B3"/>
<path d="M112.696 68.7067H106.831V69.5445H112.696V68.7067Z" fill="#62C5B3"/>
<path d="M90.0728 112.277H84.2076V113.115H90.0728V112.277Z" fill="#62C5B3"/>
<path d="M90.0728 121.494H84.2076V122.331H90.0728V121.494Z" fill="#62C5B3"/>
<path d="M112.696 175.118H106.831V175.956H112.696V175.118Z" fill="#62C5B3"/>
<path d="M105.993 195.228H100.127V196.065H105.993V195.228Z" fill="#62C5B3"/>
<path d="M85.8834 66.1932V67.8688H87.559V71.2204H85.8834V72.896H90.0728V66.1932H85.8834Z" fill="#62C5B3"/>
<path d="M100.128 54.4628V56.1383H101.803V59.49H100.128V61.1655H104.317V54.4628H100.128Z" fill="#62C5B3"/>
<path d="M116.048 65.355V67.0311H117.723V70.3827H116.048V72.0582H120.237V65.355H116.048Z" fill="#62C5B3"/>
<path d="M116.048 98.033V99.7085H117.723V103.06H116.048V104.736H120.237V98.033H116.048Z" fill="#62C5B3"/>
<path d="M116.048 108.925V110.601H117.723V113.953H116.048V115.628H120.237V108.925H116.048Z" fill="#62C5B3"/>
<path d="M116.048 75.4099V77.0855H117.723V80.4371H116.048V82.1132H120.237V75.4099H116.048Z" fill="#62C5B3"/>
<path d="M107.668 44.408V46.084H109.344V49.4351H107.668V51.1112H111.858V44.408H107.668Z" fill="#62C5B3"/>
<path d="M111.858 98.0327H107.668V104.736H111.858V98.0327Z" fill="#62C5B3"/>
<path d="M111.858 118.142H107.668V124.845H111.858V118.142Z" fill="#62C5B3"/>
<path d="M107.668 108.087V109.763H109.344V113.115H107.668V114.791H111.858V108.087H107.668Z" fill="#62C5B3"/>
<path d="M100.128 65.355V67.0311H101.803V70.3827H100.128V72.0582H104.317V65.355H100.128Z" fill="#62C5B3"/>
<path d="M100.128 76.2477V77.9238H101.803V81.2748H100.128V82.9509H104.317V76.2477H100.128Z" fill="#62C5B3"/>
<path d="M104.317 108.925H100.127V115.628H104.317V108.925Z" fill="#62C5B3"/>
<path d="M100.128 98.033V99.7085H101.803V103.06H100.128V104.736H104.317V98.033H100.128Z" fill="#62C5B3"/>
<path d="M104.317 130.71H100.127V137.413H104.317V130.71Z" fill="#62C5B3"/>
<path d="M100.128 119.818V121.493H101.803V124.845H100.128V126.521H104.317V119.818H100.128Z" fill="#62C5B3"/>
<path d="M104.317 152.495H100.127V159.198H104.317V152.495Z" fill="#62C5B3"/>
<path d="M111.858 150.82H107.668V157.523H111.858V150.82Z" fill="#62C5B3"/>
<path d="M100.128 141.603V143.279H101.803V146.63H100.128V148.306H104.317V141.603H100.128Z" fill="#62C5B3"/>
<path d="M116.048 141.603V143.279H117.723V146.63H116.048V148.306H120.237V141.603H116.048Z" fill="#62C5B3"/>
<path d="M162.969 44.408H158.78V51.1111H162.969V44.408Z" fill="#62C5B3"/>
<path d="M162.969 55.3005H158.78V62.0036H162.969V55.3005Z" fill="#62C5B3"/>
<path d="M162.969 87.1403H158.78V93.8434H162.969V87.1403Z" fill="#62C5B3"/>
<path d="M158.779 65.355V67.0311H160.455V70.3827H158.779V72.0582H162.969V65.355H158.779Z" fill="#62C5B3"/>
<path d="M158.779 98.033V99.7085H160.455V103.06H158.779V104.736H162.969V98.033H158.779Z" fill="#62C5B3"/>
<path d="M158.779 108.925V110.601H160.455V113.953H158.779V115.628H162.969V108.925H158.779Z" fill="#62C5B3"/>
<path d="M158.779 75.4099V77.0855H160.455V80.4371H158.779V82.1132H162.969V75.4099H158.779Z" fill="#62C5B3"/>
<path d="M158.779 141.603V143.279H160.455V146.63H158.779V148.306H162.969V141.603H158.779Z" fill="#62C5B3"/>
<path d="M104.317 174.28H100.127V180.984H104.317V174.28Z" fill="#62C5B3"/>
<path d="M111.858 161.712H107.668V168.415H111.858V161.712Z" fill="#62C5B3"/>
<path d="M104.317 202.769H100.127V209.472H104.317V202.769Z" fill="#62C5B3"/>
<path d="M111.858 182.659H107.668V189.362H111.858V182.659Z" fill="#62C5B3"/>
<path d="M100.128 163.388V165.063H101.803V168.415H100.128V170.091H104.317V163.388H100.128Z" fill="#62C5B3"/>
<path d="M100.128 214.499V216.175H101.803V219.526H100.128V221.202H104.317V214.499H100.128Z" fill="#62C5B3"/>
<path d="M150.401 34.3533H146.211V41.0564H150.401V34.3533Z" fill="#62C5B3"/>
<path d="M150.401 87.1403H146.211V93.8434H150.401V87.1403Z" fill="#62C5B3"/>
<path d="M152.076 195.228H146.211V196.065H152.076V195.228Z" fill="#62C5B3"/>
<path d="M146.211 54.4628V56.1383H147.887V59.49H146.211V61.1655H150.401V54.4628H146.211Z" fill="#62C5B3"/>
<path d="M146.211 65.355V67.0311H147.887V70.3827H146.211V72.0582H150.401V65.355H146.211Z" fill="#62C5B3"/>
<path d="M146.211 76.2477V77.9238H147.887V81.2748H146.211V82.9509H150.401V76.2477H146.211Z" fill="#62C5B3"/>
<path d="M150.401 108.925H146.211V115.628H150.401V108.925Z" fill="#62C5B3"/>
<path d="M146.211 98.033V99.7085H147.887V103.06H146.211V104.736H150.401V98.033H146.211Z" fill="#62C5B3"/>
<path d="M150.401 130.71H146.211V137.413H150.401V130.71Z" fill="#62C5B3"/>
<path d="M146.211 119.818V121.493H147.887V124.845H146.211V126.521H150.401V119.818H146.211Z" fill="#62C5B3"/>
<path d="M150.401 152.495H146.211V159.198H150.401V152.495Z" fill="#62C5B3"/>
<path d="M146.211 141.603V143.279H147.887V146.63H146.211V148.306H150.401V141.603H146.211Z" fill="#62C5B3"/>
<path d="M150.401 174.28H146.211V180.984H150.401V174.28Z" fill="#62C5B3"/>
<path d="M150.401 202.769H146.211V209.472H150.401V202.769Z" fill="#62C5B3"/>
<path d="M146.211 163.388V165.063H147.887V168.415H146.211V170.091H150.401V163.388H146.211Z" fill="#62C5B3"/>
<path d="M146.211 214.499V216.175H147.887V219.526H146.211V221.202H150.401V214.499H146.211Z" fill="#62C5B3"/>
<path d="M170.51 34.3533H166.321V41.0564H170.51V34.3533Z" fill="#62C5B3"/>
<path d="M170.51 87.1403H166.321V93.8434H170.51V87.1403Z" fill="#62C5B3"/>
<path d="M172.186 195.228H166.321V196.065H172.186V195.228Z" fill="#62C5B3"/>
<path d="M166.32 54.4628V56.1383H167.997V59.49H166.32V61.1655H170.51V54.4628H166.32Z" fill="#62C5B3"/>
<path d="M166.32 65.355V67.0311H167.997V70.3827H166.32V72.0582H170.51V65.355H166.32Z" fill="#62C5B3"/>
<path d="M166.32 76.2477V77.9238H167.997V81.2748H166.32V82.9509H170.51V76.2477H166.32Z" fill="#62C5B3"/>
<path d="M170.51 108.925H166.321V115.628H170.51V108.925Z" fill="#62C5B3"/>
<path d="M166.32 98.033V99.7085H167.997V103.06H166.32V104.736H170.51V98.033H166.32Z" fill="#62C5B3"/>
<path d="M170.51 130.71H166.321V137.413H170.51V130.71Z" fill="#62C5B3"/>
<path d="M166.32 119.818V121.493H167.997V124.845H166.32V126.521H170.51V119.818H166.32Z" fill="#62C5B3"/>
<path d="M170.51 152.495H166.321V159.198H170.51V152.495Z" fill="#62C5B3"/>
<path d="M166.32 141.603V143.279H167.997V146.63H166.32V148.306H170.51V141.603H166.32Z" fill="#62C5B3"/>
<path d="M170.51 174.28H166.321V180.984H170.51V174.28Z" fill="#62C5B3"/>
<path d="M170.51 202.769H166.321V209.472H170.51V202.769Z" fill="#62C5B3"/>
<path d="M166.32 163.388V165.063H167.997V168.415H166.32V170.091H170.51V163.388H166.32Z" fill="#62C5B3"/>
<path d="M166.32 214.499V216.175H167.997V219.526H166.32V221.202H170.51V214.499H166.32Z" fill="#62C5B3"/>
<path d="M107.668 202.769V204.444H109.344V207.796H107.668V209.471H111.858V202.769H107.668Z" fill="#62C5B3"/>
<path d="M107.668 213.661V215.337H109.344V218.689H107.668V220.364H111.858V213.661H107.668Z" fill="#62C5B3"/>
<path d="M85.8834 87.1403V88.8158H87.559V92.1674H85.8834V93.8435H90.0728V87.1403H85.8834Z" fill="#62C5B3"/>
<path d="M85.8834 129.873V131.548H87.559V134.9H85.8834V136.575H90.0728V129.873H85.8834Z" fill="#62C5B3"/>
<path d="M85.8834 140.765V142.441H87.559V145.793H85.8834V147.468H90.0728V140.765H85.8834Z" fill="#62C5B3"/>
<path d="M85.8834 162.55V164.226H87.559V167.577H85.8834V169.253H90.0728V162.55H85.8834Z" fill="#62C5B3"/>
<path d="M85.8834 193.552V195.228H87.559V198.579H85.8834V200.255H90.0728V193.552H85.8834Z" fill="#62C5B3"/>
<path d="M85.8834 202.769V204.444H87.559V207.796H85.8834V209.471H90.0728V202.769H85.8834Z" fill="#62C5B3"/>
<path d="M133.643 36.0292H129.453V42.7323H133.643V36.0292Z" fill="#62C5B3"/>
<path d="M133.643 46.9216H129.453V53.6247H133.643V46.9216Z" fill="#62C5B3"/>
<path d="M133.643 58.6521H127.778V59.49H133.643V58.6521Z" fill="#62C5B3"/>
<path d="M133.643 112.277H127.778V113.115H133.643V112.277Z" fill="#62C5B3"/>
<path d="M133.643 121.494H127.778V122.331H133.643V121.494Z" fill="#62C5B3"/>
<path d="M129.454 66.1932V67.8688H131.129V71.2204H129.454V72.896H133.643V66.1932H129.454Z" fill="#62C5B3"/>
<path d="M129.454 87.1403V88.8158H131.129V92.1674H129.454V93.8435H133.643V87.1403H129.454Z" fill="#62C5B3"/>
<path d="M129.454 129.873V131.548H131.129V134.9H129.454V136.575H133.643V129.873H129.454Z" fill="#62C5B3"/>
<path d="M181.402 108.925H177.213V115.628H181.402V108.925Z" fill="#62C5B3"/>
<path d="M181.402 119.818H177.213V126.521H181.402V119.818Z" fill="#62C5B3"/>
<path d="M181.402 131.548H175.537V132.386H181.402V131.548Z" fill="#62C5B3"/>
<path d="M181.402 185.173H175.537V186.011H181.402V185.173Z" fill="#62C5B3"/>
<path d="M181.402 194.39H175.537V195.228H181.402V194.39Z" fill="#62C5B3"/>
<path d="M177.213 139.089V140.765H178.889V144.116H177.213V145.793H181.403V139.089H177.213Z" fill="#62C5B3"/>
<path d="M177.213 160.036V161.712H178.889V165.064H177.213V166.74H181.403V160.036H177.213Z" fill="#62C5B3"/>
<path d="M177.213 202.769V204.444H178.889V207.796H177.213V209.471H181.403V202.769H177.213Z" fill="#62C5B3"/>
<path d="M194.809 36.0292H190.619V42.7323H194.809V36.0292Z" fill="#62C5B3"/>
<path d="M209.053 34.3533H204.863V41.0564H209.053V34.3533Z" fill="#62C5B3"/>
<path d="M216.594 34.3533H212.404V41.0564H216.594V34.3533Z" fill="#62C5B3"/>
<path d="M216.594 54.4626H212.404V61.1657H216.594V54.4626Z" fill="#62C5B3"/>
<path d="M224.973 44.408H220.783V51.1111H224.973V44.408Z" fill="#62C5B3"/>
<path d="M224.973 55.3005H220.783V62.0036H224.973V55.3005Z" fill="#62C5B3"/>
<path d="M216.594 76.2477H212.404V82.9508H216.594V76.2477Z" fill="#62C5B3"/>
<path d="M224.973 87.1403H220.783V93.8434H224.973V87.1403Z" fill="#62C5B3"/>
<path d="M216.594 128.197H212.404V134.9H216.594V128.197Z" fill="#62C5B3"/>
<path d="M209.053 87.1403H204.863V93.8434H209.053V87.1403Z" fill="#62C5B3"/>
<path d="M194.809 46.9216H190.619V53.6247H194.809V46.9216Z" fill="#62C5B3"/>
<path d="M194.809 151.657H190.619V158.361H194.809V151.657Z" fill="#62C5B3"/>
<path d="M194.809 173.443H190.619V180.146H194.809V173.443Z" fill="#62C5B3"/>
<path d="M194.809 184.335H190.619V191.038H194.809V184.335Z" fill="#62C5B3"/>
<path d="M194.809 58.6521H188.943V59.49H194.809V58.6521Z" fill="#62C5B3"/>
<path d="M217.432 68.7067H211.566V69.5445H217.432V68.7067Z" fill="#62C5B3"/>
<path d="M194.809 112.277H188.943V113.115H194.809V112.277Z" fill="#62C5B3"/>
<path d="M194.809 121.494H188.943V122.331H194.809V121.494Z" fill="#62C5B3"/>
<path d="M217.432 175.118H211.566V175.956H217.432V175.118Z" fill="#62C5B3"/>
<path d="M210.728 195.228H204.863V196.065H210.728V195.228Z" fill="#62C5B3"/>
<path d="M190.619 66.1932V67.8688H192.295V71.2204H190.619V72.896H194.809V66.1932H190.619Z" fill="#62C5B3"/>
<path d="M204.863 54.4628V56.1383H206.539V59.49H204.863V61.1655H209.053V54.4628H204.863Z" fill="#62C5B3"/>
<path d="M220.783 65.355V67.0311H222.459V70.3827H220.783V72.0582H224.973V65.355H220.783Z" fill="#62C5B3"/>
<path d="M220.783 98.033V99.7085H222.459V103.06H220.783V104.736H224.973V98.033H220.783Z" fill="#62C5B3"/>
<path d="M220.783 108.925V110.601H222.459V113.953H220.783V115.628H224.973V108.925H220.783Z" fill="#62C5B3"/>
<path d="M220.783 75.4099V77.0855H222.459V80.4371H220.783V82.1132H224.973V75.4099H220.783Z" fill="#62C5B3"/>
<path d="M212.404 44.408V46.084H214.08V49.4351H212.404V51.1112H216.594V44.408H212.404Z" fill="#62C5B3"/>
<path d="M216.594 98.0327H212.404V104.736H216.594V98.0327Z" fill="#62C5B3"/>
<path d="M216.594 118.142H212.404V124.845H216.594V118.142Z" fill="#62C5B3"/>
<path d="M212.404 108.087V109.763H214.08V113.115H212.404V114.791H216.594V108.087H212.404Z" fill="#62C5B3"/>
<path d="M204.863 65.355V67.0311H206.539V70.3827H204.863V72.0582H209.053V65.355H204.863Z" fill="#62C5B3"/>
<path d="M204.863 76.2477V77.9238H206.539V81.2748H204.863V82.9509H209.053V76.2477H204.863Z" fill="#62C5B3"/>
<path d="M209.053 108.925H204.863V115.628H209.053V108.925Z" fill="#62C5B3"/>
<path d="M204.863 98.033V99.7085H206.539V103.06H204.863V104.736H209.053V98.033H204.863Z" fill="#62C5B3"/>
<path d="M209.053 130.71H204.863V137.413H209.053V130.71Z" fill="#62C5B3"/>
<path d="M204.863 119.818V121.493H206.539V124.845H204.863V126.521H209.053V119.818H204.863Z" fill="#62C5B3"/>
<path d="M209.053 152.495H204.863V159.198H209.053V152.495Z" fill="#62C5B3"/>
<path d="M216.594 150.82H212.404V157.523H216.594V150.82Z" fill="#62C5B3"/>
<path d="M204.863 141.603V143.279H206.539V146.63H204.863V148.306H209.053V141.603H204.863Z" fill="#62C5B3"/>
<path d="M220.783 141.603V143.279H222.459V146.63H220.783V148.306H224.973V141.603H220.783Z" fill="#62C5B3"/>
<path d="M267.705 44.408H263.515V51.1111H267.705V44.408Z" fill="#62C5B3"/>
<path d="M267.705 55.3005H263.515V62.0036H267.705V55.3005Z" fill="#62C5B3"/>
<path d="M267.705 87.1403H263.515V93.8434H267.705V87.1403Z" fill="#62C5B3"/>
<path d="M263.516 65.355V67.0311H265.191V70.3827H263.516V72.0582H267.705V65.355H263.516Z" fill="#62C5B3"/>
<path d="M263.516 98.033V99.7085H265.191V103.06H263.516V104.736H267.705V98.033H263.516Z" fill="#62C5B3"/>
<path d="M263.516 108.925V110.601H265.191V113.953H263.516V115.628H267.705V108.925H263.516Z" fill="#62C5B3"/>
<path d="M263.516 75.4099V77.0855H265.191V80.4371H263.516V82.1132H267.705V75.4099H263.516Z" fill="#62C5B3"/>
<path d="M263.516 141.603V143.279H265.191V146.63H263.516V148.306H267.705V141.603H263.516Z" fill="#62C5B3"/>
<path d="M209.053 174.28H204.863V180.984H209.053V174.28Z" fill="#62C5B3"/>
<path d="M216.594 161.712H212.404V168.415H216.594V161.712Z" fill="#62C5B3"/>
<path d="M209.053 202.769H204.863V209.472H209.053V202.769Z" fill="#62C5B3"/>
<path d="M216.594 182.659H212.404V189.362H216.594V182.659Z" fill="#62C5B3"/>
<path d="M204.863 163.388V165.063H206.539V168.415H204.863V170.091H209.053V163.388H204.863Z" fill="#62C5B3"/>
<path d="M204.863 214.499V216.175H206.539V219.526H204.863V221.202H209.053V214.499H204.863Z" fill="#62C5B3"/>
<path d="M255.137 34.3533H250.947V41.0564H255.137V34.3533Z" fill="#62C5B3"/>
<path d="M255.137 87.1403H250.947V93.8434H255.137V87.1403Z" fill="#62C5B3"/>
<path d="M256.812 195.228H250.947V196.065H256.812V195.228Z" fill="#62C5B3"/>
<path d="M250.947 54.4628V56.1383H252.623V59.49H250.947V61.1655H255.136V54.4628H250.947Z" fill="#62C5B3"/>
<path d="M250.947 65.355V67.0311H252.623V70.3827H250.947V72.0582H255.136V65.355H250.947Z" fill="#62C5B3"/>
<path d="M250.947 76.2477V77.9238H252.623V81.2748H250.947V82.9509H255.136V76.2477H250.947Z" fill="#62C5B3"/>
<path d="M255.137 108.925H250.947V115.628H255.137V108.925Z" fill="#62C5B3"/>
<path d="M250.947 98.033V99.7085H252.623V103.06H250.947V104.736H255.136V98.033H250.947Z" fill="#62C5B3"/>
<path d="M255.137 130.71H250.947V137.413H255.137V130.71Z" fill="#62C5B3"/>
<path d="M250.947 119.818V121.493H252.623V124.845H250.947V126.521H255.136V119.818H250.947Z" fill="#62C5B3"/>
<path d="M255.137 152.495H250.947V159.198H255.137V152.495Z" fill="#62C5B3"/>
<path d="M250.947 141.603V143.279H252.623V146.63H250.947V148.306H255.136V141.603H250.947Z" fill="#62C5B3"/>
<path d="M255.137 174.28H250.947V180.984H255.137V174.28Z" fill="#62C5B3"/>
<path d="M255.137 202.769H250.947V209.472H255.137V202.769Z" fill="#62C5B3"/>
<path d="M250.947 163.388V165.063H252.623V168.415H250.947V170.091H255.136V163.388H250.947Z" fill="#62C5B3"/>
<path d="M250.947 214.499V216.175H252.623V219.526H250.947V221.202H255.136V214.499H250.947Z" fill="#62C5B3"/>
<path d="M275.246 34.3533H271.056V41.0564H275.246V34.3533Z" fill="#62C5B3"/>
<path d="M275.246 87.1403H271.056V93.8434H275.246V87.1403Z" fill="#62C5B3"/>
<path d="M276.922 195.228H271.056V196.065H276.922V195.228Z" fill="#62C5B3"/>
<path d="M271.056 54.4628V56.1383H272.732V59.49H271.056V61.1655H275.246V54.4628H271.056Z" fill="#62C5B3"/>
<path d="M271.056 65.355V67.0311H272.732V70.3827H271.056V72.0582H275.246V65.355H271.056Z" fill="#62C5B3"/>
<path d="M271.056 76.2477V77.9238H272.732V81.2748H271.056V82.9509H275.246V76.2477H271.056Z" fill="#62C5B3"/>
<path d="M275.246 108.925H271.056V115.628H275.246V108.925Z" fill="#62C5B3"/>
<path d="M271.056 98.033V99.7085H272.732V103.06H271.056V104.736H275.246V98.033H271.056Z" fill="#62C5B3"/>
<path d="M275.246 130.71H271.056V137.413H275.246V130.71Z" fill="#62C5B3"/>
<path d="M271.056 119.818V121.493H272.732V124.845H271.056V126.521H275.246V119.818H271.056Z" fill="#62C5B3"/>
<path d="M275.246 152.495H271.056V159.198H275.246V152.495Z" fill="#62C5B3"/>
<path d="M271.056 141.603V143.279H272.732V146.63H271.056V148.306H275.246V141.603H271.056Z" fill="#62C5B3"/>
<path d="M275.246 174.28H271.056V180.984H275.246V174.28Z" fill="#62C5B3"/>
<path d="M275.246 202.769H271.056V209.472H275.246V202.769Z" fill="#62C5B3"/>
<path d="M271.056 163.388V165.063H272.732V168.415H271.056V170.091H275.246V163.388H271.056Z" fill="#62C5B3"/>
<path d="M271.056 214.499V216.175H272.732V219.526H271.056V221.202H275.246V214.499H271.056Z" fill="#62C5B3"/>
<path d="M212.404 202.769V204.444H214.08V207.796H212.404V209.471H216.594V202.769H212.404Z" fill="#62C5B3"/>
<path d="M212.404 213.661V215.337H214.08V218.689H212.404V220.364H216.594V213.661H212.404Z" fill="#62C5B3"/>
<path d="M190.619 87.1403V88.8158H192.295V92.1674H190.619V93.8435H194.809V87.1403H190.619Z" fill="#62C5B3"/>
<path d="M190.619 129.873V131.548H192.295V134.9H190.619V136.575H194.809V129.873H190.619Z" fill="#62C5B3"/>
<path d="M190.619 140.765V142.441H192.295V145.793H190.619V147.468H194.809V140.765H190.619Z" fill="#62C5B3"/>
<path d="M190.619 162.55V164.226H192.295V167.577H190.619V169.253H194.809V162.55H190.619Z" fill="#62C5B3"/>
<path d="M190.619 193.552V195.228H192.295V198.579H190.619V200.255H194.809V193.552H190.619Z" fill="#62C5B3"/>
<path d="M190.619 202.769V204.444H192.295V207.796H190.619V209.471H194.809V202.769H190.619Z" fill="#62C5B3"/>
<path d="M238.379 36.0292H234.189V42.7323H238.379V36.0292Z" fill="#62C5B3"/>
<path d="M238.379 46.9216H234.189V53.6247H238.379V46.9216Z" fill="#62C5B3"/>
<path d="M238.379 58.6521H232.514V59.49H238.379V58.6521Z" fill="#62C5B3"/>
<path d="M238.379 112.277H232.514V113.115H238.379V112.277Z" fill="#62C5B3"/>
<path d="M238.379 121.494H232.514V122.331H238.379V121.494Z" fill="#62C5B3"/>
<path d="M234.189 66.1932V67.8688H235.865V71.2204H234.189V72.896H238.379V66.1932H234.189Z" fill="#62C5B3"/>
<path d="M234.189 87.1403V88.8158H235.865V92.1674H234.189V93.8435H238.379V87.1403H234.189Z" fill="#62C5B3"/>
<path d="M234.189 129.873V131.548H235.865V134.9H234.189V136.575H238.379V129.873H234.189Z" fill="#62C5B3"/>
<path d="M286.138 108.925H281.949V115.628H286.138V108.925Z" fill="#62C5B3"/>
<path d="M286.138 119.818H281.949V126.521H286.138V119.818Z" fill="#62C5B3"/>
<path d="M286.138 131.548H280.273V132.386H286.138V131.548Z" fill="#62C5B3"/>
<path d="M286.138 185.173H280.273V186.011H286.138V185.173Z" fill="#62C5B3"/>
<path d="M286.138 194.39H280.273V195.228H286.138V194.39Z" fill="#62C5B3"/>
<path d="M281.949 139.089V140.765H283.625V144.116H281.949V145.793H286.138V139.089H281.949Z" fill="#62C5B3"/>
<path d="M281.949 160.036V161.712H283.625V165.064H281.949V166.74H286.138V160.036H281.949Z" fill="#62C5B3"/>
<path d="M281.949 202.769V204.444H283.625V207.796H281.949V209.471H286.138V202.769H281.949Z" fill="#62C5B3"/>
<path d="M299.545 36.0292H295.355V42.7323H299.545V36.0292Z" fill="#62C5B3"/>
<path d="M313.789 34.3533H309.599V41.0564H313.789V34.3533Z" fill="#62C5B3"/>
<path d="M321.33 34.3533H317.14V41.0564H321.33V34.3533Z" fill="#62C5B3"/>
<path d="M321.33 54.4626H317.14V61.1657H321.33V54.4626Z" fill="#62C5B3"/>
<path d="M329.708 44.408H325.519V51.1111H329.708V44.408Z" fill="#62C5B3"/>
<path d="M329.708 55.3005H325.519V62.0036H329.708V55.3005Z" fill="#62C5B3"/>
<path d="M321.33 76.2477H317.14V82.9508H321.33V76.2477Z" fill="#62C5B3"/>
<path d="M329.708 87.1403H325.519V93.8434H329.708V87.1403Z" fill="#62C5B3"/>
<path d="M321.33 128.197H317.14V134.9H321.33V128.197Z" fill="#62C5B3"/>
<path d="M313.789 87.1403H309.599V93.8434H313.789V87.1403Z" fill="#62C5B3"/>
<path d="M299.545 46.9216H295.355V53.6247H299.545V46.9216Z" fill="#62C5B3"/>
<path d="M299.545 151.657H295.355V158.361H299.545V151.657Z" fill="#62C5B3"/>
<path d="M299.545 173.443H295.355V180.146H299.545V173.443Z" fill="#62C5B3"/>
<path d="M299.545 184.335H295.355V191.038H299.545V184.335Z" fill="#62C5B3"/>
<path d="M299.545 58.6521H293.679V59.49H299.545V58.6521Z" fill="#62C5B3"/>
<path d="M322.167 68.7067H316.302V69.5445H322.167V68.7067Z" fill="#62C5B3"/>
<path d="M299.545 112.277H293.679V113.115H299.545V112.277Z" fill="#62C5B3"/>
<path d="M299.545 121.494H293.679V122.331H299.545V121.494Z" fill="#62C5B3"/>
<path d="M322.167 175.118H316.302V175.956H322.167V175.118Z" fill="#62C5B3"/>
<path d="M315.464 195.228H309.599V196.065H315.464V195.228Z" fill="#62C5B3"/>
<path d="M295.355 66.1932V67.8688H297.031V71.2204H295.355V72.896H299.545V66.1932H295.355Z" fill="#62C5B3"/>
<path d="M309.599 54.4628V56.1383H311.275V59.49H309.599V61.1655H313.789V54.4628H309.599Z" fill="#62C5B3"/>
<path d="M325.519 65.355V67.0311H327.195V70.3827H325.519V72.0582H329.708V65.355H325.519Z" fill="#62C5B3"/>
<path d="M325.519 98.033V99.7085H327.195V103.06H325.519V104.736H329.708V98.033H325.519Z" fill="#62C5B3"/>
<path d="M325.519 108.925V110.601H327.195V113.953H325.519V115.628H329.708V108.925H325.519Z" fill="#62C5B3"/>
<path d="M325.519 75.4099V77.0855H327.195V80.4371H325.519V82.1132H329.708V75.4099H325.519Z" fill="#62C5B3"/>
<path d="M317.14 44.408V46.084H318.816V49.4351H317.14V51.1112H321.33V44.408H317.14Z" fill="#62C5B3"/>
<path d="M321.33 98.0327H317.14V104.736H321.33V98.0327Z" fill="#62C5B3"/>
<path d="M321.33 118.142H317.14V124.845H321.33V118.142Z" fill="#62C5B3"/>
<path d="M317.14 108.087V109.763H318.816V113.115H317.14V114.791H321.33V108.087H317.14Z" fill="#62C5B3"/>
<path d="M309.599 65.355V67.0311H311.275V70.3827H309.599V72.0582H313.789V65.355H309.599Z" fill="#62C5B3"/>
<path d="M309.599 76.2477V77.9238H311.275V81.2748H309.599V82.9509H313.789V76.2477H309.599Z" fill="#62C5B3"/>
<path d="M313.789 108.925H309.599V115.628H313.789V108.925Z" fill="#62C5B3"/>
<path d="M309.599 98.033V99.7085H311.275V103.06H309.599V104.736H313.789V98.033H309.599Z" fill="#62C5B3"/>
<path d="M313.789 130.71H309.599V137.413H313.789V130.71Z" fill="#62C5B3"/>
<path d="M309.599 119.818V121.493H311.275V124.845H309.599V126.521H313.789V119.818H309.599Z" fill="#62C5B3"/>
<path d="M313.789 152.495H309.599V159.198H313.789V152.495Z" fill="#62C5B3"/>
<path d="M321.33 150.82H317.14V157.523H321.33V150.82Z" fill="#62C5B3"/>
<path d="M309.599 141.603V143.279H311.275V146.63H309.599V148.306H313.789V141.603H309.599Z" fill="#62C5B3"/>
<path d="M325.519 141.603V143.279H327.195V146.63H325.519V148.306H329.708V141.603H325.519Z" fill="#62C5B3"/>
<path d="M372.441 44.408H368.251V51.1111H372.441V44.408Z" fill="#62C5B3"/>
<path d="M372.441 55.3005H368.251V62.0036H372.441V55.3005Z" fill="#62C5B3"/>
<path d="M372.441 87.1403H368.251V93.8434H372.441V87.1403Z" fill="#62C5B3"/>
<path d="M368.251 65.355V67.0311H369.927V70.3827H368.251V72.0582H372.441V65.355H368.251Z" fill="#62C5B3"/>
<path d="M368.251 98.033V99.7085H369.927V103.06H368.251V104.736H372.441V98.033H368.251Z" fill="#62C5B3"/>
<path d="M368.251 108.925V110.601H369.927V113.953H368.251V115.628H372.441V108.925H368.251Z" fill="#62C5B3"/>
<path d="M368.251 75.4099V77.0855H369.927V80.4371H368.251V82.1132H372.441V75.4099H368.251Z" fill="#62C5B3"/>
<path d="M368.251 141.603V143.279H369.927V146.63H368.251V148.306H372.441V141.603H368.251Z" fill="#62C5B3"/>
<path d="M313.789 174.28H309.599V180.984H313.789V174.28Z" fill="#62C5B3"/>
<path d="M321.33 161.712H317.14V168.415H321.33V161.712Z" fill="#62C5B3"/>
<path d="M313.789 202.769H309.599V209.472H313.789V202.769Z" fill="#62C5B3"/>
<path d="M321.33 182.659H317.14V189.362H321.33V182.659Z" fill="#62C5B3"/>
<path d="M309.599 163.388V165.063H311.275V168.415H309.599V170.091H313.789V163.388H309.599Z" fill="#62C5B3"/>
<path d="M309.599 214.499V216.175H311.275V219.526H309.599V221.202H313.789V214.499H309.599Z" fill="#62C5B3"/>
<path d="M359.872 34.3533H355.683V41.0564H359.872V34.3533Z" fill="#62C5B3"/>
<path d="M359.872 87.1403H355.683V93.8434H359.872V87.1403Z" fill="#62C5B3"/>
<path d="M361.548 195.228H355.683V196.065H361.548V195.228Z" fill="#62C5B3"/>
<path d="M355.683 54.4628V56.1383H357.359V59.49H355.683V61.1655H359.872V54.4628H355.683Z" fill="#62C5B3"/>
<path d="M355.683 65.355V67.0311H357.359V70.3827H355.683V72.0582H359.872V65.355H355.683Z" fill="#62C5B3"/>
<path d="M355.683 76.2477V77.9238H357.359V81.2748H355.683V82.9509H359.872V76.2477H355.683Z" fill="#62C5B3"/>
<path d="M359.872 108.925H355.683V115.628H359.872V108.925Z" fill="#62C5B3"/>
<path d="M355.683 98.033V99.7085H357.359V103.06H355.683V104.736H359.872V98.033H355.683Z" fill="#62C5B3"/>
<path d="M359.872 130.71H355.683V137.413H359.872V130.71Z" fill="#62C5B3"/>
<path d="M355.683 119.818V121.493H357.359V124.845H355.683V126.521H359.872V119.818H355.683Z" fill="#62C5B3"/>
<path d="M359.872 152.495H355.683V159.198H359.872V152.495Z" fill="#62C5B3"/>
<path d="M355.683 141.603V143.279H357.359V146.63H355.683V148.306H359.872V141.603H355.683Z" fill="#62C5B3"/>
<path d="M359.872 174.28H355.683V180.984H359.872V174.28Z" fill="#62C5B3"/>
<path d="M359.872 202.769H355.683V209.472H359.872V202.769Z" fill="#62C5B3"/>
<path d="M355.683 163.388V165.063H357.359V168.415H355.683V170.091H359.872V163.388H355.683Z" fill="#62C5B3"/>
<path d="M355.683 214.499V216.175H357.359V219.526H355.683V221.202H359.872V214.499H355.683Z" fill="#62C5B3"/>
<path d="M379.982 34.3533H375.792V41.0564H379.982V34.3533Z" fill="#62C5B3"/>
<path d="M379.982 87.1403H375.792V93.8434H379.982V87.1403Z" fill="#62C5B3"/>
<path d="M381.657 195.228H375.792V196.065H381.657V195.228Z" fill="#62C5B3"/>
<path d="M375.792 54.4628V56.1383H377.468V59.49H375.792V61.1655H379.982V54.4628H375.792Z" fill="#62C5B3"/>
<path d="M375.792 65.355V67.0311H377.468V70.3827H375.792V72.0582H379.982V65.355H375.792Z" fill="#62C5B3"/>
<path d="M375.792 76.2477V77.9238H377.468V81.2748H375.792V82.9509H379.982V76.2477H375.792Z" fill="#62C5B3"/>
<path d="M379.982 108.925H375.792V115.628H379.982V108.925Z" fill="#62C5B3"/>
<path d="M375.792 98.033V99.7085H377.468V103.06H375.792V104.736H379.982V98.033H375.792Z" fill="#62C5B3"/>
<path d="M379.982 130.71H375.792V137.413H379.982V130.71Z" fill="#62C5B3"/>
<path d="M375.792 119.818V121.493H377.468V124.845H375.792V126.521H379.982V119.818H375.792Z" fill="#62C5B3"/>
<path d="M379.982 152.495H375.792V159.198H379.982V152.495Z" fill="#62C5B3"/>
<path d="M375.792 141.603V143.279H377.468V146.63H375.792V148.306H379.982V141.603H375.792Z" fill="#62C5B3"/>
<path d="M379.982 174.28H375.792V180.984H379.982V174.28Z" fill="#62C5B3"/>
<path d="M379.982 202.769H375.792V209.472H379.982V202.769Z" fill="#62C5B3"/>
<path d="M375.792 163.388V165.063H377.468V168.415H375.792V170.091H379.982V163.388H375.792Z" fill="#62C5B3"/>
<path d="M375.792 214.499V216.175H377.468V219.526H375.792V221.202H379.982V214.499H375.792Z" fill="#62C5B3"/>
<path d="M317.14 202.769V204.444H318.816V207.796H317.14V209.471H321.33V202.769H317.14Z" fill="#62C5B3"/>
<path d="M317.14 213.661V215.337H318.816V218.689H317.14V220.364H321.33V213.661H317.14Z" fill="#62C5B3"/>
<path d="M295.355 87.1403V88.8158H297.031V92.1674H295.355V93.8435H299.545V87.1403H295.355Z" fill="#62C5B3"/>
<path d="M295.355 129.873V131.548H297.031V134.9H295.355V136.575H299.545V129.873H295.355Z" fill="#62C5B3"/>
<path d="M295.355 140.765V142.441H297.031V145.793H295.355V147.468H299.545V140.765H295.355Z" fill="#62C5B3"/>
<path d="M295.355 162.55V164.226H297.031V167.577H295.355V169.253H299.545V162.55H295.355Z" fill="#62C5B3"/>
<path d="M295.355 193.552V195.228H297.031V198.579H295.355V200.255H299.545V193.552H295.355Z" fill="#62C5B3"/>
<path d="M295.355 202.769V204.444H297.031V207.796H295.355V209.471H299.545V202.769H295.355Z" fill="#62C5B3"/>
<path d="M343.115 36.0292H338.925V42.7323H343.115V36.0292Z" fill="#62C5B3"/>
<path d="M343.115 46.9216H338.925V53.6247H343.115V46.9216Z" fill="#62C5B3"/>
<path d="M343.115 58.6521H337.25V59.49H343.115V58.6521Z" fill="#62C5B3"/>
<path d="M343.115 112.277H337.25V113.115H343.115V112.277Z" fill="#62C5B3"/>
<path d="M343.115 121.494H337.25V122.331H343.115V121.494Z" fill="#62C5B3"/>
<path d="M338.925 66.1932V67.8688H340.601V71.2204H338.925V72.896H343.114V66.1932H338.925Z" fill="#62C5B3"/>
<path d="M338.925 87.1403V88.8158H340.601V92.1674H338.925V93.8435H343.114V87.1403H338.925Z" fill="#62C5B3"/>
<path d="M338.925 129.873V131.548H340.601V134.9H338.925V136.575H343.114V129.873H338.925Z" fill="#62C5B3"/>
<path d="M390.874 108.925H386.685V115.628H390.874V108.925Z" fill="#62C5B3"/>
<path d="M390.874 119.818H386.685V126.521H390.874V119.818Z" fill="#62C5B3"/>
<path d="M390.874 131.548H385.009V132.386H390.874V131.548Z" fill="#62C5B3"/>
<path d="M390.874 185.173H385.009V186.011H390.874V185.173Z" fill="#62C5B3"/>
<path d="M390.874 194.39H385.009V195.228H390.874V194.39Z" fill="#62C5B3"/>
<path d="M386.684 139.089V140.765H388.361V144.116H386.684V145.793H390.874V139.089H386.684Z" fill="#62C5B3"/>
<path d="M386.684 160.036V161.712H388.361V165.064H386.684V166.74H390.874V160.036H386.684Z" fill="#62C5B3"/>
<path d="M386.684 202.769V204.444H388.361V207.796H386.684V209.471H390.874V202.769H386.684Z" fill="#62C5B3"/>
<path d="M565.776 383.613H116.427V385H565.776V383.613Z" fill="#62C5B3"/>
<path d="M209.307 219.536V247.77L213.108 265.144C213.108 265.144 212.565 276.003 213.108 279.261C213.651 282.519 212.565 287.948 209.307 287.948C206.05 287.948 204.421 296.092 204.421 296.092C204.421 296.092 203.335 299.35 200.62 299.893C197.906 300.436 197.906 299.893 197.906 299.893L195.734 305.323L150.669 335.185L159.356 356.903C159.356 356.903 172.93 352.016 174.016 350.387C175.102 348.759 184.332 352.559 184.332 348.759C184.332 344.958 185.961 335.185 189.218 334.642C192.476 334.099 219.624 321.611 219.624 321.611C219.624 321.611 233.74 305.866 234.826 299.893C235.912 293.921 240.799 277.089 240.799 277.089L254.372 299.893V345.501L252.201 369.934L276.09 366.676C276.09 366.676 273.919 351.473 276.09 349.302C278.262 347.13 281.52 321.068 279.348 317.81C277.176 314.553 280.434 299.893 279.348 297.721C278.262 295.549 278.805 279.804 276.09 275.46C273.376 271.117 257.087 226.595 257.087 226.595L209.307 219.536Z" fill="#2F2E41"/>
<path d="M255.458 368.848C255.458 368.848 247.314 382.421 252.743 384.05C258.173 385.679 268.489 384.05 269.575 384.05C270.661 384.05 290.207 384.593 290.207 384.593C290.207 384.593 303.238 381.879 303.238 378.078C303.238 374.277 295.094 374.277 292.379 373.734C289.664 373.191 272.833 366.676 272.833 366.676L255.458 368.848Z" fill="#2F2E41"/>
<path d="M153.162 335.797C153.162 335.797 137.47 333.719 138.133 339.349C138.796 344.978 144.391 353.797 144.823 354.794C145.115 355.469 148.545 364.012 150.728 369.457C152.306 373.448 154.676 377.078 157.697 380.127C159.831 382.26 162.158 383.97 163.684 383.309C167.171 381.799 163.934 374.325 163.353 371.619C162.772 368.912 162.061 350.877 162.061 350.877L153.162 335.797Z" fill="#2F2E41"/>
<path d="M262.245 129.678L279.62 89.4997C279.62 89.4997 277.991 85.6991 274.19 86.242C274.19 86.242 269.032 72.9397 259.259 72.9397C259.259 72.9397 244.599 64.7955 240.256 72.9397C240.256 72.9397 231.025 81.084 231.568 88.6853C232.111 96.2866 232.654 101.716 232.654 101.716C232.654 101.716 223.967 102.802 225.596 107.146C227.225 111.489 227.768 111.489 225.596 113.118L223.424 114.747C223.424 114.747 178.359 155.468 203.335 215.193L205.507 224.423V233.11C205.507 233.11 260.345 233.653 260.345 233.11C260.345 232.567 259.259 229.309 261.431 227.138C263.603 224.966 263.603 221.708 263.603 221.708C263.603 221.708 261.431 210.849 262.517 207.591C263.603 204.334 264.145 190.217 261.974 186.959C259.802 183.702 260.888 157.64 260.888 157.64L265.774 148.41L264.145 142.98L262.517 137.551L262.245 129.678Z" fill="#8985A8"/>
<path opacity="0.1" d="M257.63 238.54C257.63 238.54 251.115 220.622 251.658 217.365C252.201 214.107 250.572 207.591 250.572 207.591L248.4 163.612C248.4 163.612 257.63 124.52 236.998 118.005C236.998 118.005 231.777 120.283 227.5 127.613C223.27 129.497 218.137 134.266 216.909 146.238C214.737 167.413 224.51 221.708 229.397 230.938C234.283 240.168 237.541 246.684 237.541 246.684L242.648 244.414C242.859 244.832 242.97 245.055 242.97 245.055L257.63 238.54Z" fill="black"/>
<path d="M260.616 124.792C261.516 124.792 262.245 124.063 262.245 123.163C262.245 122.263 261.516 121.534 260.616 121.534C259.717 121.534 258.987 122.263 258.987 123.163C258.987 124.063 259.717 124.792 260.616 124.792Z" fill="#F2F2F2"/>
<path d="M261.159 123.163H260.073V148.681H261.159V123.163Z" fill="#3F3D56"/>
<path d="M241.07 240.44L245.414 249.67C245.414 249.67 255.187 246.412 255.187 244.784C255.187 243.155 250.843 236.096 250.843 236.096L241.07 240.44Z" fill="#FFB8B8"/>
<path d="M234.826 118.005C234.826 118.005 222.338 123.434 220.166 144.609C217.995 165.784 227.768 220.079 232.654 229.309C237.541 238.54 240.799 245.055 240.799 245.055L255.458 238.54C255.458 238.54 248.943 220.622 249.486 217.365C250.029 214.107 248.4 207.591 248.4 207.591L246.228 163.612C246.228 163.612 255.458 124.52 234.826 118.005Z" fill="#8985A8"/>
</g>
<defs>
<clipPath id="clip0_7_56">
<rect width="565.776" height="385" fill="white"/>
</clipPath>
</defs>
</svg>
