<svg width="1920" height="952" viewBox="0 0 1920 952" fill="none" xmlns="http://www.w3.org/2000/svg">
<path id="Vector" fill-rule="evenodd" clip-rule="evenodd" d="M1920 952L1874 943.25C1829 935.375 1737 918.75 1646 910C1554 901.25 1463 901.25 1371 901.25C1280 901.25 1189 901.25 1097 851.375C1006 800.625 914 700 823 674.625C731 649.25 640 700 549 683.375C457 666.75 366 582.75 274 557.375C183 532 91 565.25 46 582.75L0 599.375V0H46C91 0 183 0 274 0C366 0 457 0 549 0C640 0 731 0 823 0C914 0 1006 0 1097 0C1189 0 1280 0 1371 0C1463 0 1554 0 1646 0C1737 0 1829 0 1874 0H1920V952Z" fill="url(#paint0_linear_142_449)"/>
<defs>
<linearGradient id="paint0_linear_142_449" x1="-616" y1="1255.19" x2="1988.99" y2="-470.283" gradientUnits="userSpaceOnUse">
<stop stop-color="#3793FF"/>
<stop offset="1" stop-color="#B337FF"/>
</linearGradient>
</defs>
</svg>
