<svg width="2560" height="1088" viewBox="0 0 2560 1088" fill="none" xmlns="http://www.w3.org/2000/svg">
<path fill-rule="evenodd" clip-rule="evenodd" d="M2560 1088L2498.67 1078C2438.67 1069 2316 1050 2194.67 1040C2072 1030 1950.67 1030 1828 1030C1706.67 1030 1585.33 1030 1462.67 973C1341.33 915 1218.67 800 1097.33 771C974.667 742 853.333 800 732 781C609.333 762 488 666 365.333 637C244 608 121.333 646 61.3333 666L-7.62939e-05 685V0H61.3333C121.333 0 244 0 365.333 0C488 0 609.333 0 732 0C853.333 0 974.667 0 1097.33 0C1218.67 0 1341.33 0 1462.67 0C1585.33 0 1706.67 0 1828 0C1950.67 0 2072 0 2194.67 0C2316 0 2438.67 0 2498.67 0H2560V1088Z" fill="url(#paint0_linear_137_474)"/>
<defs>
<linearGradient id="paint0_linear_137_474" x1="-821.333" y1="1434.5" x2="2307.44" y2="-983.317" gradientUnits="userSpaceOnUse">
<stop stop-color="#3793FF"/>
<stop offset="1" stop-color="#B337FF"/>
</linearGradient>
</defs>
</svg>
