<svg width="170" height="170" viewBox="0 0 170 170" fill="none" xmlns="http://www.w3.org/2000/svg">
<circle cx="85" cy="85" r="85" fill="#264DE4"/>
<path d="M127.843 142.768L139 39.4646H84.3169H30L40.2992 142.768L84.3169 159.622L127.843 142.768Z" fill="white"/>
<path d="M63.2416 17.9516C63.2416 16.132 63.8671 14.7218 65.1181 13.721C66.3918 12.6974 68.3024 12.1857 70.8499 12.1857C72.5331 12.1857 73.966 12.3449 75.1488 12.6633V17.3716C73.875 16.9849 72.6127 16.7916 71.3617 16.7916C70.1334 16.7916 69.3373 16.9394 68.9734 17.2351C68.6095 17.5081 68.4275 17.9175 68.4275 18.4634V29.927C68.4275 31.0188 69.2805 31.5647 70.9864 31.5647C72.715 31.5647 74.1366 31.3941 75.2511 31.0529V35.6588C74.0229 36 72.5331 36.1706 70.7817 36.1706C68.2342 36.1706 66.335 35.6702 65.084 34.6694C63.8557 33.6686 63.2416 32.2584 63.2416 30.4388V17.9516ZM76.7902 17.8834C76.7902 16.0638 77.4043 14.6649 78.6325 13.6869C79.8608 12.6861 81.6235 12.1857 83.9208 12.1857C86.2408 12.1857 87.9695 12.4245 89.1067 12.9022V17.8151C87.7193 17.2238 86.1385 16.9281 84.3643 16.9281C83.4545 16.9281 82.8404 17.0759 82.522 17.3716C82.2035 17.6445 82.0443 18.0426 82.0443 18.5657V19.0775C82.0443 19.7144 82.1467 20.192 82.3514 20.5105C82.5788 20.8061 83.0565 21.1473 83.7843 21.534L87.6738 23.7175C89.5389 24.7411 90.4715 26.2764 90.4715 28.3235V30.4388C90.4715 32.2811 89.7891 33.7027 88.4244 34.7035C87.0597 35.6816 85.1377 36.1706 82.6584 36.1706C80.202 36.1706 78.3482 35.909 77.0972 35.3859V30.4388C78.6439 31.0984 80.3953 31.4282 82.3514 31.4282C84.3075 31.4282 85.2855 30.8709 85.2855 29.7564V29.2446C85.2855 28.7215 85.1718 28.3348 84.9443 28.0846C84.7396 27.8117 84.3416 27.516 83.7502 27.1976L80.0996 25.2187C77.8933 23.9905 76.7902 22.2618 76.7902 20.0328V17.8834ZM91.7834 17.8834C91.7834 16.0638 92.3975 14.6649 93.6258 13.6869C94.854 12.6861 96.6168 12.1857 98.914 12.1857C101.234 12.1857 102.963 12.4245 104.1 12.9022V17.8151C102.713 17.2238 101.132 16.9281 99.3576 16.9281C98.4478 16.9281 97.8336 17.0759 97.5152 17.3716C97.1968 17.6445 97.0376 18.0426 97.0376 18.5657V19.0775C97.0376 19.7144 97.1399 20.192 97.3446 20.5105C97.5721 20.8061 98.0497 21.1473 98.7776 21.534L102.667 23.7175C104.532 24.7411 105.465 26.2764 105.465 28.3235V30.4388C105.465 32.2811 104.782 33.7027 103.418 34.7035C102.053 35.6816 100.131 36.1706 97.6517 36.1706C95.1952 36.1706 93.3414 35.909 92.0905 35.3859V30.4388C93.6371 31.0984 95.3885 31.4282 97.3446 31.4282C99.3007 31.4282 100.279 30.8709 100.279 29.7564V29.2446C100.279 28.7215 100.165 28.3348 99.9376 28.0846C99.7329 27.8117 99.3348 27.516 98.7435 27.1976L95.0928 25.2187C92.8865 23.9905 91.7834 22.2618 91.7834 20.0328V17.8834Z" fill="white"/>
<path d="M41.1575 47.6217H129.559L121.523 136.023L83.5318 146.982L49.9246 136.023V110.453H63.0752L66.7282 122.873L83.5318 127.987L105.45 122.873V102.416H49.9246H44.8104V83.4207H105.45V66.6171H44.8104L41.1575 47.6217Z" fill="#264DE4"/>
</svg>
